<svg width="11" height="7" viewBox="0 0 11 7" fill="none" xmlns="http://www.w3.org/2000/svg">
<path d="M5.87939 6.5409C5.75983 6.54147 5.64135 6.51814 5.53092 6.4723C5.42049 6.42646 5.32032 6.35903 5.2363 6.27396L1.02585 2.0271C0.914954 1.85606 0.864694 1.65275 0.883122 1.44975C0.901551 1.24674 0.9876 1.0558 1.12748 0.907532C1.26736 0.759261 1.45296 0.662244 1.65455 0.632032C1.85614 0.601819 2.06203 0.640161 2.23923 0.74091L5.87939 4.38107L9.51956 0.74091C9.69676 0.640161 9.90265 0.601819 10.1042 0.632032C10.3058 0.662244 10.4914 0.759261 10.6313 0.907532C10.7712 1.0558 10.8572 1.24674 10.8757 1.44975C10.8941 1.65275 10.8438 1.85606 10.7329 2.0271L6.48609 6.27396C6.3253 6.43705 6.10827 6.53255 5.87939 6.5409V6.5409Z" fill="white"/>
</svg>
