<svg width="208" height="102" viewBox="0 0 208 102" fill="none" xmlns="http://www.w3.org/2000/svg">
<path d="M2.92688 27.5773V74.5529H31.7941C35.9451 74.5529 39.2927 71.1449 39.2927 66.919V55.8771C39.2927 53.178 37.9537 50.8333 35.9451 49.4974C37.9537 48.1342 39.2927 45.7895 39.2927 43.1177V35.2111C39.2927 30.9853 35.9451 27.5773 31.7941 27.5773H2.92688ZM8.48393 30.2491H31.7137C34.4989 30.2491 36.7485 32.5393 36.7485 35.3475V43.2812C36.7485 46.0894 34.4989 48.3523 31.7137 48.3523H8.48393V30.2491ZM8.48393 50.8333H31.7137C34.4989 50.8333 36.7485 53.0962 36.7485 55.9317V66.919C36.7485 69.7544 34.4989 72.0173 31.7137 72.0173H8.48393V50.8333Z" fill="#87888A"/>
<path d="M52.2805 27.5773V74.5529H81.1427C85.2965 74.5529 88.6464 71.1449 88.6464 66.919V35.2111C88.6464 31.0125 85.2965 27.5773 81.1427 27.5773H52.2805ZM86.0737 66.919C86.0737 69.7544 83.8226 72.0173 81.0623 72.0173H57.8011V30.2491H81.0623C83.8226 30.2491 86.0737 32.5393 86.0737 35.3475V66.919Z" fill="#87888A"/>
<path d="M108.176 27.5773C103.228 27.5773 99.6585 31.2558 99.6585 35.5064V45.452C99.6585 48.858 102.633 52.5637 107.419 52.5637H114.449V52.591H129.158C131.565 52.591 132.376 53.2994 132.376 55.3158V68.8308C132.376 71.0924 131.024 71.8826 129.753 71.8826H106.689C103.877 71.8826 101.605 69.5937 101.605 66.7599L99.0366 66.9234C99.0366 71.1469 102.389 74.5529 106.608 74.5529H129.483C134.431 74.5529 138 70.8744 138 66.6237V55.0433C138 51.61 135.026 47.9316 130.24 47.9316H123.21H114.449H108.5C106.094 47.9316 105.256 47.1959 105.256 45.1795V33.2994C105.256 31.0105 106.608 30.2476 107.878 30.2476H128.726C131.511 30.2476 133.782 32.5364 133.782 35.343L136.351 35.2067C136.351 30.9833 132.998 27.5773 128.807 27.5773H108.176Z" fill="#87888A"/>
<path d="M205.537 27.5773L190.785 74.5529H185.605L174.731 31.6941L161.172 74.5529H155.993L144.061 27.5773H149.43L159.871 68.6366L172.697 27.5773H179.043L189.483 68.6366L202.283 27.5773H205.537Z" fill="#87888A"/>
<path d="M2.06104 17.1382H205.537" stroke="#E3001B" stroke-width="2.98088" stroke-linecap="round"/>
<path d="M2.06104 84.9918H205.537" stroke="#E3001B" stroke-width="2.98088" stroke-linecap="round"/>
<path d="M5.19838 7.56908V2.9761L5.15653 3.26112L3.60788 7.56908H3.29164L1.72905 3.26112L1.69184 2.9761V7.56908H1.09192V0.868839H1.40351L3.42651 6.3636L3.44511 6.61124L3.46372 6.3636L5.48207 0.868839H5.79831V7.56908H5.19838Z" fill="#030303"/>
<path d="M7.99041 7.56908V0.868839H8.59033V7.56908H7.99041Z" fill="#030303"/>
<path d="M12.4055 1.44355V7.56908H11.8056V1.44355H10.2151V0.868839H13.996V1.44355H12.4055Z" fill="#030303"/>
<path d="M19.2761 7.56908H19.0854L18.7366 7.03175C18.5909 7.22488 18.4142 7.37907 18.2064 7.49432C17.9987 7.60646 17.7677 7.66253 17.5135 7.66253H17.1647C16.9384 7.66253 16.7244 7.62048 16.5229 7.53637C16.3245 7.44916 16.1509 7.33079 16.0021 7.18127C15.8532 7.03175 15.7354 6.85732 15.6486 6.65796C15.5649 6.4586 15.523 6.24523 15.523 6.01784V2.42008C15.523 2.19269 15.5649 1.97932 15.6486 1.77996C15.7354 1.5806 15.8532 1.40617 16.0021 1.25665C16.1509 1.10713 16.3245 0.990322 16.5229 0.906218C16.7244 0.819 16.9384 0.775391 17.1647 0.775391H17.6391C17.8654 0.775391 18.0778 0.819 18.2762 0.906218C18.4746 0.990322 18.6482 1.10713 18.7971 1.25665C18.9459 1.40617 19.0621 1.5806 19.1458 1.77996C19.2327 1.97932 19.2761 2.19269 19.2761 2.42008V2.69108L18.6761 2.78453V2.42008C18.6761 2.27056 18.6482 2.13195 18.5924 2.00424C18.5366 1.87341 18.4607 1.75971 18.3645 1.66315C18.2684 1.56659 18.1553 1.49027 18.0251 1.4342C17.8979 1.37813 17.76 1.3501 17.6112 1.3501H17.1926C17.0438 1.3501 16.9043 1.37813 16.7741 1.4342C16.6469 1.49027 16.5338 1.56659 16.4346 1.66315C16.3384 1.75971 16.2625 1.87341 16.2067 2.00424C16.1509 2.13195 16.123 2.27056 16.123 2.42008V6.01784C16.123 6.16736 16.1509 6.30753 16.2067 6.43836C16.2625 6.56607 16.3384 6.67977 16.4346 6.77944C16.5338 6.87601 16.6469 6.95232 16.7741 7.00839C16.9043 7.06446 17.0438 7.09249 17.1926 7.09249H17.6112C17.76 7.09249 17.8979 7.06446 18.0251 7.00839C18.1553 6.95232 18.2684 6.87601 18.3645 6.77944C18.4607 6.67977 18.5366 6.56607 18.5924 6.43836C18.6482 6.30753 18.6761 6.16736 18.6761 6.01784V4.62079H17.6112V4.04608H19.2761V7.56908Z" fill="#030303"/>
<path d="M21.2775 7.56908V0.868839H21.8774V6.99437H24.4306V7.56908H21.2775Z" fill="#030303"/>
<path d="M26.0507 7.56908V0.868839H26.6506V7.56908H26.0507Z" fill="#030303"/>
<path d="M28.8473 7.56908V0.868839H32.6004V1.44355H29.4473V3.93394H32.0004V4.50865H29.4473V6.99437H32.6004V7.56908H28.8473Z" fill="#030303"/>
<path d="M38.1688 5.92439C38.1688 6.15178 38.1254 6.36516 38.0386 6.56451C37.9548 6.76387 37.8386 6.93831 37.6898 7.08782C37.5409 7.23734 37.3658 7.35571 37.1642 7.44293C36.9658 7.52703 36.7534 7.56908 36.5271 7.56908H34.4158V0.868839H36.5271C36.7534 0.868839 36.9658 0.912448 37.1642 0.999667C37.3658 1.08377 37.5409 1.20058 37.6898 1.3501C37.8386 1.49961 37.9548 1.67561 38.0386 1.87808C38.1254 2.07744 38.1688 2.29081 38.1688 2.5182V5.92439ZM37.5688 2.5182C37.5688 2.36868 37.5409 2.23007 37.4851 2.10236C37.4293 1.97153 37.3518 1.85783 37.2526 1.76127C37.1565 1.66159 37.0433 1.58372 36.9131 1.52765C36.786 1.47158 36.648 1.44355 36.4992 1.44355H35.0157V6.99437H36.4992C36.648 6.99437 36.786 6.96634 36.9131 6.91027C37.0433 6.8542 37.1565 6.77789 37.2526 6.68132C37.3518 6.58476 37.4293 6.47262 37.4851 6.34491C37.5409 6.21408 37.5688 6.07391 37.5688 5.92439V2.5182Z" fill="#030303"/>
<path d="M43.125 7.56908V0.868839H43.7249V7.56908H43.125Z" fill="#030303"/>
<path d="M50.0281 7.56908V2.9761L49.9863 3.26112L48.4376 7.56908H48.1214L46.5588 3.26112L46.5216 2.9761V7.56908H45.9217V0.868839H46.2333L48.2563 6.3636L48.2749 6.61124L48.2935 6.3636L50.3118 0.868839H50.6281V7.56908H50.0281Z" fill="#030303"/>
<path d="M4.84494 99.8757C4.84494 100.103 4.80153 100.316 4.71472 100.516C4.63101 100.715 4.51475 100.89 4.36593 101.039C4.21711 101.189 4.04194 101.307 3.84041 101.394C3.64199 101.478 3.42961 101.52 3.20328 101.52H1.09192V94.8201H3.20328C3.42961 94.8201 3.64199 94.8637 3.84041 94.951C4.04194 95.0351 4.21711 95.1519 4.36593 95.3014C4.51475 95.4509 4.63101 95.6269 4.71472 95.8294C4.80153 96.0287 4.84494 96.2421 4.84494 96.4695V96.5349C4.84494 96.6938 4.82324 96.8464 4.77983 96.9928C4.73952 97.1361 4.68062 97.27 4.60311 97.3946C4.5256 97.5192 4.43414 97.6329 4.32872 97.7357C4.22331 97.8354 4.1055 97.9195 3.97528 97.988C4.1055 98.0566 4.22331 98.1422 4.32872 98.245C4.43414 98.3447 4.5256 98.4584 4.60311 98.5861C4.68062 98.7107 4.73952 98.8462 4.77983 98.9926C4.82324 99.1359 4.84494 99.287 4.84494 99.4458V99.8757ZM4.24501 99.3477C4.24501 99.1982 4.21711 99.0596 4.1613 98.9319C4.1055 98.801 4.02799 98.6873 3.92877 98.5908C3.83266 98.4942 3.7195 98.4179 3.58928 98.3618C3.46217 98.3058 3.3242 98.2777 3.17538 98.2777H1.69184V100.946H3.17538C3.3242 100.946 3.46217 100.918 3.58928 100.862C3.7195 100.805 3.83266 100.729 3.92877 100.633C4.02799 100.536 4.1055 100.424 4.1613 100.296C4.21711 100.165 4.24501 100.025 4.24501 99.8757V99.3477ZM4.24501 96.4695C4.24501 96.32 4.21711 96.1814 4.1613 96.0537C4.1055 95.9228 4.02799 95.8091 3.92877 95.7126C3.83266 95.6129 3.7195 95.535 3.58928 95.4789C3.46217 95.4229 3.3242 95.3948 3.17538 95.3948H1.69184V97.703H3.17538C3.3242 97.703 3.46217 97.675 3.58928 97.6189C3.7195 97.5628 3.83266 97.4865 3.92877 97.39C4.02799 97.2903 4.1055 97.1766 4.1613 97.0489C4.21711 96.918 4.24501 96.7779 4.24501 96.6284V96.4695Z" fill="#030303"/>
<path d="M10.3157 99.9691C10.3157 100.197 10.2723 100.41 10.1855 100.609C10.1018 100.809 9.9855 100.983 9.83669 101.133C9.68787 101.282 9.51425 101.4 9.31582 101.488C9.1174 101.572 8.90502 101.614 8.67869 101.614H8.20433C7.978 101.614 7.76408 101.572 7.56255 101.488C7.36413 101.4 7.1905 101.282 7.04169 101.133C6.89287 100.983 6.77505 100.809 6.68824 100.609C6.60453 100.41 6.56268 100.197 6.56268 99.9691V94.8201H7.1626V99.9691C7.1626 100.119 7.1905 100.259 7.24631 100.39C7.30212 100.517 7.37808 100.631 7.47419 100.731C7.5734 100.827 7.68657 100.904 7.81368 100.96C7.9439 101.016 8.08342 101.044 8.23224 101.044H8.65079C8.79961 101.044 8.93757 101.016 9.06469 100.96C9.19491 100.904 9.30807 100.827 9.40418 100.731C9.50029 100.631 9.57625 100.517 9.63206 100.39C9.68787 100.259 9.71577 100.119 9.71577 99.9691V94.8201H10.3157V99.9691Z" fill="#030303"/>
<path d="M15.8516 101.52L13.0705 96.6424L13.0147 96.3527V101.52H12.4148V94.8201H12.7264L15.5074 99.7028L15.5679 99.9878V94.8201H16.1678V101.52H15.8516Z" fill="#030303"/>
<path d="M22.1176 99.8757C22.1176 100.103 22.0742 100.316 21.9874 100.516C21.9036 100.715 21.7874 100.89 21.6386 101.039C21.4897 101.189 21.3146 101.307 21.113 101.394C20.9146 101.478 20.7022 101.52 20.4759 101.52H18.3645V94.8201H20.4759C20.7022 94.8201 20.9146 94.8637 21.113 94.951C21.3146 95.0351 21.4897 95.1519 21.6386 95.3014C21.7874 95.4509 21.9036 95.6269 21.9874 95.8294C22.0742 96.0287 22.1176 96.2421 22.1176 96.4695V99.8757ZM21.5176 96.4695C21.5176 96.32 21.4897 96.1814 21.4339 96.0537C21.3781 95.9228 21.3006 95.8091 21.2014 95.7126C21.1053 95.6129 20.9921 95.535 20.8619 95.4789C20.7348 95.4229 20.5968 95.3948 20.448 95.3948H18.9645V100.946H20.448C20.5968 100.946 20.7348 100.918 20.8619 100.862C20.9921 100.805 21.1053 100.729 21.2014 100.633C21.3006 100.536 21.3781 100.424 21.4339 100.296C21.4897 100.165 21.5176 100.025 21.5176 99.8757V96.4695Z" fill="#030303"/>
<path d="M24.212 101.52V94.8201H27.965V95.3948H24.8119V97.8852H27.3651V98.4599H24.8119V100.946H27.965V101.52H24.212Z" fill="#030303"/>
<path d="M33.4358 99.9691C33.4358 100.197 33.3893 100.41 33.2963 100.609C33.2063 100.809 33.0839 100.983 32.9289 101.133C32.7769 101.282 32.5987 101.4 32.394 101.488C32.1925 101.572 31.9786 101.614 31.7523 101.614H31.2733C31.0469 101.614 30.8315 101.572 30.6268 101.488C30.4253 101.4 30.247 101.282 30.092 101.133C29.9401 100.983 29.8176 100.809 29.7246 100.609C29.6347 100.41 29.5897 100.197 29.5897 99.9691V99.7028L30.1897 99.6047V99.9691C30.1897 100.119 30.2191 100.259 30.278 100.39C30.34 100.517 30.4222 100.631 30.5245 100.731C30.6268 100.827 30.7446 100.904 30.878 100.96C31.0144 101.016 31.157 101.044 31.3058 101.044H31.7244C31.8732 101.044 32.0142 101.016 32.1476 100.96C32.2809 100.904 32.3987 100.827 32.501 100.731C32.6033 100.631 32.6839 100.517 32.7428 100.39C32.8048 100.259 32.8359 100.119 32.8359 99.9691V99.7682C32.8359 99.5377 32.7909 99.3461 32.701 99.1935C32.6111 99.0409 32.4917 98.9116 32.3429 98.8057C32.1941 98.6967 32.0251 98.6048 31.836 98.53C31.65 98.4553 31.4577 98.3805 31.2593 98.3058C31.0609 98.231 30.8671 98.1484 30.678 98.0581C30.492 97.9678 30.3245 97.8556 30.1757 97.7217C30.0269 97.5846 29.9075 97.418 29.8176 97.2218C29.7277 97.0255 29.6828 96.7841 29.6828 96.4975V96.3714C29.6828 96.144 29.7246 95.9306 29.8083 95.7313C29.8951 95.5319 30.013 95.3575 30.1618 95.2079C30.3106 95.0584 30.4842 94.9416 30.6826 94.8575C30.8842 94.7703 31.0981 94.7267 31.3244 94.7267H31.7523C31.9786 94.7267 32.191 94.7703 32.3894 94.8575C32.5878 94.9416 32.7614 95.0584 32.9103 95.2079C33.0591 95.3575 33.1753 95.5319 33.2591 95.7313C33.3459 95.9306 33.3893 96.144 33.3893 96.3714V96.5443L32.7893 96.6424V96.3714C32.7893 96.2219 32.7614 96.0832 32.7056 95.9555C32.6498 95.8247 32.5739 95.711 32.4778 95.6144C32.3816 95.5179 32.2685 95.4416 32.1383 95.3855C32.0112 95.3294 31.8732 95.3014 31.7244 95.3014H31.3523C31.2035 95.3014 31.064 95.3294 30.9338 95.3855C30.8067 95.4416 30.6935 95.5179 30.5943 95.6144C30.4982 95.711 30.4222 95.8247 30.3664 95.9555C30.3106 96.0832 30.2827 96.2219 30.2827 96.3714V96.4975C30.2827 96.7125 30.3276 96.8931 30.4176 97.0395C30.5075 97.1859 30.6268 97.3121 30.7756 97.418C30.9245 97.5208 31.0919 97.6111 31.2779 97.689C31.467 97.7638 31.6608 97.8416 31.8592 97.9226C32.0577 98.0005 32.2499 98.0877 32.4359 98.1843C32.625 98.2777 32.794 98.3945 32.9428 98.5347C33.0916 98.6718 33.211 98.84 33.3009 99.0393C33.3908 99.2387 33.4358 99.4816 33.4358 99.7682V99.9691Z" fill="#030303"/>
<path d="M36.8231 100.049L36.8417 100.296L36.8603 100.049L38.3392 94.8201H38.9577L36.9951 101.52H36.6789L34.7257 94.8201H35.3488L36.8231 100.049Z" fill="#030303"/>
<path d="M40.4801 101.52V94.8201H44.2331V95.3948H41.08V97.8852H43.6332V98.4599H41.08V100.946H44.2331V101.52H40.4801Z" fill="#030303"/>
<path d="M49.183 101.52L47.3739 98.6609H46.5508V101.52H45.9509V94.8201H48.0669C48.2932 94.8201 48.5056 94.8637 48.704 94.951C48.9024 95.0351 49.0761 95.1519 49.2249 95.3014C49.3737 95.4509 49.49 95.6269 49.5737 95.8294C49.6605 96.0287 49.7039 96.2421 49.7039 96.4695V97.0115C49.7039 97.2389 49.6605 97.4538 49.5737 97.6563C49.49 97.8556 49.3737 98.0301 49.2249 98.1796C49.0761 98.3291 48.9024 98.4475 48.704 98.5347C48.5056 98.6188 48.2932 98.6609 48.0669 98.6609L49.876 101.52H49.183ZM49.104 96.4695C49.104 96.32 49.0761 96.1814 49.0202 96.0537C48.9644 95.9228 48.8885 95.8091 48.7924 95.7126C48.6963 95.6129 48.5831 95.535 48.4529 95.4789C48.3258 95.4229 48.1878 95.3948 48.039 95.3948H46.5508V98.0862H48.039C48.1878 98.0862 48.3258 98.0581 48.4529 98.002C48.5831 97.946 48.6963 97.8697 48.7924 97.7731C48.8885 97.6734 48.9644 97.5597 49.0202 97.432C49.0761 97.3012 49.104 97.161 49.104 97.0115V96.4695Z" fill="#030303"/>
<path d="M55.4444 99.8757C55.4444 100.103 55.401 100.316 55.3142 100.516C55.2304 100.715 55.1142 100.89 54.9654 101.039C54.8165 101.189 54.6414 101.307 54.4398 101.394C54.2414 101.478 54.029 101.52 53.8027 101.52H51.6914V94.8201H53.8027C54.029 94.8201 54.2414 94.8637 54.4398 94.951C54.6414 95.0351 54.8165 95.1519 54.9654 95.3014C55.1142 95.4509 55.2304 95.6269 55.3142 95.8294C55.401 96.0287 55.4444 96.2421 55.4444 96.4695V96.5349C55.4444 96.6938 55.4227 96.8464 55.3793 96.9928C55.339 97.1361 55.2801 97.27 55.2025 97.3946C55.125 97.5192 55.0336 97.6329 54.9282 97.7357C54.8227 97.8354 54.7049 97.9195 54.5747 97.988C54.7049 98.0566 54.8227 98.1422 54.9282 98.245C55.0336 98.3447 55.125 98.4584 55.2025 98.5861C55.2801 98.7107 55.339 98.8462 55.3793 98.9926C55.4227 99.1359 55.4444 99.287 55.4444 99.4458V99.8757ZM54.8444 99.3477C54.8444 99.1982 54.8165 99.0596 54.7607 98.9319C54.7049 98.801 54.6274 98.6873 54.5282 98.5908C54.4321 98.4942 54.3189 98.4179 54.1887 98.3618C54.0616 98.3058 53.9236 98.2777 53.7748 98.2777H52.2913V100.946H53.7748C53.9236 100.946 54.0616 100.918 54.1887 100.862C54.3189 100.805 54.4321 100.729 54.5282 100.633C54.6274 100.536 54.7049 100.424 54.7607 100.296C54.8165 100.165 54.8444 100.025 54.8444 99.8757V99.3477ZM54.8444 96.4695C54.8444 96.32 54.8165 96.1814 54.7607 96.0537C54.7049 95.9228 54.6274 95.8091 54.5282 95.7126C54.4321 95.6129 54.3189 95.535 54.1887 95.4789C54.0616 95.4229 53.9236 95.3948 53.7748 95.3948H52.2913V97.703H53.7748C53.9236 97.703 54.0616 97.675 54.1887 97.6189C54.3189 97.5628 54.4321 97.4865 54.5282 97.39C54.6274 97.2903 54.7049 97.1766 54.7607 97.0489C54.8165 96.918 54.8444 96.7779 54.8444 96.6284V96.4695Z" fill="#030303"/>
<path d="M59.7618 99.9598H57.6504L57.2133 101.52H56.5901L58.5433 94.8201H58.8596L60.8221 101.52H60.2036L59.7618 99.9598ZM57.8132 99.3851H59.6037L58.7247 96.2966L58.7061 96.049L58.6875 96.2966L57.8132 99.3851Z" fill="#030303"/>
<path d="M65.7813 101.52L63.0003 96.6424L62.9445 96.3527V101.52H62.3445V94.8201H62.6561L65.4372 99.7028L65.4976 99.9878V94.8201H66.0976V101.52H65.7813Z" fill="#030303"/>
<path d="M72.0473 99.8757C72.0473 100.103 72.0039 100.316 71.9171 100.516C71.8334 100.715 71.7171 100.89 71.5683 101.039C71.4195 101.189 71.2443 101.307 71.0428 101.394C70.8444 101.478 70.632 101.52 70.4057 101.52H68.2943V94.8201H70.4057C70.632 94.8201 70.8444 94.8637 71.0428 94.951C71.2443 95.0351 71.4195 95.1519 71.5683 95.3014C71.7171 95.4509 71.8334 95.6269 71.9171 95.8294C72.0039 96.0287 72.0473 96.2421 72.0473 96.4695V99.8757ZM71.4474 96.4695C71.4474 96.32 71.4195 96.1814 71.3637 96.0537C71.3079 95.9228 71.2304 95.8091 71.1312 95.7126C71.035 95.6129 70.9219 95.535 70.7917 95.4789C70.6645 95.4229 70.5266 95.3948 70.3778 95.3948H68.8942V100.946H70.3778C70.5266 100.946 70.6645 100.918 70.7917 100.862C70.9219 100.805 71.035 100.729 71.1312 100.633C71.2304 100.536 71.3079 100.424 71.3637 100.296C71.4195 100.165 71.4474 100.025 71.4474 99.8757V96.4695Z" fill="#030303"/>
<path d="M80.7566 99.8757C80.7566 100.103 80.7132 100.316 80.6263 100.516C80.5426 100.715 80.4264 100.89 80.2775 101.039C80.1287 101.189 79.9536 101.307 79.752 101.394C79.5536 101.478 79.3412 101.52 79.1149 101.52H77.0035V94.8201H79.1149C79.3412 94.8201 79.5536 94.8637 79.752 94.951C79.9536 95.0351 80.1287 95.1519 80.2775 95.3014C80.4264 95.4509 80.5426 95.6269 80.6263 95.8294C80.7132 96.0287 80.7566 96.2421 80.7566 96.4695V99.8757ZM80.1566 96.4695C80.1566 96.32 80.1287 96.1814 80.0729 96.0537C80.0171 95.9228 79.9396 95.8091 79.8404 95.7126C79.7443 95.6129 79.6311 95.535 79.5009 95.4789C79.3738 95.4229 79.2358 95.3948 79.087 95.3948H77.6035V100.946H79.087C79.2358 100.946 79.3738 100.918 79.5009 100.862C79.6311 100.805 79.7443 100.729 79.8404 100.633C79.9396 100.536 80.0171 100.424 80.0729 100.296C80.1287 100.165 80.1566 100.025 80.1566 99.8757V96.4695Z" fill="#030303"/>
<path d="M82.851 101.52V94.8201H86.604V95.3948H83.4509V97.8852H86.0041V98.4599H83.4509V100.946H86.604V101.52H82.851Z" fill="#030303"/>
<path d="M91.5539 101.52L89.7448 98.6609H88.9217V101.52H88.3217V94.8201H90.4378C90.6641 94.8201 90.8765 94.8637 91.0749 94.951C91.2733 95.0351 91.4469 95.1519 91.5958 95.3014C91.7446 95.4509 91.8608 95.6269 91.9445 95.8294C92.0314 96.0287 92.0748 96.2421 92.0748 96.4695V97.0115C92.0748 97.2389 92.0314 97.4538 91.9445 97.6563C91.8608 97.8556 91.7446 98.0301 91.5958 98.1796C91.4469 98.3291 91.2733 98.4475 91.0749 98.5347C90.8765 98.6188 90.6641 98.6609 90.4378 98.6609L92.2468 101.52H91.5539ZM91.4748 96.4695C91.4748 96.32 91.4469 96.1814 91.3911 96.0537C91.3353 95.9228 91.2594 95.8091 91.1633 95.7126C91.0671 95.6129 90.954 95.535 90.8238 95.4789C90.6966 95.4229 90.5587 95.3948 90.4099 95.3948H88.9217V98.0862H90.4099C90.5587 98.0862 90.6966 98.0581 90.8238 98.002C90.954 97.946 91.0671 97.8697 91.1633 97.7731C91.2594 97.6734 91.3353 97.5597 91.3911 97.432C91.4469 97.3012 91.4748 97.161 91.4748 97.0115V96.4695Z" fill="#030303"/>
<path d="M100.579 99.9691C100.579 100.197 100.533 100.41 100.44 100.609C100.35 100.809 100.227 100.983 100.072 101.133C99.9205 101.282 99.7423 101.4 99.5377 101.488C99.3361 101.572 99.1222 101.614 98.8959 101.614H98.4169C98.1905 101.614 97.9751 101.572 97.7704 101.488C97.5689 101.4 97.3906 101.282 97.2356 101.133C97.0837 100.983 96.9612 100.809 96.8682 100.609C96.7783 100.41 96.7333 100.197 96.7333 99.9691V99.7028L97.3333 99.6047V99.9691C97.3333 100.119 97.3627 100.259 97.4216 100.39C97.4836 100.517 97.5658 100.631 97.6681 100.731C97.7704 100.827 97.8882 100.904 98.0216 100.96C98.158 101.016 98.3006 101.044 98.4494 101.044H98.868C99.0168 101.044 99.1579 101.016 99.2912 100.96C99.4245 100.904 99.5423 100.827 99.6446 100.731C99.7469 100.631 99.8275 100.517 99.8864 100.39C99.9484 100.259 99.9795 100.119 99.9795 99.9691V99.7682C99.9795 99.5377 99.9345 99.3461 99.8446 99.1935C99.7547 99.0409 99.6353 98.9116 99.4865 98.8057C99.3377 98.6967 99.1687 98.6048 98.9796 98.53C98.7936 98.4553 98.6013 98.3805 98.4029 98.3058C98.2045 98.231 98.0107 98.1484 97.8216 98.0581C97.6356 97.9678 97.4681 97.8556 97.3193 97.7217C97.1705 97.5846 97.0511 97.418 96.9612 97.2218C96.8713 97.0255 96.8264 96.7841 96.8264 96.4975V96.3714C96.8264 96.144 96.8682 95.9306 96.9519 95.7313C97.0387 95.5319 97.1565 95.3575 97.3054 95.2079C97.4542 95.0584 97.6278 94.9416 97.8262 94.8575C98.0278 94.7703 98.2417 94.7267 98.468 94.7267H98.8959C99.1222 94.7267 99.3346 94.7703 99.533 94.8575C99.7314 94.9416 99.905 95.0584 100.054 95.2079C100.203 95.3575 100.319 95.5319 100.403 95.7313C100.489 95.9306 100.533 96.144 100.533 96.3714V96.5443L99.9329 96.6424V96.3714C99.9329 96.2219 99.905 96.0832 99.8492 95.9555C99.7934 95.8247 99.7175 95.711 99.6214 95.6144C99.5252 95.5179 99.4121 95.4416 99.2819 95.3855C99.1547 95.3294 99.0168 95.3014 98.868 95.3014H98.4959C98.3471 95.3014 98.2076 95.3294 98.0774 95.3855C97.9502 95.4416 97.8371 95.5179 97.7379 95.6144C97.6418 95.711 97.5658 95.8247 97.51 95.9555C97.4542 96.0832 97.4263 96.2219 97.4263 96.3714V96.4975C97.4263 96.7125 97.4712 96.8931 97.5611 97.0395C97.6511 97.1859 97.7704 97.3121 97.9192 97.418C98.0681 97.5208 98.2355 97.6111 98.4215 97.689C98.6106 97.7638 98.8044 97.8416 99.0028 97.9226C99.2013 98.0005 99.3935 98.0877 99.5795 98.1843C99.7686 98.2777 99.9376 98.3945 100.086 98.5347C100.235 98.6718 100.355 98.84 100.445 99.0393C100.534 99.2387 100.579 99.4816 100.579 99.7682V99.9691Z" fill="#030303"/>
<path d="M102.539 101.52V94.8201H103.139V101.52H102.539Z" fill="#030303"/>
<path d="M108.991 99.9691C108.991 100.197 108.948 100.41 108.861 100.609C108.777 100.809 108.661 100.983 108.512 101.133C108.363 101.282 108.19 101.4 107.991 101.488C107.793 101.572 107.58 101.614 107.354 101.614H106.88C106.653 101.614 106.439 101.572 106.238 101.488C106.039 101.4 105.866 101.282 105.717 101.133C105.568 100.983 105.45 100.809 105.364 100.609C105.28 100.41 105.238 100.197 105.238 99.9691V96.3714C105.238 96.144 105.28 95.9306 105.364 95.7313C105.45 95.5319 105.568 95.3575 105.717 95.2079C105.866 95.0584 106.039 94.9416 106.238 94.8575C106.439 94.7703 106.653 94.7267 106.88 94.7267H107.354C107.58 94.7267 107.793 94.7703 107.991 94.8575C108.19 94.9416 108.363 95.0584 108.512 95.2079C108.661 95.3575 108.777 95.5319 108.861 95.7313C108.948 95.9306 108.991 96.144 108.991 96.3714V96.6424L108.391 96.7358V96.3714C108.391 96.2219 108.363 96.0832 108.307 95.9555C108.252 95.8247 108.176 95.711 108.079 95.6144C107.983 95.5179 107.87 95.4416 107.74 95.3855C107.613 95.3294 107.475 95.3014 107.326 95.3014H106.908C106.759 95.3014 106.619 95.3294 106.489 95.3855C106.362 95.4416 106.249 95.5179 106.149 95.6144C106.053 95.711 105.977 95.8247 105.922 95.9555C105.866 96.0832 105.838 96.2219 105.838 96.3714V99.9691C105.838 100.119 105.866 100.259 105.922 100.39C105.977 100.517 106.053 100.631 106.149 100.731C106.249 100.827 106.362 100.904 106.489 100.96C106.619 101.016 106.759 101.044 106.908 101.044H107.326C107.475 101.044 107.613 101.016 107.74 100.96C107.87 100.904 107.983 100.827 108.079 100.731C108.176 100.631 108.252 100.517 108.307 100.39C108.363 100.259 108.391 100.119 108.391 99.9691V99.6047L108.991 99.7028V99.9691Z" fill="#030303"/>
<path d="M114.15 101.52V98.4599H111.597V101.52H110.997V94.8201H111.597V97.8852H114.15V94.8201H114.75V101.52H114.15Z" fill="#030303"/>
<path d="M116.947 101.52V94.8201H120.7V95.3948H117.547V97.8852H120.1V98.4599H117.547V100.946H120.7V101.52H116.947Z" fill="#030303"/>
<path d="M125.65 101.52L123.841 98.6609H123.018V101.52H122.418V94.8201H124.534C124.76 94.8201 124.972 94.8637 125.171 94.951C125.369 95.0351 125.543 95.1519 125.692 95.3014C125.84 95.4509 125.957 95.6269 126.04 95.8294C126.127 96.0287 126.171 96.2421 126.171 96.4695V97.0115C126.171 97.2389 126.127 97.4538 126.04 97.6563C125.957 97.8556 125.84 98.0301 125.692 98.1796C125.543 98.3291 125.369 98.4475 125.171 98.5347C124.972 98.6188 124.76 98.6609 124.534 98.6609L126.343 101.52H125.65ZM125.571 96.4695C125.571 96.32 125.543 96.1814 125.487 96.0537C125.431 95.9228 125.355 95.8091 125.259 95.7126C125.163 95.6129 125.05 95.535 124.92 95.4789C124.792 95.4229 124.655 95.3948 124.506 95.3948H123.018V98.0862H124.506C124.655 98.0862 124.792 98.0581 124.92 98.002C125.05 97.946 125.163 97.8697 125.259 97.7731C125.355 97.6734 125.431 97.5597 125.487 97.432C125.543 97.3012 125.571 97.161 125.571 97.0115V96.4695Z" fill="#030303"/>
<path d="M131.311 101.52V98.4599H128.758V101.52H128.158V94.8201H128.758V97.8852H131.311V94.8201H131.911V101.52H131.311Z" fill="#030303"/>
<path d="M134.108 101.52V94.8201H137.861V95.3948H134.708V97.8852H137.261V98.4599H134.708V100.946H137.861V101.52H134.108Z" fill="#030303"/>
<path d="M139.676 101.52V94.8201H140.276V101.52H139.676Z" fill="#030303"/>
<path d="M144.091 95.3948V101.52H143.491V95.3948H141.901V94.8201H145.682V95.3948H144.091Z" fill="#030303"/>
<path d="M150.962 99.9691C150.962 100.197 150.915 100.41 150.822 100.609C150.732 100.809 150.61 100.983 150.455 101.133C150.303 101.282 150.125 101.4 149.92 101.488C149.719 101.572 149.505 101.614 149.278 101.614H148.799C148.573 101.614 148.358 101.572 148.153 101.488C147.951 101.4 147.773 101.282 147.618 101.133C147.466 100.983 147.344 100.809 147.251 100.609C147.161 100.41 147.116 100.197 147.116 99.9691V99.7028L147.716 99.6047V99.9691C147.716 100.119 147.745 100.259 147.804 100.39C147.866 100.517 147.948 100.631 148.051 100.731C148.153 100.827 148.271 100.904 148.404 100.96C148.541 101.016 148.683 101.044 148.832 101.044H149.25C149.399 101.044 149.54 101.016 149.674 100.96C149.807 100.904 149.925 100.827 150.027 100.731C150.129 100.631 150.21 100.517 150.269 100.39C150.331 100.259 150.362 100.119 150.362 99.9691V99.7682C150.362 99.5377 150.317 99.3461 150.227 99.1935C150.137 99.0409 150.018 98.9116 149.869 98.8057C149.72 98.6967 149.551 98.6048 149.362 98.53C149.176 98.4553 148.984 98.3805 148.785 98.3058C148.587 98.231 148.393 98.1484 148.204 98.0581C148.018 97.9678 147.851 97.8556 147.702 97.7217C147.553 97.5846 147.434 97.418 147.344 97.2218C147.254 97.0255 147.209 96.7841 147.209 96.4975V96.3714C147.209 96.144 147.251 95.9306 147.334 95.7313C147.421 95.5319 147.539 95.3575 147.688 95.2079C147.837 95.0584 148.01 94.9416 148.209 94.8575C148.41 94.7703 148.624 94.7267 148.851 94.7267H149.278C149.505 94.7267 149.717 94.7703 149.916 94.8575C150.114 94.9416 150.288 95.0584 150.436 95.2079C150.585 95.3575 150.701 95.5319 150.785 95.7313C150.872 95.9306 150.915 96.144 150.915 96.3714V96.5443L150.315 96.6424V96.3714C150.315 96.2219 150.288 96.0832 150.232 95.9555C150.176 95.8247 150.1 95.711 150.004 95.6144C149.908 95.5179 149.795 95.4416 149.664 95.3855C149.537 95.3294 149.399 95.3014 149.25 95.3014H148.878C148.73 95.3014 148.59 95.3294 148.46 95.3855C148.333 95.4416 148.22 95.5179 148.12 95.6144C148.024 95.711 147.948 95.8247 147.893 95.9555C147.837 96.0832 147.809 96.2219 147.809 96.3714V96.4975C147.809 96.7125 147.854 96.8931 147.944 97.0395C148.034 97.1859 148.153 97.3121 148.302 97.418C148.451 97.5208 148.618 97.6111 148.804 97.689C148.993 97.7638 149.187 97.8416 149.385 97.9226C149.584 98.0005 149.776 98.0877 149.962 98.1843C150.151 98.2777 150.32 98.3945 150.469 98.5347C150.618 98.6718 150.737 98.84 150.827 99.0393C150.917 99.2387 150.962 99.4816 150.962 99.7682V99.9691Z" fill="#030303"/>
<path d="M157.377 101.52H157.065L155.768 96.4788L155.749 96.2172L155.721 96.4788L154.433 101.52H154.121L152.349 94.8201H152.949L154.256 99.9131L154.275 100.161L154.293 99.9131L155.577 94.8201H155.912L157.195 99.9131L157.214 100.161L157.237 99.9131L158.539 94.8201H159.139L157.377 101.52Z" fill="#030303"/>
<path d="M160.759 101.52V94.8201H161.359V101.52H160.759Z" fill="#030303"/>
<path d="M166.691 101.52L164.881 98.6609H164.058V101.52H163.458V94.8201H165.574C165.801 94.8201 166.013 94.8637 166.212 94.951C166.41 95.0351 166.584 95.1519 166.732 95.3014C166.881 95.4509 166.997 95.6269 167.081 95.8294C167.168 96.0287 167.211 96.2421 167.211 96.4695V97.0115C167.211 97.2389 167.168 97.4538 167.081 97.6563C166.997 97.8556 166.881 98.0301 166.732 98.1796C166.584 98.3291 166.41 98.4475 166.212 98.5347C166.013 98.6188 165.801 98.6609 165.574 98.6609L167.383 101.52H166.691ZM166.611 96.4695C166.611 96.32 166.584 96.1814 166.528 96.0537C166.472 95.9228 166.396 95.8091 166.3 95.7126C166.204 95.6129 166.091 95.535 165.96 95.4789C165.833 95.4229 165.695 95.3948 165.546 95.3948H164.058V98.0862H165.546C165.695 98.0862 165.833 98.0581 165.96 98.002C166.091 97.946 166.204 97.8697 166.3 97.7731C166.396 97.6734 166.472 97.5597 166.528 97.432C166.584 97.3012 166.611 97.161 166.611 97.0115V96.4695Z" fill="#030303"/>
<path d="M170.817 95.3948V101.52H170.217V95.3948H168.627V94.8201H172.408V95.3948H170.817Z" fill="#030303"/>
<path d="M177.688 99.9691C177.688 100.197 177.641 100.41 177.548 100.609C177.458 100.809 177.336 100.983 177.181 101.133C177.029 101.282 176.851 101.4 176.646 101.488C176.445 101.572 176.231 101.614 176.004 101.614H175.525C175.299 101.614 175.084 101.572 174.879 101.488C174.677 101.4 174.499 101.282 174.344 101.133C174.192 100.983 174.07 100.809 173.977 100.609C173.887 100.41 173.842 100.197 173.842 99.9691V99.7028L174.442 99.6047V99.9691C174.442 100.119 174.471 100.259 174.53 100.39C174.592 100.517 174.674 100.631 174.777 100.731C174.879 100.827 174.997 100.904 175.13 100.96C175.266 101.016 175.409 101.044 175.558 101.044H175.976C176.125 101.044 176.266 101.016 176.4 100.96C176.533 100.904 176.651 100.827 176.753 100.731C176.855 100.631 176.936 100.517 176.995 100.39C177.057 100.259 177.088 100.119 177.088 99.9691V99.7682C177.088 99.5377 177.043 99.3461 176.953 99.1935C176.863 99.0409 176.744 98.9116 176.595 98.8057C176.446 98.6967 176.277 98.6048 176.088 98.53C175.902 98.4553 175.71 98.3805 175.511 98.3058C175.313 98.231 175.119 98.1484 174.93 98.0581C174.744 97.9678 174.577 97.8556 174.428 97.7217C174.279 97.5846 174.16 97.418 174.07 97.2218C173.98 97.0255 173.935 96.7841 173.935 96.4975V96.3714C173.935 96.144 173.977 95.9306 174.06 95.7313C174.147 95.5319 174.265 95.3575 174.414 95.2079C174.563 95.0584 174.736 94.9416 174.935 94.8575C175.136 94.7703 175.35 94.7267 175.577 94.7267H176.004C176.231 94.7267 176.443 94.7703 176.641 94.8575C176.84 94.9416 177.014 95.0584 177.162 95.2079C177.311 95.3575 177.427 95.5319 177.511 95.7313C177.598 95.9306 177.641 96.144 177.641 96.3714V96.5443L177.041 96.6424V96.3714C177.041 96.2219 177.014 96.0832 176.958 95.9555C176.902 95.8247 176.826 95.711 176.73 95.6144C176.634 95.5179 176.521 95.4416 176.39 95.3855C176.263 95.3294 176.125 95.3014 175.976 95.3014H175.604C175.456 95.3014 175.316 95.3294 175.186 95.3855C175.059 95.4416 174.946 95.5179 174.846 95.6144C174.75 95.711 174.674 95.8247 174.618 95.9555C174.563 96.0832 174.535 96.2219 174.535 96.3714V96.4975C174.535 96.7125 174.58 96.8931 174.67 97.0395C174.76 97.1859 174.879 97.3121 175.028 97.418C175.177 97.5208 175.344 97.6111 175.53 97.689C175.719 97.7638 175.913 97.8416 176.111 97.9226C176.31 98.0005 176.502 98.0877 176.688 98.1843C176.877 98.2777 177.046 98.3945 177.195 98.5347C177.344 98.6718 177.463 98.84 177.553 99.0393C177.643 99.2387 177.688 99.4816 177.688 99.7682V99.9691Z" fill="#030303"/>
<path d="M183.303 99.9691C183.303 100.197 183.259 100.41 183.173 100.609C183.089 100.809 182.973 100.983 182.824 101.133C182.675 101.282 182.501 101.4 182.303 101.488C182.104 101.572 181.892 101.614 181.666 101.614H181.191C180.965 101.614 180.751 101.572 180.55 101.488C180.351 101.4 180.178 101.282 180.029 101.133C179.88 100.983 179.762 100.809 179.675 100.609C179.592 100.41 179.55 100.197 179.55 99.9691V96.3714C179.55 96.144 179.592 95.9306 179.675 95.7313C179.762 95.5319 179.88 95.3575 180.029 95.2079C180.178 95.0584 180.351 94.9416 180.55 94.8575C180.751 94.7703 180.965 94.7267 181.191 94.7267H181.666C181.892 94.7267 182.104 94.7703 182.303 94.8575C182.501 94.9416 182.675 95.0584 182.824 95.2079C182.973 95.3575 183.089 95.5319 183.173 95.7313C183.259 95.9306 183.303 96.144 183.303 96.3714V96.6424L182.703 96.7358V96.3714C182.703 96.2219 182.675 96.0832 182.619 95.9555C182.563 95.8247 182.487 95.711 182.391 95.6144C182.295 95.5179 182.182 95.4416 182.052 95.3855C181.925 95.3294 181.787 95.3014 181.638 95.3014H181.219C181.071 95.3014 180.931 95.3294 180.801 95.3855C180.674 95.4416 180.561 95.5179 180.461 95.6144C180.365 95.711 180.289 95.8247 180.233 95.9555C180.178 96.0832 180.15 96.2219 180.15 96.3714V99.9691C180.15 100.119 180.178 100.259 180.233 100.39C180.289 100.517 180.365 100.631 180.461 100.731C180.561 100.827 180.674 100.904 180.801 100.96C180.931 101.016 181.071 101.044 181.219 101.044H181.638C181.787 101.044 181.925 101.016 182.052 100.96C182.182 100.904 182.295 100.827 182.391 100.731C182.487 100.631 182.563 100.517 182.619 100.39C182.675 100.259 182.703 100.119 182.703 99.9691V99.6047L183.303 99.7028V99.9691Z" fill="#030303"/>
<path d="M188.462 101.52V98.4599H185.909V101.52H185.309V94.8201H185.909V97.8852H188.462V94.8201H189.062V101.52H188.462Z" fill="#030303"/>
<path d="M193.761 99.9598H191.649L191.212 101.52H190.589L192.542 94.8201H192.858L194.821 101.52H194.202L193.761 99.9598ZM191.812 99.3851H193.603L192.724 96.2966L192.705 96.049L192.686 96.2966L191.812 99.3851Z" fill="#030303"/>
<path d="M196.943 95.3948V97.8852H199.496V98.4599H196.943V101.52H196.343V94.8201H200.096V95.3948H196.943Z" fill="#030303"/>
<path d="M203.335 95.3948V101.52H202.735V95.3948H201.144V94.8201H204.925V95.3948H203.335Z" fill="#030303"/>
</svg>
