<svg width="127" height="194" viewBox="0 0 127 194" fill="none" xmlns="http://www.w3.org/2000/svg">
<path d="M0.847193 0.847193H125.62V130.766C125.62 165.221 97.689 193.153 63.2338 193.153C28.7786 193.153 0.847193 165.221 0.847193 130.766V0.847193Z" fill="#008143" stroke="#CECFD0" stroke-width="1.69439"/>
<path fill-rule="evenodd" clip-rule="evenodd" d="M111.309 21.8018H112.125V20.819H111.309V19.1592H110.277V20.819H109.829V21.8018H110.277V25.3617H111.309V21.8018ZM105.036 20.819V25.3617H106.068V23.1704C106.068 22.042 106.328 21.6271 107.043 21.6271C107.368 21.6271 107.613 21.7436 107.743 21.9547C107.851 22.1294 107.88 22.3478 107.88 22.821V25.3617H108.912V22.5735C108.912 21.9692 108.84 21.6053 108.638 21.3141C108.385 20.9428 107.88 20.7025 107.31 20.7025C106.79 20.7025 106.487 20.8336 106.068 21.234V20.819H105.036ZM100.726 22.4861C100.856 21.9692 101.261 21.6417 101.766 21.6417C102.3 21.6417 102.675 21.9474 102.82 22.4861H100.726ZM103.888 23.3379V23.0904C103.888 22.5007 103.758 21.9692 103.527 21.5907C103.174 21.0447 102.488 20.6953 101.744 20.6953C100.438 20.6953 99.5642 21.6562 99.5642 23.0976C99.5642 24.5463 100.452 25.4927 101.795 25.4927C102.365 25.4927 102.921 25.3035 103.318 24.9467C103.556 24.7575 103.693 24.5755 103.932 24.1678L103.051 23.6655C102.632 24.3571 102.358 24.5609 101.831 24.5609C101.167 24.5609 100.719 24.0804 100.661 23.3233H103.888V23.3379ZM92.2949 20.819V25.3617H93.3272V23.0248C93.3272 22.5589 93.3705 22.2532 93.4788 22.0493C93.5943 21.8018 93.8903 21.6344 94.179 21.6344C94.6482 21.6344 94.8792 22.0129 94.8792 22.8501V25.3617H95.9115V23.0176C95.9115 22.0493 96.157 21.6271 96.7417 21.6271C97.247 21.6271 97.4419 21.962 97.4419 22.8283V25.3617H98.4742V22.5516C98.4742 22.0712 98.402 21.6853 98.2648 21.4087C98.041 20.9792 97.5285 20.7025 96.9582 20.7025C96.4096 20.7025 95.9476 20.9282 95.63 21.365C95.3557 20.9428 94.9225 20.7025 94.4245 20.7025C93.9697 20.7025 93.7387 20.819 93.3416 21.234V20.819H92.2949ZM87.9998 22.4861C88.1297 21.9692 88.534 21.6417 89.0393 21.6417C89.5735 21.6417 89.9489 21.9474 90.086 22.4861H87.9998ZM91.1616 23.3379V23.0904C91.1616 22.5007 91.0317 21.9692 90.7934 21.5907C90.4397 21.0447 89.7539 20.6953 89.0104 20.6953C87.7038 20.6953 86.8304 21.6562 86.8304 23.0976C86.8304 24.5463 87.7183 25.4927 89.061 25.4927C89.6312 25.4927 90.1871 25.3035 90.5841 24.9467C90.8223 24.7575 90.9595 24.5755 91.1977 24.1678L90.317 23.6655C89.8983 24.3571 89.6168 24.5609 89.097 24.5609C88.4329 24.5609 87.9854 24.0804 87.9276 23.3233H91.1616V23.3379ZM83.4881 21.6271C84.2388 21.6271 84.7514 22.224 84.7514 23.1049C84.7514 23.9712 84.2388 24.5755 83.4881 24.5755C83.1777 24.5755 82.8529 24.4444 82.6146 24.2042C82.3548 23.9421 82.2393 23.6072 82.2393 23.1049C82.2393 22.2168 82.7374 21.6271 83.4881 21.6271ZM85.7476 20.819H84.7153V21.3359C84.3543 20.9209 83.8563 20.6953 83.3004 20.6953C82.0805 20.6953 81.1926 21.7072 81.1926 23.1195C81.1926 24.5027 82.0732 25.4927 83.286 25.4927C83.8563 25.4927 84.2822 25.3035 84.7153 24.8521V25.4782C84.7153 25.9222 84.6503 26.2207 84.5132 26.4318C84.3327 26.7158 83.9645 26.8978 83.5675 26.8978C83.1488 26.8978 82.7374 26.6939 82.5569 26.3663C82.4486 26.177 82.4197 26.0096 82.3836 25.6165H81.373C81.3802 26.9924 82.2104 27.8296 83.5675 27.8296C84.3327 27.8296 84.9968 27.5093 85.365 26.9633C85.6609 26.5265 85.7476 26.1261 85.7476 25.2379V20.819ZM77.7998 21.6271C78.5649 21.6271 79.0919 22.2386 79.0919 23.1049C79.0919 23.9712 78.5649 24.5755 77.7925 24.5755C77.0707 24.5755 76.5437 23.9567 76.5437 23.0904C76.5437 22.2459 77.0851 21.6271 77.7998 21.6271ZM79.0342 20.819V21.3505C78.5794 20.8845 78.1968 20.7025 77.6121 20.7025C76.3993 20.7025 75.4898 21.7145 75.4898 23.0904C75.4898 24.4954 76.3921 25.5073 77.6409 25.5073C78.1896 25.5073 78.5433 25.3471 79.0342 24.9031V25.369H80.0664V20.8263H79.0342V20.819ZM70.5016 20.819V25.3617H71.5339V23.1704C71.5339 22.042 71.7938 21.6271 72.5084 21.6271C72.8333 21.6271 73.0787 21.7436 73.2086 21.9547C73.3169 22.1294 73.353 22.3478 73.353 22.821V25.3617H74.3853V22.5735C74.3853 21.9692 74.3131 21.6053 74.111 21.3141C73.8583 20.9428 73.353 20.7025 72.7827 20.7025C72.263 20.7025 71.9598 20.8336 71.5411 21.234V20.819H70.5016ZM66.9284 21.6271C67.6935 21.6271 68.2205 22.2386 68.2205 23.1049C68.2205 23.9712 67.6936 24.5755 66.9211 24.5755C66.1993 24.5755 65.6723 23.9567 65.6723 23.0904C65.6651 22.2459 66.2065 21.6271 66.9284 21.6271ZM68.1555 20.819V21.3505C67.7008 20.8845 67.3182 20.7025 66.7335 20.7025C65.5207 20.7025 64.6112 21.7145 64.6112 23.0904C64.6112 24.4954 65.5135 25.5073 66.7623 25.5073C67.311 25.5073 67.6647 25.3471 68.1555 24.9031V25.369H69.1878V20.8263H68.1555V20.819ZM57.3347 20.819V25.3617H58.367V23.0248C58.367 22.5589 58.4103 22.2532 58.5186 22.0493C58.6341 21.8018 58.93 21.6344 59.2188 21.6344C59.688 21.6344 59.919 22.0129 59.919 22.8501V25.3617H60.9513V23.0176C60.9513 22.0493 61.1967 21.6271 61.7814 21.6271C62.2867 21.6271 62.4816 21.962 62.4816 22.8283V25.3617H63.5139V22.5516C63.5139 22.0712 63.4417 21.6853 63.3046 21.4087C63.0808 20.9792 62.5683 20.7025 61.998 20.7025C61.4494 20.7025 60.9874 20.9282 60.6697 21.365C60.3882 20.9428 59.9623 20.7025 59.4642 20.7025C59.0094 20.7025 58.7784 20.819 58.3814 21.234V20.819H57.3347ZM56.1003 21.5834C55.8115 20.9719 55.4073 20.6953 54.8298 20.6953C54.0357 20.6953 53.4294 21.2704 53.4294 22.0566C53.4294 22.6244 53.6459 22.9084 54.31 23.2432C55.2701 23.731 55.3351 23.7892 55.3351 24.0804C55.3351 24.3716 55.1258 24.5682 54.8081 24.5682C54.505 24.5682 54.3317 24.4299 54.0863 23.9712L53.1984 24.3862C53.5088 25.1215 54.0429 25.5 54.8009 25.5C55.6888 25.5 56.389 24.8303 56.389 23.9785C56.389 23.316 56.1003 23.003 54.9958 22.4788C54.5194 22.2532 54.4039 22.1512 54.4039 21.9547C54.4039 21.7654 54.5483 21.6271 54.7432 21.6271C54.9525 21.6271 55.1113 21.7581 55.2485 22.0493L56.1003 21.5834ZM51.964 21.8018H52.7797V20.819H51.964V19.1592H50.9317V20.819H50.4841V21.8018H50.9317V25.3617H51.964V21.8018ZM48.3907 18.7006C48.0298 18.7006 47.7266 18.999 47.7266 19.3558C47.7266 19.7343 48.0225 20.0328 48.3907 20.0328C48.7516 20.0328 49.0548 19.7343 49.0548 19.363C49.0548 18.9918 48.7516 18.7006 48.3907 18.7006ZM46.4633 18.7006C46.1024 18.7006 45.7992 18.999 45.7992 19.3558C45.7992 19.7343 46.0951 20.0328 46.4633 20.0328C46.8242 20.0328 47.1274 19.7343 47.1274 19.363C47.1274 18.9918 46.8315 18.7006 46.4633 18.7006ZM47.3079 21.6271C48.0731 21.6271 48.6 22.2386 48.6 23.1049C48.6 23.9712 48.0731 24.5755 47.3007 24.5755C46.5788 24.5755 46.0518 23.9567 46.0518 23.0904C46.0518 22.2459 46.586 21.6271 47.3079 21.6271ZM48.5351 20.819V21.3505C48.0803 20.8845 47.6977 20.7025 47.113 20.7025C45.9002 20.7025 44.9907 21.7145 44.9907 23.0904C44.9907 24.4954 45.893 25.5073 47.1419 25.5073C47.6905 25.5073 48.0442 25.3471 48.5351 24.9031V25.369H49.5673V20.8263H48.5351V20.819ZM43.6841 21.8018H44.507V20.819H43.6841V19.1592H42.6518V20.819H42.2043V21.8018H42.6518V25.3617H43.6841V21.8018ZM40.7749 18.2347C40.414 18.2347 40.0964 18.5477 40.0964 18.919C40.0964 19.2975 40.3996 19.6106 40.7822 19.6106C41.1431 19.6106 41.4607 19.2975 41.4607 18.919C41.4607 18.5404 41.1575 18.2347 40.7749 18.2347ZM41.2947 20.819H40.2624V25.3617H41.2947V20.819ZM38.927 17.4775H37.8947V25.3617H38.927V17.4775ZM34.3142 21.6271C35.0794 21.6271 35.6063 22.2386 35.6063 23.1049C35.6063 23.9712 35.0794 24.5755 34.307 24.5755C33.5851 24.5755 33.0581 23.9567 33.0581 23.0904C33.0581 22.2459 33.5923 21.6271 34.3142 21.6271ZM35.5414 20.819V21.3505C35.0866 20.8845 34.704 20.7025 34.1193 20.7025C32.9065 20.7025 31.997 21.7145 31.997 23.0904C31.997 24.4954 32.8993 25.5073 34.1482 25.5073C34.6968 25.5073 35.0505 25.3471 35.5414 24.9031V25.369H36.5737V20.8263H35.5414V20.819ZM28.07 20.819H27.0377V23.4544C27.0377 24.1678 27.1677 24.5609 27.5069 24.9322C27.8679 25.3035 28.366 25.5 28.9579 25.5C29.5571 25.5 30.0552 25.3107 30.4161 24.9322C30.7554 24.5609 30.8853 24.1678 30.8853 23.4544V20.819H29.853V23.4325C29.853 23.7892 29.8169 23.9858 29.7231 24.1605C29.5859 24.4226 29.3044 24.5755 28.9723 24.5755C28.6258 24.5755 28.3515 24.4226 28.2072 24.1605C28.1133 23.9858 28.0772 23.7892 28.0772 23.4325V20.819H28.07ZM23.0747 22.508H21.6814L23.3706 24.1532C23.0169 24.3571 22.5332 24.4735 22.0929 24.4735C21.436 24.4735 20.7719 24.1969 20.2666 23.7092C19.7468 23.2141 19.4942 22.588 19.4942 21.7945C19.4942 20.2075 20.6131 19.0427 22.1362 19.0427C23.6521 19.0427 24.8144 20.2293 24.8144 21.7727C24.8144 22.5225 24.6122 23.0394 24.1286 23.5563L23.0747 22.508ZM26.0488 25.5L24.8721 24.3279C25.5723 23.5854 25.8827 22.8356 25.8827 21.8528C25.8827 19.727 24.2296 18.0235 22.1434 18.0235C20.0717 18.0235 18.4186 19.7052 18.4186 21.7945C18.4186 22.7264 18.729 23.5636 19.2993 24.226C20.0284 25.0268 21.0823 25.5073 22.1362 25.5073C22.8364 25.5073 23.5439 25.3035 24.1358 24.9249L24.6989 25.5073H26.0488V25.5Z" fill="white"/>
<path d="M19.7631 30.1151H18.822V37.2405H19.7631V30.1151Z" fill="white"/>
<path fill-rule="evenodd" clip-rule="evenodd" d="M25.6269 31.1747C25.1363 30.3404 24.5268 29.9807 23.6496 29.9807C22.4007 29.9807 21.4418 30.8007 21.4418 31.8653C21.4418 32.6637 21.925 33.2535 22.9508 33.6707C23.9469 34.0735 23.9469 34.0735 24.1997 34.2317C24.5342 34.4547 24.7052 34.764 24.7052 35.174C24.7052 35.8573 24.1848 36.3608 23.5009 36.3608C23.0475 36.3608 22.6238 36.145 22.4379 35.807C22.3264 35.6272 22.2818 35.4545 22.2298 35.0301L21.1073 35.2747C21.1816 35.807 21.2857 36.0875 21.5236 36.4256C21.9622 37.0298 22.6461 37.375 23.4563 37.375C24.8167 37.375 25.8128 36.404 25.8128 35.1021C25.8128 34.1166 25.285 33.4765 24.103 33.0017C23.1292 32.6205 23.1292 32.6205 22.9211 32.4767C22.6758 32.3184 22.5643 32.117 22.5643 31.8796C22.5643 31.3689 23.0326 30.9949 23.6347 30.9949C24.1476 30.9949 24.4004 31.1532 24.7423 31.6998L25.6269 31.1747Z" fill="white"/>
<path fill-rule="evenodd" clip-rule="evenodd" d="M30.5257 30.9949C32.0329 30.9949 33.2052 32.1674 33.2052 33.6851C33.2052 35.1884 32.0111 36.368 30.4966 36.368C29.834 36.368 29.1495 36.0947 28.6471 35.6128C28.1011 35.1021 27.8462 34.4691 27.8462 33.6707C27.8316 32.1674 29.0258 30.9949 30.5257 30.9949ZM30.533 29.9807C28.4651 29.9807 26.754 31.6423 26.754 33.6491C26.754 34.6201 27.0526 35.4545 27.6569 36.1163C28.3705 36.8931 29.4408 37.375 30.482 37.375C32.5935 37.375 34.2828 35.735 34.2828 33.6851C34.2828 31.6567 32.6008 29.9807 30.533 29.9807Z" fill="white"/>
<path fill-rule="evenodd" clip-rule="evenodd" d="M40.4671 30.9599C41.2083 30.9599 41.826 31.5619 41.826 32.309C41.826 33.0488 41.2083 33.6581 40.4671 33.6581C39.7113 33.6581 39.1081 33.0488 39.1081 32.2872C39.1009 31.5692 39.7186 30.9599 40.4671 30.9599ZM39.6677 37.5095L42.1821 34.1005C42.6472 33.4622 42.887 32.8747 42.887 32.309C42.887 31.0542 41.7606 29.9807 40.4453 29.9807C39.1299 29.9807 38.0471 31.0614 38.0471 32.3742C38.0471 33.5928 39.0209 34.6227 40.1982 34.6227C40.329 34.6227 40.4017 34.6155 40.5906 34.5937L38.8756 36.9292L39.6677 37.5095Z" fill="white"/>
<path fill-rule="evenodd" clip-rule="evenodd" d="M46.5169 30.9647C46.9414 30.9647 47.2854 31.2107 47.5489 31.6737C47.8417 32.2091 48.01 32.9327 48.01 33.6851C48.01 34.4376 47.849 35.1249 47.5489 35.6965C47.3001 36.1595 46.9414 36.4055 46.5242 36.4055C46.0997 36.4055 45.7411 36.1595 45.4922 35.6965C45.1848 35.1177 45.0311 34.4376 45.0311 33.6562C45.0311 32.9399 45.1922 32.2308 45.4922 31.681C45.7411 31.2107 46.0924 30.9647 46.5169 30.9647ZM46.5242 29.9807C45.0531 29.9807 43.9625 31.5363 43.9625 33.6345C43.9625 34.7197 44.1821 35.5662 44.6359 36.2681C45.075 36.9482 45.807 37.375 46.5242 37.375C47.2342 37.375 47.9588 36.9409 48.4053 36.2681C48.8444 35.5952 49.0713 34.7125 49.0713 33.6923C49.0713 32.6577 48.8444 31.7823 48.4053 31.1022C47.9661 30.4148 47.2342 29.9807 46.5242 29.9807Z" fill="white"/>
<path fill-rule="evenodd" clip-rule="evenodd" d="M52.4996 30.9647C52.913 30.9647 53.255 31.2107 53.5045 31.6737C53.7895 32.2091 53.9535 32.9327 53.9535 33.6851C53.9535 34.4376 53.7967 35.1249 53.5045 35.6965C53.2622 36.1595 52.913 36.4055 52.5068 36.4055C52.0934 36.4055 51.7442 36.1595 51.5019 35.6965C51.2026 35.1177 51.0529 34.4376 51.0529 33.6562C51.0529 32.9399 51.2097 32.2308 51.5019 31.681C51.7442 31.2107 52.0863 30.9647 52.4996 30.9647ZM52.5068 29.9807C51.0743 29.9807 50.0125 31.5363 50.0125 33.6345C50.0125 34.7197 50.2262 35.5662 50.6681 36.2681C51.0957 36.9482 51.8084 37.375 52.5068 37.375C53.198 37.375 53.9036 36.9409 54.3383 36.2681C54.7659 35.5952 54.9868 34.7125 54.9868 33.6923C54.9868 32.6577 54.7659 31.7823 54.3383 31.1022C53.9036 30.4148 53.198 29.9807 52.5068 29.9807Z" fill="white"/>
<path fill-rule="evenodd" clip-rule="evenodd" d="M58.2353 31.1094V37.2405H59.2891V30.1151H57.5874L57.0035 31.1094H58.2353Z" fill="white"/>
<path fill-rule="evenodd" clip-rule="evenodd" d="M18.8808 47.4402H18.2842L19.8081 50.9536L20.7642 48.5124L21.7202 50.9536L23.2585 47.4402H22.6619L21.7346 49.6608L20.7714 47.1892L19.8009 49.6608L18.8808 47.4402Z" fill="white"/>
<path fill-rule="evenodd" clip-rule="evenodd" d="M24.0057 47.4402H23.3929L24.9581 50.9536L25.94 48.5124L26.9219 50.9536L28.5017 47.4402H27.889L26.9366 49.6608L25.9473 47.1892L24.9507 49.6608L24.0057 47.4402Z" fill="white"/>
<path fill-rule="evenodd" clip-rule="evenodd" d="M29.0974 47.4402H28.5016L30.0233 50.9536L30.9852 48.5124L31.9399 50.9536L33.4759 47.4402H32.8802L31.9542 49.6608L30.9924 47.1892L30.0161 49.6608L29.0974 47.4402Z" fill="white"/>
<path fill-rule="evenodd" clip-rule="evenodd" d="M34.4812 50.0125C34.2985 50.0125 34.1484 50.1926 34.1484 50.4197C34.1484 50.639 34.2985 50.8191 34.4812 50.8191C34.6704 50.8191 34.8205 50.639 34.8205 50.4197C34.827 50.1926 34.6704 50.0125 34.4812 50.0125Z" fill="white"/>
<path fill-rule="evenodd" clip-rule="evenodd" d="M37.1768 47.9775C37.7966 47.9775 38.2219 48.4377 38.2219 49.1244C38.2219 49.8548 37.8183 50.3296 37.184 50.3296C36.5929 50.3296 36.1677 49.8329 36.1677 49.1244C36.1677 48.4815 36.6073 47.9775 37.1768 47.9775ZM38.1859 45.1725V48.0067C37.8759 47.6561 37.5444 47.5027 37.1047 47.5027C36.2397 47.5027 35.6271 48.182 35.6271 49.1463C35.6271 50.1105 36.247 50.8191 37.1047 50.8191C37.5516 50.8191 37.9192 50.6437 38.1787 50.3077V50.7314H38.7192V45.1798H38.1859V45.1725Z" fill="white"/>
<path fill-rule="evenodd" clip-rule="evenodd" d="M40.1177 48.7936C40.1889 48.304 40.5738 47.9478 41.0228 47.9478C41.4789 47.9478 41.8282 48.2817 41.9279 48.7936H40.1177ZM42.4838 49.2462V49.1424C42.4838 48.1333 41.8994 47.4581 41.0228 47.4581C40.1462 47.4581 39.5261 48.1481 39.5261 49.1275C39.5261 50.1366 40.139 50.8192 41.0299 50.8192C41.6642 50.8192 42.1132 50.5372 42.4553 49.914L42.0063 49.6469C41.707 50.144 41.4647 50.3221 41.0584 50.3221C40.5025 50.3221 40.1105 49.8917 40.0749 49.2314H42.4838V49.2462Z" fill="white"/>
<path fill-rule="evenodd" clip-rule="evenodd" d="M43.9168 45.3071H43.4248V50.6848H43.9168V49.4274L44.0364 49.2924L45.1932 50.6848H45.8448L44.3822 48.9301L45.6054 47.623H44.9539L43.9168 48.7525V45.3071Z" fill="white"/>
<path fill-rule="evenodd" clip-rule="evenodd" d="M46.5168 47.5311V50.6847H47.0206V49.0276C47.0206 48.2903 47.1908 47.9837 47.5992 47.9837C47.7081 47.9837 47.7694 48.0056 47.8987 48.0859L48.1302 47.5968C47.9532 47.4873 47.8511 47.4581 47.6877 47.4581C47.4154 47.4581 47.2861 47.5384 47.0206 47.8815V47.5384H46.5168V47.5311Z" fill="white"/>
<path fill-rule="evenodd" clip-rule="evenodd" d="M50.0763 47.9383C50.689 47.9383 51.1286 48.4184 51.1286 49.1054C51.1286 49.8293 50.7106 50.3243 50.0835 50.3243C49.4925 50.3243 49.0672 49.8146 49.0672 49.098C49.0672 48.448 49.5069 47.9383 50.0763 47.9383ZM51.0926 47.532V47.9752C50.7827 47.6133 50.4583 47.4581 50.0114 47.4581C49.1465 47.4581 48.5338 48.1451 48.5338 49.1276C48.5338 50.1026 49.1537 50.8192 50.0114 50.8192C50.4583 50.8192 50.7899 50.6641 51.0926 50.2947V50.7305H51.626V47.5394H51.0926V47.532Z" fill="white"/>
<path d="M53.508 48.9369H52.1636V49.2058H53.508V48.9369Z" fill="white"/>
<path fill-rule="evenodd" clip-rule="evenodd" d="M55.7456 48.0282C55.5633 47.6506 55.279 47.4581 54.9144 47.4581C54.3675 47.4581 53.9737 47.8283 53.9737 48.3465C53.9737 48.7759 54.156 48.961 54.8852 49.2867C55.279 49.457 55.3883 49.5754 55.3883 49.8272C55.3883 50.1159 55.1696 50.3306 54.8852 50.3306C54.5862 50.3306 54.4331 50.2047 54.2508 49.8123L53.7769 50.0122C53.9737 50.5527 54.3529 50.8192 54.8779 50.8192C55.4758 50.8192 55.9279 50.375 55.9279 49.7901C55.9279 49.3015 55.7456 49.0942 54.9946 48.7685C54.5862 48.5982 54.4842 48.4946 54.4842 48.3021C54.4842 48.1096 54.6592 47.9541 54.8706 47.9541C55.0529 47.9541 55.1915 48.0578 55.3008 48.2725L55.7456 48.0282Z" fill="white"/>
<path fill-rule="evenodd" clip-rule="evenodd" d="M56.9363 45.9791C56.7524 45.9791 56.6002 46.1534 56.6002 46.364C56.6002 46.5746 56.7524 46.7488 56.9363 46.7488C57.1202 46.7488 57.2724 46.5746 57.2724 46.364C57.2724 46.1534 57.1266 45.9791 56.9363 45.9791ZM57.171 47.5476H56.7017V50.6846H57.171V47.5476Z" fill="white"/>
<path fill-rule="evenodd" clip-rule="evenodd" d="M58.529 48.7936C58.6003 48.304 58.9923 47.9478 59.4341 47.9478C59.8831 47.9478 60.2395 48.2817 60.3393 48.7936H58.529ZM60.9023 49.2462V49.1424C60.9023 48.1333 60.3179 47.4581 59.4413 47.4581C58.5646 47.4581 57.9446 48.1481 57.9446 49.1275C57.9446 50.1366 58.5575 50.8192 59.4484 50.8192C60.0827 50.8192 60.5317 50.5372 60.8738 49.914L60.4248 49.6469C60.1255 50.144 59.8831 50.3221 59.4769 50.3221C58.921 50.3221 58.529 49.8917 58.4934 49.2314H60.9023V49.2462Z" fill="white"/>
<path fill-rule="evenodd" clip-rule="evenodd" d="M63.1169 47.9322C63.7239 47.9322 64.1452 48.4136 64.1452 49.1065C64.1452 49.7848 63.7096 50.2808 63.1169 50.2808C62.5241 50.2808 62.1028 49.7994 62.1028 49.1065C62.1028 48.4282 62.5241 47.9322 63.1169 47.9322ZM64.6522 47.5311H64.1238V47.9687C63.8238 47.6186 63.4882 47.4581 63.0597 47.4581C62.1956 47.4581 61.5743 48.151 61.5743 49.1211C61.5743 50.0693 62.1956 50.7695 63.0383 50.7695C63.4525 50.7695 63.831 50.6018 64.1309 50.2589V50.7112C64.1309 51.5281 63.7881 51.9511 63.1383 51.9511C62.5384 51.9511 62.1956 51.6156 62.1456 50.9956H61.6386C61.6672 51.8927 62.2385 52.4325 63.1311 52.4325C63.6453 52.4325 64.0952 52.2283 64.3666 51.8636C64.588 51.5499 64.6665 51.2436 64.6665 50.6236V47.5311H64.6522Z" fill="white"/>
<path fill-rule="evenodd" clip-rule="evenodd" d="M66.1723 48.7936C66.2404 48.304 66.6145 47.9478 67.0363 47.9478C67.4717 47.9478 67.8051 48.2817 67.9003 48.7936H66.1723ZM68.431 49.2462V49.1424C68.431 48.1333 67.8731 47.4581 67.0363 47.4581C66.1995 47.4581 65.6077 48.1481 65.6077 49.1275C65.6077 50.1366 66.1927 50.8192 67.0431 50.8192C67.6418 50.8192 68.0772 50.5372 68.4037 49.914L67.9751 49.6469C67.6894 50.144 67.4581 50.3221 67.0703 50.3221C66.5397 50.3221 66.1655 49.8917 66.1315 49.2314H68.431V49.2462Z" fill="white"/>
<path d="M69.9098 45.3071H69.3721V50.6848H69.9098V45.3071Z" fill="white"/>
<path fill-rule="evenodd" clip-rule="evenodd" d="M71.2502 50.0125C71.031 50.0125 70.8508 50.1926 70.8508 50.4197C70.8508 50.639 71.031 50.8191 71.2502 50.8191C71.4774 50.8191 71.6575 50.639 71.6575 50.4197C71.6575 50.1926 71.4774 50.0125 71.2502 50.0125Z" fill="white"/>
<path fill-rule="evenodd" clip-rule="evenodd" d="M73.9468 47.9775C74.5936 47.9775 75.0298 48.4377 75.0298 49.1244C75.0298 49.8548 74.6086 50.3296 73.9543 50.3296C73.3376 50.3296 72.8938 49.8329 72.8938 49.1244C72.8863 48.4815 73.3526 47.9775 73.9468 47.9775ZM74.9998 45.1725V48.0067C74.6763 47.6561 74.3304 47.5027 73.8716 47.5027C72.9765 47.5027 72.3297 48.182 72.3297 49.1463C72.3297 50.1105 72.9841 50.8191 73.8716 50.8191C74.3379 50.8191 74.7215 50.6437 74.9922 50.3077V50.7314H75.5563V45.1798H74.9998V45.1725Z" fill="white"/>
<path fill-rule="evenodd" clip-rule="evenodd" d="M76.9548 48.7936C77.0261 48.304 77.4181 47.9478 77.86 47.9478C78.309 47.9478 78.6653 48.2817 78.7651 48.7936H76.9548ZM79.321 49.2462V49.1424C79.321 48.1333 78.7366 47.4581 77.86 47.4581C76.9833 47.4581 76.3633 48.1481 76.3633 49.1275C76.3633 50.1366 76.9762 50.8192 77.8671 50.8192C78.4943 50.8192 78.9504 50.5372 79.2925 49.914L78.8435 49.6469C78.5442 50.144 78.3018 50.3221 77.8956 50.3221C77.3397 50.3221 76.9477 49.8917 76.9121 49.2314H79.321V49.2462Z" fill="white"/>
<circle cx="63.2904" cy="130.71" r="62.4432" fill="#008143" stroke="#CECFD0" stroke-width="1.69439"/>
<circle cx="63.3469" cy="130.653" r="52.035" fill="white"/>
<path fill-rule="evenodd" clip-rule="evenodd" d="M25.6329 134.714H26.289C30.8703 134.714 33.1667 137.044 33.1667 141.535C33.1667 145.619 31.2436 148.356 26.289 148.356H25.6329V134.714ZM21.6058 151.874H27.3297C33.2232 151.874 37.3408 147.383 37.3408 141.569C37.3408 135.676 33.3363 131.207 27.3636 131.207H21.6058V151.874Z" fill="#008143"/>
<path d="M50.5755 134.714V131.207H39.8857V151.874H50.5755V148.356H43.9128V142.768H50.3267V139.262H43.9128V134.714H50.5755Z" fill="#008143"/>
<path fill-rule="evenodd" clip-rule="evenodd" d="M92.9501 144.227L95.4614 136.75H95.518L97.8595 144.227H92.9501ZM85.8575 151.874L93.5949 131.965C93.923 131.128 94.7035 130.664 95.484 130.664C96.2759 130.664 97.0564 131.128 97.3731 131.965L104.862 151.874H100.563L98.9681 147.519H91.785L90.0882 151.874H85.8575Z" fill="#008143"/>
<path d="M58.1547 139.918H58.0981V131.207H54.071V151.874H58.0981V142.576H58.1547L64.7608 151.874H69.9417L61.6727 140.743L69.5119 131.207H64.5459L58.1547 139.918Z" fill="#008143"/>
<path d="M80.1903 143.413L85.8576 151.874H80.9821L75.9144 143.549V151.874H71.8873V131.207H78.8216C82.2378 131.207 84.9979 133.979 84.9979 137.384C84.9866 140.325 82.9391 142.78 80.1903 143.413ZM78.0637 134.488H75.9144V140.709H78.0637C79.6586 140.709 80.9595 139.318 80.9595 137.599C80.9482 135.879 79.6586 134.488 78.0637 134.488Z" fill="#008143"/>
<path d="M56.0846 89.9301L73.5502 100.043C74.8964 100.812 76.2312 102.498 76.2312 104.703C76.2312 106.943 74.885 108.595 73.5502 109.364L49.6141 123.221V117L70.858 104.692L59.4442 98.086V107.418L54.071 110.529V91.0839C54.071 90.6088 54.3199 90.1563 54.7385 89.9187C55.1231 89.7151 55.6321 89.6699 56.0846 89.9301Z" fill="#008143"/>
<path fill-rule="evenodd" clip-rule="evenodd" d="M36.6507 166.625L42.7365 165.087L37.929 161.546L37.1371 162.621L39.6823 164.487L33.5739 166.014L38.8113 169.871L39.6031 168.797L36.6507 166.625Z" fill="#008143"/>
<path fill-rule="evenodd" clip-rule="evenodd" d="M43.6641 168.118C44.1392 167.564 44.8293 167.417 45.4514 167.722C46.1075 168.05 46.3903 168.65 46.2319 169.397L43.6641 168.118ZM47.0238 171.093L47.1708 170.788C47.5328 170.064 47.6912 169.34 47.6346 168.729C47.5328 167.847 46.8993 166.998 45.9944 166.546C44.3881 165.743 42.7365 166.388 41.8655 168.152C40.9945 169.906 41.5035 171.614 43.1551 172.428C43.8564 172.779 44.6596 172.881 45.3609 172.688C45.7682 172.598 46.051 172.462 46.5826 172.111L45.8021 170.969C44.8745 171.546 44.4107 171.625 43.7659 171.297C42.9515 170.89 42.6913 170.041 43.0759 169.102L47.0238 171.093Z" fill="#008143"/>
<path fill-rule="evenodd" clip-rule="evenodd" d="M49.8969 168.446L47.9852 174.329L49.3427 174.77L50.3268 171.715C50.7001 170.55 51.2204 170.143 51.9783 170.381C52.2611 170.471 52.4082 170.596 52.6344 170.924L53.6638 169.883C53.2905 169.453 53.0643 169.283 52.6458 169.159C52.1141 168.989 51.7408 169.046 51.0621 169.419L51.2318 168.887L49.8969 168.446Z" fill="#008143"/>
<path fill-rule="evenodd" clip-rule="evenodd" d="M55.6547 171.41L56.7519 171.648L57.0347 170.335L55.9375 170.098L56.4126 167.881L55.0099 167.587L54.5461 169.804L53.9579 169.679L53.6751 170.991L54.2633 171.116L53.2452 175.856L54.6479 176.15L55.6547 171.41Z" fill="#008143"/>
<path fill-rule="evenodd" clip-rule="evenodd" d="M59.0823 167.066C58.5846 167.009 58.1095 167.371 58.0416 167.869C57.9737 168.378 58.3357 168.853 58.8561 168.921C59.3538 168.989 59.8289 168.616 59.8968 168.107C59.9646 167.598 59.614 167.134 59.0823 167.066ZM59.3538 170.629L57.9398 170.448L57.1479 176.591L58.5619 176.772L59.3538 170.629Z" fill="#008143"/>
<path fill-rule="evenodd" clip-rule="evenodd" d="M62.4758 172.145L64.0369 172.213L64.0935 170.878L62.5324 170.822L62.6116 168.797C62.6568 167.779 62.8152 167.496 63.3129 167.519C63.5731 167.53 63.6975 167.575 64.2179 167.858L64.2744 166.41C63.8672 166.218 63.6523 166.161 63.3242 166.15C62.6795 166.127 62.0234 166.365 61.684 166.761C61.3786 167.089 61.2428 167.587 61.2089 168.39L61.1071 170.765L60.5981 170.743L60.5415 172.078L61.0505 172.1L60.8582 176.953L62.2835 177.01L62.4758 172.145Z" fill="#008143"/>
<path fill-rule="evenodd" clip-rule="evenodd" d="M65.3491 167.258C64.8513 167.281 64.4441 167.734 64.4667 168.231C64.4893 168.74 64.9192 169.148 65.4509 169.125C65.9486 169.102 66.3558 168.661 66.3332 168.141C66.2993 167.632 65.8694 167.236 65.3491 167.258ZM66.2314 170.72L64.8061 170.788L65.1002 176.975L66.5255 176.908L66.2314 170.72Z" fill="#008143"/>
<path fill-rule="evenodd" clip-rule="evenodd" d="M70.7563 175.064L73.8558 169.6L67.9623 170.629L68.1998 171.953L71.3106 171.399L68.1885 176.874L74.6024 175.754L74.3762 174.43L70.7563 175.064Z" fill="#008143"/>
<path fill-rule="evenodd" clip-rule="evenodd" d="M74.2967 165.652C73.8216 165.799 73.5388 166.331 73.6859 166.817C73.8442 167.304 74.3533 167.598 74.8623 167.439C75.3374 167.292 75.6202 166.761 75.4732 166.263C75.3261 165.765 74.8057 165.494 74.2967 165.652ZM76.0161 168.785L74.6587 169.204L76.4799 175.12L77.8487 174.702L76.0161 168.785Z" fill="#008143"/>
<path fill-rule="evenodd" clip-rule="evenodd" d="M79.7945 169.838C79.6701 169.125 79.9868 168.492 80.6203 168.209C81.2877 167.903 81.9325 168.062 82.4076 168.65L79.7945 169.838ZM84.2175 169.102L84.0704 168.797C83.7424 168.062 83.2786 167.485 82.7696 167.145C82.0117 166.659 80.971 166.625 80.0434 167.044C78.4145 167.79 77.8715 169.476 78.686 171.263C79.5004 173.039 81.152 173.729 82.8261 172.971C83.5388 172.654 84.127 172.089 84.4211 171.421C84.6021 171.048 84.6813 170.743 84.7492 170.109L83.3691 169.996C83.2334 171.071 82.9958 171.489 82.3397 171.783C81.5139 172.157 80.6769 171.829 80.1904 170.935L84.2175 169.102Z" fill="#008143"/>
<path fill-rule="evenodd" clip-rule="evenodd" d="M83.9913 165.211L87.351 170.403L88.55 169.634L86.808 166.942C86.1519 165.912 86.1519 165.245 86.8193 164.815C87.0682 164.657 87.2492 164.623 87.6564 164.646L87.498 163.186C86.9324 163.198 86.661 163.277 86.2877 163.514C85.8126 163.82 85.6316 164.148 85.4958 164.906L85.1904 164.431L83.9913 165.211Z" fill="#008143"/>
<path fill-rule="evenodd" clip-rule="evenodd" d="M89.8961 162.609L90.7671 161.908L89.93 160.867L89.0477 161.569L87.6337 159.804L86.5251 160.698L87.9391 162.462L87.4753 162.847L88.3124 163.888L88.7875 163.503L91.8191 167.292L92.939 166.399L89.8961 162.609Z" fill="#008143"/>
</svg>
