<svg width="141" height="216" viewBox="0 0 141 216" fill="none" xmlns="http://www.w3.org/2000/svg">
<path d="M0.979792 0.979792H139.83V145.595C139.83 183.938 108.747 215.02 70.4047 215.02C32.0624 215.02 0.979792 183.938 0.979792 145.595V0.979792Z" fill="#008143" stroke="#CECFD0" stroke-width="1.95958"/>
<circle cx="70.4676" cy="145.532" r="69.4878" fill="#008143" stroke="#CECFD0" stroke-width="1.95958"/>
<circle cx="70.5306" cy="145.469" r="57.9359" fill="white"/>
<path fill-rule="evenodd" clip-rule="evenodd" d="M28.5396 149.991H29.2701C34.371 149.991 36.9277 152.585 36.9277 157.585C36.9277 162.132 34.7866 165.18 29.2701 165.18H28.5396V149.991V149.991ZM24.0559 169.097H30.4289C36.9907 169.097 41.5752 164.097 41.5752 157.623C41.5752 151.061 37.1167 146.086 30.4666 146.086H24.0559V169.097V169.097Z" fill="#008143"/>
<path d="M56.311 149.991V146.086H44.409V169.097H56.311V165.18H48.8927V158.958H56.034V155.054H48.8927V149.991H56.311Z" fill="#008143"/>
<path fill-rule="evenodd" clip-rule="evenodd" d="M103.491 160.583L106.287 152.258H106.35L108.957 160.583H103.491ZM95.5941 169.097L104.209 146.93C104.574 145.998 105.443 145.482 106.312 145.482C107.194 145.482 108.063 145.998 108.416 146.93L116.753 169.097H111.967L110.191 164.248H102.194L100.305 169.097H95.5941Z" fill="#008143"/>
<path d="M64.7496 155.784H64.6866V146.086H60.2029V169.097H64.6866V158.744H64.7496L72.1049 169.097H77.8733L68.6666 156.704L77.3947 146.086H71.8656L64.7496 155.784Z" fill="#008143"/>
<path d="M89.2842 159.676L95.5941 169.097H90.1658L84.5233 159.827V169.097H80.0396V146.086H87.7602C91.5638 146.086 94.6369 149.172 94.6369 152.963C94.6243 156.238 92.3447 158.971 89.2842 159.676ZM86.9164 149.739H84.5233V156.666H86.9164C88.6922 156.666 90.1406 155.117 90.1406 153.202C90.128 151.288 88.6922 149.739 86.9164 149.739Z" fill="#008143"/>
<path d="M62.4447 100.128L81.891 111.388C83.3897 112.244 84.8759 114.121 84.8759 116.577C84.8759 119.071 83.3772 120.91 81.891 121.766L55.2405 137.195V130.268L78.8934 116.564L66.1853 109.209V119.6L60.2028 123.063V101.413C60.2028 100.884 60.4799 100.38 60.9459 100.116C61.3741 99.889 61.9409 99.8386 62.4447 100.128Z" fill="#008143"/>
<path fill-rule="evenodd" clip-rule="evenodd" d="M24.3456 18.2877C23.7788 17.3053 23.0861 16.8771 22.0785 16.8771C20.6553 16.8771 19.5722 17.8469 19.5722 19.1063C19.5722 20.051 20.1137 20.7437 21.285 21.2223C22.4312 21.7009 22.4312 21.7009 22.7208 21.8898C23.0987 22.1543 23.3002 22.5195 23.3002 22.9981C23.3002 23.8042 22.7083 24.3961 21.9148 24.3961C21.3984 24.3961 20.9072 24.1442 20.6931 23.7412C20.5671 23.5271 20.5168 23.3256 20.4538 22.8218L19.1691 23.1115C19.2573 23.7412 19.3706 24.0687 19.6603 24.4717C20.1641 25.1896 20.9324 25.5926 21.8518 25.5926C23.4136 25.5926 24.5471 24.4465 24.5471 22.91C24.5471 21.7512 23.9425 20.9956 22.5823 20.4288C21.4614 19.9754 21.4614 19.9754 21.2221 19.8117C20.945 19.6227 20.819 19.3834 20.819 19.1063C20.819 18.5018 21.348 18.061 22.0533 18.061C22.6327 18.061 22.9224 18.2499 23.3254 18.8922L24.3456 18.2877Z" fill="white"/>
<path fill-rule="evenodd" clip-rule="evenodd" d="M26.4363 17.1415C26.0206 17.1415 25.6302 17.5067 25.6302 17.9349C25.6302 18.3758 26.008 18.741 26.4488 18.741C26.8645 18.741 27.2549 18.3758 27.2549 17.9349C27.2423 17.4941 26.8771 17.1415 26.4363 17.1415ZM27.0408 20.1264H25.8443V25.4288H27.0408V20.1264Z" fill="white"/>
<path fill-rule="evenodd" clip-rule="evenodd" d="M32.7463 20.353C32.2551 20.1011 31.8143 19.9878 31.2601 19.9878C29.6354 19.9878 28.3633 21.2221 28.3633 22.7964C28.3633 24.3834 29.5976 25.5925 31.2475 25.5925C31.8017 25.5925 32.1921 25.4917 32.7463 25.202V23.5773C32.1544 24.2826 31.8017 24.4967 31.1972 24.4967C30.2777 24.4967 29.5976 23.7788 29.5976 22.7838C29.5976 21.814 30.3029 21.0835 31.2224 21.0835C31.8143 21.0835 32.1796 21.2976 32.7463 21.9778V20.353Z" fill="white"/>
<path fill-rule="evenodd" clip-rule="evenodd" d="M33.9302 16.2473V25.4289H35.1267V22.8847C35.1267 22.2424 35.2022 21.7512 35.3408 21.5245C35.5171 21.2474 35.8698 21.0837 36.2854 21.0837C36.9529 21.0837 37.2426 21.4489 37.2426 22.3054V25.4289H38.4391V22.192C38.4391 21.4615 38.3509 21.0711 38.0864 20.7059C37.7716 20.265 37.1922 19.988 36.5625 19.988C35.9831 19.988 35.5927 20.1517 35.1141 20.5673V16.2473H33.9302Z" fill="white"/>
<path fill-rule="evenodd" clip-rule="evenodd" d="M41.147 22.0785C41.2982 21.474 41.7768 21.0961 42.3687 21.0961C42.9985 21.0961 43.4393 21.4488 43.603 22.0785H41.147ZM44.8625 23.0735V22.7838C44.8625 22.0911 44.7114 21.474 44.4343 21.0206C44.0186 20.3908 43.2126 19.9878 42.3435 19.9878C40.807 19.9878 39.7868 21.0961 39.7868 22.7964C39.7868 24.4715 40.8322 25.5925 42.4065 25.5925C43.074 25.5925 43.729 25.3658 44.195 24.9501C44.4721 24.7234 44.6358 24.5093 44.9129 24.0433L43.8801 23.4639C43.3889 24.2574 43.0614 24.4967 42.4443 24.4967C41.6634 24.4967 41.1344 23.9425 41.0715 23.0735H44.8625V23.0735Z" fill="white"/>
<path fill-rule="evenodd" clip-rule="evenodd" d="M46.1849 20.1264V25.4287H47.3814V22.6831C47.3814 21.6377 47.7214 21.1465 48.4016 21.1465C48.6534 21.1465 48.8046 21.2221 49.0817 21.4236L49.6484 20.3027C49.2328 20.0508 49.0061 19.9752 48.6283 19.9752C48.1497 19.9752 47.86 20.1264 47.3814 20.5924V20.1264H46.1849Z" fill="white"/>
<path fill-rule="evenodd" clip-rule="evenodd" d="M51.5503 20.1266H50.3538V23.1871C50.3538 24.0184 50.5049 24.4844 50.8953 24.9252C51.3236 25.366 51.8903 25.5927 52.5956 25.5927C53.3009 25.5927 53.8803 25.366 54.3085 24.9252C54.6989 24.4844 54.8501 24.031 54.8501 23.1871V20.1266H53.6536V23.1619C53.6536 23.5775 53.6158 23.8043 53.5024 24.0058C53.3387 24.308 53.0113 24.4844 52.6208 24.4844C52.2178 24.4844 51.8903 24.308 51.7266 24.0058C51.6132 23.8043 51.5754 23.5775 51.5754 23.1619V20.1266H51.5503Z" fill="white"/>
<path fill-rule="evenodd" clip-rule="evenodd" d="M56.437 20.1264V25.4287H57.6335V22.872C57.6335 21.5748 57.9358 21.0836 58.767 21.0836C59.1449 21.0836 59.4346 21.2221 59.5857 21.4614C59.7116 21.6629 59.7494 21.9148 59.7494 22.469V25.4162H60.9459V22.1793C60.9459 21.474 60.8578 21.0584 60.6185 20.6931C60.3162 20.2523 59.7368 19.9752 59.0693 19.9752C58.4648 19.9752 58.1121 20.1264 57.6083 20.605V20.1264H56.437Z" fill="white"/>
<path fill-rule="evenodd" clip-rule="evenodd" d="M65.0141 21.0835C65.8957 21.0835 66.5002 21.7762 66.5002 22.7964C66.5002 23.804 65.8957 24.4967 65.0141 24.4967C64.6488 24.4967 64.271 24.3456 63.9939 24.0685C63.6916 23.7662 63.5531 23.3758 63.5531 22.7964C63.5531 21.7637 64.1324 21.0835 65.0141 21.0835ZM67.6464 20.1263H66.4499V20.7309C66.0216 20.2523 65.4423 19.9878 64.7874 19.9878C63.3516 19.9878 62.3188 21.1843 62.3188 22.8216C62.3188 24.4211 63.3516 25.5925 64.7748 25.5925C65.4423 25.5925 65.9461 25.3658 66.4499 24.8368V25.5799C66.4499 26.0962 66.3743 26.4237 66.2106 26.6756C65.9965 27.0031 65.5682 27.2172 65.1022 27.2172C64.611 27.2172 64.1324 26.9779 63.9183 26.6126C63.7924 26.3985 63.7546 26.197 63.7168 25.7562H62.5329C62.5455 27.3431 63.5153 28.3255 65.1022 28.3255C65.9965 28.3255 66.7773 27.9477 67.2055 27.3053C67.5582 26.8016 67.6464 26.3481 67.6464 25.3154V20.1263Z" fill="white"/>
<path fill-rule="evenodd" clip-rule="evenodd" d="M72.2812 21.0332C71.9412 20.3153 71.4752 19.9878 70.7699 19.9878C69.8253 19.9878 69.1326 20.6679 69.1326 21.5873C69.1326 22.2423 69.3844 22.5697 70.1527 22.9602C71.3114 23.5269 71.387 23.5899 71.387 23.93C71.387 24.27 71.1351 24.4967 70.7573 24.4967C70.392 24.4967 70.1905 24.333 69.9008 23.804L68.8555 24.2826C69.2333 25.1516 69.8505 25.5925 70.7447 25.5925C71.8026 25.5925 72.6213 24.799 72.6213 23.804C72.6213 23.0357 72.2812 22.6705 70.984 22.0659C70.4172 21.8014 70.2661 21.6881 70.2661 21.4614C70.2661 21.2473 70.4424 21.0835 70.6691 21.0835C70.921 21.0835 71.1099 21.2347 71.2737 21.5747L72.2812 21.0332Z" fill="white"/>
<path d="M75.3668 22.2045H72.9612V23.275H75.3668V22.2045Z" fill="white"/>
<path fill-rule="evenodd" clip-rule="evenodd" d="M21.8015 34.9882C22.6957 34.9882 23.3254 35.6935 23.3254 36.7137C23.3254 37.7087 22.7083 38.4014 21.7889 38.4014C20.9324 38.4014 20.3153 37.6835 20.3153 36.6633C20.3279 35.7061 20.9576 34.9882 21.8015 34.9882ZM23.2499 30.1519V34.6482C22.7209 34.1066 22.2549 33.8925 21.5748 33.8925C20.1515 33.8925 19.081 35.089 19.081 36.6759C19.081 38.3007 20.139 39.4972 21.5999 39.4972C22.2549 39.4972 22.7335 39.2831 23.2499 38.7793V39.3334H24.4464V30.1519H23.2499Z" fill="white"/>
<path fill-rule="evenodd" clip-rule="evenodd" d="M26.6379 31.046C26.2222 31.046 25.8318 31.4113 25.8318 31.8395C25.8318 32.2803 26.197 32.6456 26.6504 32.6456C27.0661 32.6456 27.4565 32.2803 27.4565 31.8395C27.4565 31.3987 27.0787 31.046 26.6379 31.046ZM27.2424 34.031H26.0459V39.3334H27.2424V34.031Z" fill="white"/>
<path fill-rule="evenodd" clip-rule="evenodd" d="M29.8999 35.9834C30.051 35.3789 30.5296 35.001 31.1216 35.001C31.7513 35.001 32.1922 35.3537 32.3559 35.9834H29.8999ZM33.6154 36.9784V36.6887C33.6154 35.996 33.4642 35.3789 33.1871 34.938C32.7715 34.2957 31.9654 33.9053 31.0964 33.9053C29.5598 33.9053 28.5397 35.0136 28.5397 36.7139C28.5397 38.389 29.585 39.5099 31.1594 39.5099C31.8269 39.5099 32.4818 39.2832 32.9478 38.8676C33.2249 38.6409 33.3887 38.4268 33.6657 37.9608L32.633 37.3814C32.1418 38.1749 31.8143 38.4142 31.1972 38.4142C30.4163 38.4142 29.8873 37.86 29.8243 36.991H33.6154V36.9784Z" fill="white"/>
<path fill-rule="evenodd" clip-rule="evenodd" d="M34.9755 34.0309V39.3333H36.172V36.7766C36.172 35.4793 36.4743 34.9881 37.3056 34.9881C37.6834 34.9881 37.9731 35.1266 38.1242 35.3659C38.2502 35.5675 38.2879 35.8194 38.2879 36.3735V39.3207H39.4844V36.0838C39.4844 35.3785 39.3963 34.9629 39.1696 34.5977C38.8673 34.1568 38.2879 33.8798 37.6204 33.8798C37.0159 33.8798 36.6632 34.0309 36.1594 34.5095V34.0183H34.9755V34.0309Z" fill="white"/>
<path fill-rule="evenodd" clip-rule="evenodd" d="M44.1698 34.9379C43.8297 34.22 43.3637 33.8926 42.6584 33.8926C41.7138 33.8926 41.0211 34.5727 41.0211 35.4921C41.0211 36.147 41.273 36.4745 42.0413 36.8649C43.1874 37.4317 43.2756 37.4947 43.2756 37.8347C43.2756 38.1748 43.0237 38.4015 42.6458 38.4015C42.2806 38.4015 42.0791 38.2378 41.7894 37.7088L40.744 38.1874C41.1219 39.0564 41.739 39.4972 42.6332 39.4972C43.6912 39.4972 44.5099 38.7038 44.5099 37.7088C44.5099 36.9405 44.1698 36.5753 42.8725 35.9707C42.3058 35.7062 42.1546 35.5929 42.1546 35.3662C42.1546 35.1521 42.331 34.9883 42.5577 34.9883C42.8096 34.9883 42.9985 35.1395 43.1622 35.4795L44.1698 34.9379Z" fill="white"/>
<path fill-rule="evenodd" clip-rule="evenodd" d="M46.8146 35.1646H47.797V34.031H46.8146V32.0789H45.6181V34.031H45.0891V35.1646H45.6181V39.3334H46.8146V35.1646Z" fill="white"/>
<path d="M49.8373 30.1519H48.6408V39.3334H49.8373V30.1519Z" fill="white"/>
<path fill-rule="evenodd" clip-rule="evenodd" d="M52.5326 35.9834C52.6837 35.3789 53.1623 35.001 53.7543 35.001C54.384 35.001 54.8248 35.3537 54.9886 35.9834H52.5326ZM56.248 36.9784V36.6887C56.248 35.996 56.0969 35.3789 55.8198 34.938C55.4042 34.2957 54.5981 33.9053 53.7291 33.9053C52.1925 33.9053 51.1724 35.0136 51.1724 36.7139C51.1724 38.389 52.2177 39.5099 53.7921 39.5099C54.4596 39.5099 55.1145 39.2832 55.5805 38.8676C55.8576 38.6409 56.0213 38.4268 56.2984 37.9608L55.2657 37.3814C54.7745 38.1749 54.447 38.4142 53.8299 38.4142C53.049 38.4142 52.52 37.86 52.457 36.991H56.248V36.9784Z" fill="white"/>
<path fill-rule="evenodd" clip-rule="evenodd" d="M58.175 31.046C57.7594 31.046 57.369 31.4113 57.369 31.8395C57.369 32.2803 57.7468 32.6456 58.1876 32.6456C58.6032 32.6456 58.9937 32.2803 58.9937 31.8395C58.9811 31.3987 58.6158 31.046 58.175 31.046ZM58.7796 34.031H57.5831V39.3334H58.7796V34.031Z" fill="white"/>
<path fill-rule="evenodd" clip-rule="evenodd" d="M63.4145 34.9379C63.0744 34.22 62.6084 33.8926 61.9031 33.8926C60.9585 33.8926 60.2658 34.5727 60.2658 35.4921C60.2658 36.147 60.5177 36.4745 61.286 36.8649C62.4321 37.4317 62.5203 37.4947 62.5203 37.8347C62.5203 38.1748 62.2684 38.4015 61.8905 38.4015C61.5253 38.4015 61.3238 38.2378 61.0341 37.7088L59.9887 38.1874C60.3666 39.0564 60.9837 39.4972 61.8779 39.4972C62.9359 39.4972 63.7545 38.7038 63.7545 37.7088C63.7545 36.9405 63.4145 36.5753 62.1172 35.9707C61.5505 35.7062 61.4119 35.5929 61.4119 35.3662C61.4119 35.1521 61.5882 34.9883 61.8149 34.9883C62.0668 34.9883 62.2558 35.1395 62.4321 35.4795L63.4145 34.9379Z" fill="white"/>
<path fill-rule="evenodd" clip-rule="evenodd" d="M66.0973 35.1646H67.0797V34.031H66.0973V32.0789H64.9008V34.031H64.3592V35.1646H64.9008V39.3334H66.0973V35.1646Z" fill="white"/>
<path fill-rule="evenodd" clip-rule="evenodd" d="M69.12 34.0309H67.9235V37.0914C67.9235 37.9227 68.0746 38.3887 68.465 38.8295C68.8933 39.2703 69.46 39.497 70.1653 39.497C70.8706 39.497 71.45 39.2703 71.8782 38.8295C72.2687 38.3887 72.4198 37.9353 72.4198 37.0914V34.0309H71.2233V37.0662C71.2233 37.4818 71.1855 37.7086 71.0721 37.9101C70.9084 38.2123 70.581 38.3887 70.1779 38.3887C69.7749 38.3887 69.4474 38.2123 69.2837 37.9101C69.1703 37.7086 69.1326 37.4818 69.1326 37.0662V34.0309H69.12Z" fill="white"/>
<path fill-rule="evenodd" clip-rule="evenodd" d="M73.9941 34.0309V39.3333H75.1906V36.7766C75.1906 35.4793 75.4929 34.9881 76.3241 34.9881C76.702 34.9881 76.9916 35.1266 77.1428 35.3659C77.2687 35.5675 77.3065 35.8194 77.3065 36.3735V39.3207H78.503V36.0838C78.503 35.3785 78.4148 34.9629 78.1755 34.5977C77.8733 34.1568 77.2939 33.8798 76.6264 33.8798C76.0218 33.8798 75.6692 34.0309 75.178 34.5095V34.0183H73.9941V34.0309Z" fill="white"/>
<path fill-rule="evenodd" clip-rule="evenodd" d="M82.5459 34.9883C83.4276 34.9883 84.0321 35.681 84.0321 36.7012C84.0321 37.7088 83.4276 38.4015 82.5459 38.4015C82.1807 38.4015 81.8028 38.2504 81.5257 37.9733C81.2235 37.671 81.0849 37.2806 81.0849 36.7012C81.0723 35.6684 81.6643 34.9883 82.5459 34.9883ZM85.1782 34.0311H83.9817V34.6357C83.5535 34.1571 82.9741 33.8926 82.3192 33.8926C80.8834 33.8926 79.8506 35.0891 79.8506 36.7264C79.8506 38.3259 80.8834 39.4972 82.3066 39.4972C82.9741 39.4972 83.4779 39.2705 83.9817 38.7416V39.4846C83.9817 40.001 83.9062 40.3285 83.7424 40.5804C83.5283 40.9079 83.1001 41.122 82.6341 41.122C82.1429 41.122 81.6643 40.8827 81.4502 40.5174C81.3242 40.3033 81.2865 40.1018 81.2487 39.661H80.0648C80.0774 41.2479 81.0472 42.2303 82.6341 42.2303C83.5283 42.2303 84.3092 41.8525 84.7374 41.2101C85.0901 40.7063 85.1782 40.2529 85.1782 39.2202V34.0311Z" fill="white"/>
<path fill-rule="evenodd" clip-rule="evenodd" d="M87.8609 35.9834C88.012 35.3789 88.4906 35.001 89.0826 35.001C89.7123 35.001 90.1532 35.3537 90.3169 35.9834H87.8609ZM91.5764 36.9784V36.6887C91.5764 35.996 91.4252 35.3789 91.1481 34.938C90.7325 34.2957 89.9265 33.9053 89.0574 33.9053C87.5209 33.9053 86.5007 35.0136 86.5007 36.7139C86.5007 38.389 87.546 39.5099 89.1204 39.5099C89.7879 39.5099 90.4428 39.2832 90.9088 38.8676C91.1859 38.6409 91.3497 38.4268 91.6267 37.9608L90.594 37.3814C90.1028 38.1749 89.7753 38.4142 89.1582 38.4142C88.3773 38.4142 87.8483 37.86 87.7853 36.991H91.5764V36.9784Z" fill="white"/>
<path fill-rule="evenodd" clip-rule="evenodd" d="M92.9113 34.0309V39.3333H94.1078V36.7766C94.1078 35.4793 94.4101 34.9881 95.2413 34.9881C95.6192 34.9881 95.9089 35.1266 96.06 35.3659C96.186 35.5675 96.2237 35.8194 96.2237 36.3735V39.3207H97.4202V36.0838C97.4202 35.3785 97.3321 34.9629 97.1054 34.5977C96.8031 34.1568 96.2237 33.8798 95.5562 33.8798C94.9517 33.8798 94.599 34.0309 94.1078 34.5095V34.0183H92.9113V34.0309Z" fill="white"/>
<path fill-rule="evenodd" clip-rule="evenodd" d="M74.6491 45.87C75.1403 45.87 75.5559 46.1597 75.8582 46.7013C76.1982 47.331 76.3872 48.1874 76.3872 49.0691C76.3872 49.9507 76.1982 50.7694 75.8582 51.4369C75.5685 51.9785 75.1529 52.2681 74.6617 52.2681C74.1705 52.2681 73.7423 51.9785 73.4526 51.4369C73.0999 50.7568 72.9236 49.9507 72.9236 49.0313C72.9236 48.1874 73.1125 47.3436 73.4526 46.7013C73.7423 46.1723 74.1453 45.87 74.6491 45.87ZM74.6617 44.7365C72.9488 44.7365 71.6893 46.5501 71.6893 49.0187C71.6893 50.3034 71.9412 51.2983 72.4576 52.117C72.974 52.9105 73.8178 53.4017 74.6617 53.4017C75.4803 53.4017 76.3368 52.8979 76.8532 52.117C77.357 51.3235 77.6215 50.2782 77.6215 49.0817C77.6215 47.8726 77.357 46.8272 76.8532 46.0337C76.3368 45.2403 75.4803 44.7365 74.6617 44.7365ZM67.5205 45.87C68.0117 45.87 68.4273 46.1597 68.7296 46.7013C69.0696 47.331 69.2585 48.1874 69.2585 49.0691C69.2585 49.9507 69.0696 50.7694 68.7296 51.4369C68.4399 51.9785 68.0243 52.2681 67.5331 52.2681C67.0419 52.2681 66.6136 51.9785 66.324 51.4369C65.9713 50.7568 65.795 49.9507 65.795 49.0313C65.795 48.1874 65.9839 47.3436 66.324 46.7013C66.6262 46.1723 67.0293 45.87 67.5205 45.87ZM67.5331 44.7365C65.8202 44.7365 64.5607 46.5501 64.5607 49.0187C64.5607 50.3034 64.8126 51.2983 65.329 52.117C65.8454 52.9105 66.6892 53.4017 67.5331 53.4017C68.3643 53.4017 69.2082 52.8979 69.7246 52.117C70.2283 51.3235 70.4928 50.2782 70.4928 49.0817C70.4928 47.8726 70.2283 46.8272 69.7246 46.0337C69.2082 45.2403 68.3643 44.7365 67.5331 44.7365ZM59.7243 52.0666L61.0342 50.5301C62.4826 48.8172 62.8352 48.1622 62.8352 47.2554C62.8352 45.8196 61.6639 44.7365 60.1273 44.7365C59.1827 44.7365 58.4145 45.1269 57.9359 45.8448C57.6462 46.273 57.5328 46.6509 57.4447 47.3688H58.7041C58.7671 46.9028 58.8301 46.6887 58.9938 46.4494C59.2457 46.0841 59.6865 45.87 60.1651 45.87C60.9712 45.87 61.6009 46.4745 61.6009 47.2554C61.6009 47.7844 61.2987 48.3008 60.1273 49.7366L57.2054 53.2757H62.8478V52.0792H59.7243V52.0666ZM54.5101 46.0463L50.316 52.9231L51.3236 53.5654L56.626 44.875H50.3664V46.0463H54.5101V46.0463ZM47.3941 46.0463L43.2 52.9231L44.2076 53.5654L49.51 44.875H43.2504V46.0463H47.3941V46.0463ZM30.9831 53.2757H32.2552V47.394L38.3636 53.8173V44.8876H37.0915V50.719L30.9831 44.2957V53.2757V53.2757ZM28.9553 44.875H27.6833V53.2631H28.9553V44.875ZM20.8569 52.0666V46.0715H21.4237C22.4438 46.0715 23.124 46.2478 23.6781 46.6635C24.396 47.1924 24.8243 48.0867 24.8243 49.0817C24.8243 50.0641 24.4086 50.9331 23.6781 51.4621C23.0862 51.9029 22.4438 52.0666 21.4237 52.0666H20.8569V52.0666ZM19.5848 53.2757H21.3229C22.8217 53.2757 23.5648 53.0868 24.4086 52.4696C25.517 51.6762 26.0963 50.5049 26.0963 49.0817C26.0963 47.671 25.517 46.4745 24.4716 45.7063C23.6529 45.1143 22.7965 44.8876 21.3481 44.8876H19.5848V53.2757V53.2757Z" fill="white"/>
<path fill-rule="evenodd" clip-rule="evenodd" d="M19.7233 65.4297H19.0179L20.819 69.3466L21.9525 66.6262L23.0735 69.3466L24.8871 65.4297H24.1818L23.086 67.9108L21.9525 65.1526L20.8064 67.9108L19.7233 65.4297Z" fill="white"/>
<path fill-rule="evenodd" clip-rule="evenodd" d="M25.7309 65.4297H25.0382L26.8267 69.3466L27.9602 66.6262L29.0811 69.3466L30.8948 65.4297H30.2021L29.1063 67.9108L27.9728 65.1526L26.8267 67.9108L25.7309 65.4297Z" fill="white"/>
<path fill-rule="evenodd" clip-rule="evenodd" d="M31.7513 65.4297H31.046L32.847 69.3466L33.9679 66.6262L35.1015 69.3466L36.9151 65.4297H36.2098L35.1141 67.9108L33.9805 65.1526L32.8344 67.9108L31.7513 65.4297Z" fill="white"/>
<path fill-rule="evenodd" clip-rule="evenodd" d="M37.9857 68.3014C37.7464 68.3014 37.5574 68.5029 37.5574 68.7422C37.5574 68.9815 37.7464 69.1704 37.9857 69.1704C38.225 69.1704 38.4265 68.9815 38.4265 68.7422C38.4265 68.5029 38.2375 68.3014 37.9857 68.3014Z" fill="white"/>
<path fill-rule="evenodd" clip-rule="evenodd" d="M41.1596 65.921C41.89 65.921 42.3938 66.45 42.3938 67.2434C42.3938 68.0873 41.9152 68.6415 41.1721 68.6415C40.4668 68.6415 39.9631 68.0621 39.9631 67.2434C39.9631 66.5004 40.492 65.921 41.1596 65.921ZM42.3561 62.659V65.9462C41.9908 65.5432 41.6004 65.3542 41.084 65.3542C40.0638 65.3542 39.3333 66.1477 39.3333 67.256C39.3333 68.377 40.0764 69.1956 41.084 69.1956C41.613 69.1956 42.0538 68.9815 42.3561 68.5911V69.0823H42.9984V62.6464H42.3561V62.659Z" fill="white"/>
<path fill-rule="evenodd" clip-rule="evenodd" d="M44.6735 66.8782C44.7617 66.324 45.2151 65.921 45.7567 65.921C46.2983 65.921 46.7139 66.2989 46.8272 66.8782H44.6735ZM47.4948 67.4072V67.2812C47.4948 66.1225 46.8021 65.3542 45.7567 65.3542C44.7113 65.3542 43.9808 66.1477 43.9808 67.2812C43.9808 68.4274 44.7113 69.2082 45.7693 69.2082C46.525 69.2082 47.054 68.8934 47.457 68.1755L46.928 67.8732C46.5754 68.4274 46.2857 68.6289 45.8071 68.6289C45.1396 68.6289 44.6735 68.1503 44.6358 67.4072H47.4948V67.4072Z" fill="white"/>
<path fill-rule="evenodd" clip-rule="evenodd" d="M49.0691 62.6589H48.4394V69.0948H49.0691V67.5835L49.2203 67.4197L50.6939 69.0948H51.5251L49.6611 66.9915L51.2228 65.4298H50.3916L49.0691 66.7774V62.6589Z" fill="white"/>
<path fill-rule="evenodd" clip-rule="evenodd" d="M52.1674 65.43V69.0825H52.7972V67.1555C52.7972 66.299 52.9987 65.9338 53.5151 65.9338C53.641 65.9338 53.7292 65.959 53.8803 66.0597L54.17 65.493C53.9433 65.367 53.8173 65.3292 53.6158 65.3292C53.2758 65.3292 53.112 65.43 52.7846 65.8078V65.4174H52.1674V65.43Z" fill="white"/>
<path fill-rule="evenodd" clip-rule="evenodd" d="M56.3488 65.9083C57.0793 65.9083 57.5957 66.4625 57.5957 67.2434C57.5957 68.0746 57.1045 68.6414 56.3614 68.6414C55.6687 68.6414 55.1523 68.0494 55.1523 67.2434C55.1523 66.4877 55.6687 65.9083 56.3488 65.9083ZM57.5453 65.4297V65.9461C57.1801 65.5305 56.7896 65.3416 56.2733 65.3416C55.2531 65.3416 54.5226 66.135 54.5226 67.256C54.5226 68.3769 55.2657 69.1955 56.2733 69.1955C56.8022 69.1955 57.1927 69.0192 57.5453 68.591V69.0948H58.1751V65.4297H57.5453V65.4297Z" fill="white"/>
<path d="M60.3793 66.9412H58.7797V67.5079H60.3793V66.9412Z" fill="white"/>
<path fill-rule="evenodd" clip-rule="evenodd" d="M62.9989 66.0092C62.7848 65.5684 62.4447 65.3542 62.0165 65.3542C61.3616 65.3542 60.9082 65.7825 60.9082 66.3744C60.9082 66.8656 61.1223 67.0797 61.9787 67.445C62.4573 67.6339 62.5833 67.7724 62.5833 68.0621C62.5833 68.3896 62.3188 68.6415 61.9787 68.6415C61.6135 68.6415 61.4372 68.5029 61.2231 68.0495L60.6689 68.2762C60.9082 68.8934 61.3364 69.1956 61.9661 69.1956C62.684 69.1956 63.213 68.6919 63.213 68.0117C63.213 67.4576 62.9989 67.2183 62.1047 66.853C61.6135 66.6515 61.5001 66.5382 61.5001 66.324C61.5001 66.0973 61.7142 65.921 61.9661 65.921C62.1803 65.921 62.344 66.0344 62.4825 66.2863L62.9989 66.0092Z" fill="white"/>
<path fill-rule="evenodd" clip-rule="evenodd" d="M64.3843 63.5909C64.1324 63.5909 63.9308 63.7925 63.9308 64.0444C63.9308 64.2962 64.1324 64.4978 64.3843 64.4978C64.6362 64.4978 64.8251 64.2962 64.8251 64.0444C64.8251 63.7925 64.6236 63.5909 64.3843 63.5909ZM64.6865 65.4298H64.0568V69.0948H64.6865V65.4298Z" fill="white"/>
<path fill-rule="evenodd" clip-rule="evenodd" d="M66.3742 66.8782C66.4624 66.324 66.9158 65.921 67.4448 65.921C67.9864 65.921 68.402 66.2989 68.5153 66.8782H66.3742ZM69.1955 67.4072V67.2812C69.1955 66.1225 68.5027 65.3542 67.4574 65.3542C66.412 65.3542 65.6815 66.1477 65.6815 67.2812C65.6815 68.4274 66.412 69.2082 67.47 69.2082C68.2257 69.2082 68.7546 68.8934 69.1577 68.1755L68.6287 67.8732C68.276 68.4274 67.9864 68.6289 67.5078 68.6289C66.8402 68.6289 66.3742 68.1503 66.3364 67.4072H69.1955V67.4072Z" fill="white"/>
<path fill-rule="evenodd" clip-rule="evenodd" d="M71.7271 65.9083C72.445 65.9083 72.9487 66.4625 72.9487 67.2685C72.9487 68.062 72.4324 68.6288 71.7271 68.6288C71.0218 68.6288 70.5306 68.0746 70.5306 67.2685C70.5306 66.4751 71.0343 65.9083 71.7271 65.9083ZM73.5533 65.4297H72.9236V65.9461C72.5709 65.5431 72.1679 65.3416 71.6641 65.3416C70.6439 65.3416 69.9008 66.1476 69.9008 67.2685C69.9008 68.3769 70.6313 69.183 71.6389 69.183C72.1301 69.183 72.5709 68.9814 72.9236 68.5784V69.1074C72.9236 70.0646 72.5205 70.5684 71.7522 70.5684C71.0469 70.5684 70.6439 70.1779 70.5809 69.4474H69.9764C70.0142 70.4928 70.6943 71.1225 71.7397 71.1225C72.3568 71.1225 72.8732 70.8832 73.2006 70.455C73.4651 70.0898 73.5533 69.7245 73.5533 69.0066V65.4297V65.4297Z" fill="white"/>
<path fill-rule="evenodd" clip-rule="evenodd" d="M75.241 66.8782C75.3291 66.324 75.7825 65.921 76.3241 65.921C76.8657 65.921 77.2813 66.2989 77.3947 66.8782H75.241ZM78.0496 67.4072V67.2812C78.0496 66.1225 77.3569 65.3542 76.3115 65.3542C75.2662 65.3542 74.5231 66.1477 74.5231 67.2812C74.5231 68.4274 75.2536 69.2082 76.3115 69.2082C77.0672 69.2082 77.5962 68.8934 77.9992 68.1755L77.4702 67.8732C77.1176 68.4274 76.8279 68.6289 76.3367 68.6289C75.6692 68.6289 75.2032 68.1503 75.1654 67.4072H78.0496V67.4072Z" fill="white"/>
<path d="M79.6366 62.6589H79.0068V69.0823H79.6366V62.6589Z" fill="white"/>
<path fill-rule="evenodd" clip-rule="evenodd" d="M81.2109 68.3014C80.9716 68.3014 80.7827 68.5029 80.7827 68.7422C80.7827 68.9815 80.9716 69.1704 81.2109 69.1704C81.4502 69.1704 81.6517 68.9815 81.6517 68.7422C81.6517 68.5029 81.4502 68.3014 81.2109 68.3014Z" fill="white"/>
<path fill-rule="evenodd" clip-rule="evenodd" d="M84.4225 65.921C85.153 65.921 85.6568 66.45 85.6568 67.2434C85.6568 68.0873 85.1782 68.6415 84.4351 68.6415C83.7424 68.6415 83.226 68.0621 83.226 67.2434C83.226 66.5004 83.755 65.921 84.4225 65.921ZM85.619 62.659V65.9462C85.2537 65.5432 84.8633 65.3542 84.3469 65.3542C83.3268 65.3542 82.5963 66.1477 82.5963 67.256C82.5963 68.377 83.3268 69.1956 84.3469 69.1956C84.8759 69.1956 85.3167 68.9815 85.619 68.5911V69.0823H86.2613V62.6464H85.619V62.659Z" fill="white"/>
<path fill-rule="evenodd" clip-rule="evenodd" d="M87.9112 66.8782C87.9994 66.324 88.4528 65.921 88.9818 65.921C89.5234 65.921 89.939 66.2989 90.0523 66.8782H87.9112ZM90.7199 67.4072V67.2812C90.7199 66.1225 90.0272 65.3542 88.9818 65.3542C87.9364 65.3542 87.2059 66.1477 87.2059 67.2812C87.2059 68.4274 87.9364 69.2082 88.9944 69.2082C89.7501 69.2082 90.279 68.8934 90.6821 68.1755L90.1531 67.8732C89.8004 68.4274 89.5108 68.6289 89.0322 68.6289C88.3646 68.6289 87.8986 68.1503 87.8609 67.4072H90.7199V67.4072Z" fill="white"/>
<path fill-rule="evenodd" clip-rule="evenodd" d="M40.8069 185.521L47.5829 183.808L42.2301 179.865L41.3485 181.062L44.1823 183.14L37.3811 184.84L43.2125 189.135L44.0941 187.939L40.8069 185.521Z" fill="#008143"/>
<path fill-rule="evenodd" clip-rule="evenodd" d="M48.6157 187.183C49.1447 186.566 49.9129 186.402 50.6057 186.742C51.3362 187.107 51.651 187.775 51.4747 188.606L48.6157 187.183ZM52.3563 190.495L52.5201 190.155C52.9231 189.349 53.0994 188.543 53.0364 187.863C52.9231 186.881 52.2178 185.936 51.2102 185.432C49.4217 184.538 47.5829 185.256 46.6131 187.221C45.6433 189.173 46.2101 191.075 48.0489 191.982C48.8298 192.372 49.724 192.485 50.5049 192.271C50.9583 192.171 51.2732 192.019 51.8651 191.629L50.9961 190.357C49.9633 190.999 49.4469 191.087 48.729 190.722C47.8222 190.269 47.5325 189.324 47.9608 188.279L52.3563 190.495Z" fill="#008143"/>
<path fill-rule="evenodd" clip-rule="evenodd" d="M55.5553 187.549L53.4268 194.098L54.9381 194.589L56.0339 191.188C56.4495 189.891 57.0289 189.438 57.8727 189.702C58.1876 189.803 58.3513 189.942 58.6032 190.307L59.7493 189.148C59.3337 188.67 59.0818 188.481 58.6158 188.342C58.0238 188.153 57.6082 188.216 56.8525 188.632L57.0415 188.04L55.5553 187.549Z" fill="#008143"/>
<path fill-rule="evenodd" clip-rule="evenodd" d="M61.9661 190.848L63.1878 191.113L63.5027 189.652L62.281 189.387L62.81 186.919L61.2482 186.591L60.7318 189.06L60.0769 188.921L59.762 190.382L60.417 190.521L59.2834 195.798L60.8452 196.125L61.9661 190.848Z" fill="#008143"/>
<path fill-rule="evenodd" clip-rule="evenodd" d="M65.7824 186.012C65.2282 185.949 64.6992 186.352 64.6237 186.906C64.5481 187.473 64.9511 188.002 65.5305 188.077C66.0846 188.153 66.6136 187.737 66.6892 187.17C66.7648 186.604 66.3743 186.087 65.7824 186.012ZM66.0846 189.979L64.5103 189.778L63.6287 196.617L65.203 196.818L66.0846 189.979Z" fill="#008143"/>
<path fill-rule="evenodd" clip-rule="evenodd" d="M69.5608 191.667L71.2989 191.743L71.3619 190.256L69.6238 190.193L69.7119 187.939C69.7623 186.805 69.9386 186.491 70.4928 186.516C70.7825 186.528 70.921 186.579 71.5004 186.894L71.5634 185.281C71.11 185.067 70.8707 185.004 70.5054 184.992C69.7875 184.967 69.057 185.231 68.6792 185.672C68.3391 186.037 68.188 186.591 68.1502 187.486L68.0368 190.13L67.4701 190.105L67.4071 191.591L67.9739 191.617L67.7598 197.02L69.3467 197.083L69.5608 191.667Z" fill="#008143"/>
<path fill-rule="evenodd" clip-rule="evenodd" d="M72.7598 186.226C72.2056 186.251 71.7522 186.755 71.7774 187.309C71.8026 187.876 72.2812 188.33 72.8731 188.304C73.4273 188.279 73.8807 187.788 73.8555 187.209C73.8177 186.642 73.3391 186.201 72.7598 186.226ZM73.7421 190.08L72.1552 190.156L72.4827 197.045L74.0696 196.97L73.7421 190.08Z" fill="#008143"/>
<path fill-rule="evenodd" clip-rule="evenodd" d="M78.78 194.916L82.231 188.833L75.6691 189.979L75.9336 191.453L79.3972 190.836L75.921 196.932L83.0622 195.685L82.8104 194.211L78.78 194.916Z" fill="#008143"/>
<path fill-rule="evenodd" clip-rule="evenodd" d="M82.7223 184.438C82.1933 184.601 81.8784 185.193 82.0422 185.735C82.2185 186.276 82.7852 186.604 83.352 186.428C83.881 186.264 84.1959 185.672 84.0321 185.118C83.8684 184.564 83.289 184.261 82.7223 184.438ZM84.6367 187.926L83.1253 188.392L85.1531 194.979L86.677 194.513L84.6367 187.926Z" fill="#008143"/>
<path fill-rule="evenodd" clip-rule="evenodd" d="M88.8433 189.098C88.7047 188.304 89.0574 187.599 89.7627 187.284C90.5058 186.944 91.2237 187.12 91.7527 187.775L88.8433 189.098ZM93.7678 188.279L93.6041 187.939C93.2389 187.12 92.7225 186.478 92.1557 186.1C91.3119 185.559 90.1531 185.521 89.1204 185.987C87.3067 186.818 86.7022 188.695 87.609 190.685C88.5158 192.662 90.3547 193.43 92.2187 192.587C93.0121 192.234 93.6671 191.604 93.9945 190.861C94.1961 190.445 94.2842 190.105 94.3598 189.4L92.8232 189.274C92.6721 190.471 92.4076 190.937 91.6771 191.264C90.7577 191.68 89.8257 191.314 89.2841 190.319L93.7678 188.279Z" fill="#008143"/>
<path fill-rule="evenodd" clip-rule="evenodd" d="M93.516 183.947L97.2566 189.728L98.5917 188.871L96.6521 185.874C95.9216 184.727 95.9216 183.984 96.6647 183.506C96.9418 183.329 97.1433 183.292 97.5967 183.317L97.4204 181.692C96.7906 181.705 96.4884 181.793 96.0727 182.057C95.5437 182.397 95.3422 182.763 95.1911 183.607L94.851 183.078L93.516 183.947Z" fill="#008143"/>
<path fill-rule="evenodd" clip-rule="evenodd" d="M100.09 181.049L101.06 180.269L100.128 179.11L99.1458 179.891L97.5714 177.926L96.3372 178.921L97.9115 180.886L97.3951 181.314L98.3271 182.473L98.8561 182.044L102.231 186.264L103.478 185.269L100.09 181.049Z" fill="#008143"/>
</svg>
