<svg width="24" height="24" viewBox="0 0 24 24" fill="none" xmlns="http://www.w3.org/2000/svg">
<path d="M19.7369 19.2268C19.5179 19.2266 19.3079 19.1396 19.1531 18.9847C18.9982 18.8299 18.9111 18.6199 18.9108 18.4009C18.911 18.1819 18.9981 17.9719 19.153 17.817C19.3078 17.6621 19.5178 17.5749 19.7369 17.5747H21.6926C21.8023 17.5745 21.9074 17.5309 21.9849 17.4533C22.0625 17.3758 22.1061 17.2706 22.1062 17.1609V6.95015C22.1061 6.84045 22.0625 6.73527 21.985 6.65767C21.9074 6.58008 21.8023 6.53641 21.6926 6.53624H2.30796C2.19837 6.53664 2.09338 6.58033 2.01588 6.65781C1.93837 6.73529 1.89464 6.84027 1.89422 6.94986V17.1609C1.89438 17.2706 1.93803 17.3757 2.01558 17.4533C2.09314 17.5309 2.19828 17.5745 2.30796 17.5747H4.26172C4.48076 17.5749 4.69075 17.6621 4.84562 17.817C5.0005 17.9719 5.0876 18.1819 5.08782 18.4009C5.08756 18.6199 5.00044 18.8299 4.84557 18.9847C4.6907 19.1396 4.48072 19.2266 4.26172 19.2268H2.30796C1.16891 19.2268 0.242188 18.3001 0.242188 17.1609V6.95021C0.242188 5.811 1.16891 4.88428 2.30796 4.88428H21.6926C22.8316 4.88428 23.7584 5.811 23.7584 6.95021V17.1609C23.7584 18.3001 22.8316 19.2268 21.6926 19.2268H19.7369Z" fill="#253448"/>
<path d="M6.17462 23.6639C5.03557 23.6639 4.10882 22.7372 4.10882 21.598V13.9025C4.10908 13.6835 4.19618 13.4736 4.35102 13.3188C4.50585 13.164 4.71578 13.0769 4.93475 13.0766C5.15373 13.0768 5.36367 13.1639 5.51851 13.3188C5.67335 13.4736 5.76044 13.6835 5.76065 13.9025V21.598C5.76082 21.7077 5.80447 21.8128 5.88203 21.8904C5.95959 21.9679 6.06474 22.0116 6.17443 22.0117H17.8534C17.9631 22.0116 18.0682 21.9679 18.1458 21.8904C18.2234 21.8128 18.267 21.7077 18.2672 21.598V13.8449C18.2674 13.6258 18.3546 13.4158 18.5095 13.261C18.6644 13.1061 18.8744 13.019 19.0934 13.0188C19.3124 13.019 19.5224 13.1062 19.6772 13.261C19.832 13.4159 19.9191 13.6259 19.9193 13.8449V21.598C19.9193 22.7372 18.9926 23.6639 17.8534 23.6639H6.17465H6.17462ZM4.92112 6.53628C4.70215 6.53602 4.49223 6.44892 4.3374 6.29409C4.18257 6.13926 4.09547 5.92934 4.09521 5.71038V2.36314C4.09521 1.22409 5.02175 0.297363 6.16096 0.297363H17.9092C19.0485 0.297363 19.9752 1.22393 19.9752 2.36314V5.71031C19.9746 5.9293 19.8874 6.13914 19.7324 6.29393C19.5775 6.44871 19.3676 6.53583 19.1486 6.53622C18.9297 6.53596 18.7198 6.4489 18.5649 6.2941C18.41 6.13931 18.3229 5.92943 18.3225 5.71047V2.36317C18.3224 2.2535 18.2788 2.14836 18.2012 2.0708C18.1237 1.99324 18.0186 1.94959 17.9089 1.94942H6.1608C6.05112 1.9496 5.94598 1.99325 5.86843 2.0708C5.79088 2.14836 5.74723 2.25349 5.74705 2.36317V5.71034C5.74684 5.92933 5.65975 6.13928 5.5049 6.29412C5.35005 6.44896 5.1401 6.53604 4.92112 6.53625V6.53628Z" fill="#253448"/>
<path d="M8.00961 19.1388C7.81385 19.1385 7.62619 19.0606 7.48777 18.9222C7.34935 18.7838 7.27147 18.5961 7.27121 18.4004C7.27134 18.2045 7.34916 18.0167 7.48759 17.8782C7.62602 17.7397 7.81376 17.6617 8.00961 17.6614H15.9909C16.1868 17.6617 16.3746 17.7396 16.5131 17.8781C16.6515 18.0167 16.7294 18.2045 16.7295 18.4004C16.7293 18.5962 16.6514 18.7839 16.5129 18.9223C16.3745 19.0608 16.1867 19.1386 15.9909 19.1388H8.00961V19.1388ZM3.83717 14.6319C3.38167 14.6319 3.01123 14.2613 3.01123 13.8058C3.01123 13.3503 3.38183 12.9799 3.83713 12.9799H20.1635C20.2717 12.9813 20.3784 13.004 20.4777 13.0468C20.577 13.0896 20.6668 13.1516 20.7421 13.2293C20.818 13.3067 20.8779 13.3985 20.9181 13.4993C20.9584 13.6001 20.9782 13.7079 20.9765 13.8164C20.9749 14.032 20.8886 14.2383 20.7363 14.3909C20.5839 14.5434 20.3777 14.63 20.1621 14.6318H3.83713L3.83717 14.6319ZM18.9191 10.6327C18.6375 10.6323 18.3675 10.5203 18.1684 10.3212C17.9693 10.122 17.8572 9.85203 17.8569 9.5704C17.8569 8.98473 18.3335 8.5083 18.9191 8.5083C19.5048 8.5083 19.9814 8.98473 19.9814 9.5704C19.9811 9.85204 19.8691 10.1221 19.6699 10.3212C19.4708 10.5203 19.2008 10.6324 18.9191 10.6327Z" fill="#253448"/>
</svg>
