<svg width="20" height="22" viewBox="0 0 20 22" fill="none" xmlns="http://www.w3.org/2000/svg">
<path d="M16.052 3.15641C15.9687 3.15641 15.8906 3.13558 15.8125 3.09912C13.8177 2.06787 12.0833 1.62516 10.0104 1.62516C7.94268 1.62516 5.99476 2.11995 4.2083 3.09391C4.08761 3.15115 3.94959 3.16003 3.82257 3.11874C3.69554 3.07744 3.58913 2.9891 3.52516 2.87184C3.4612 2.75457 3.44454 2.61728 3.47859 2.48812C3.51265 2.35896 3.59484 2.24773 3.7083 2.17725C5.65101 1.11995 7.7708 0.583496 10.0104 0.583496C12.2291 0.583496 14.1666 1.07308 16.2916 2.17204C16.5468 2.30225 16.6458 2.61995 16.5156 2.87516C16.4218 3.05225 16.2395 3.15641 16.052 3.15641ZM1.1458 8.62516C1.04163 8.62516 0.937467 8.59391 0.843717 8.53141C0.787895 8.49215 0.740369 8.44225 0.703863 8.38459C0.667357 8.32693 0.642589 8.26263 0.630977 8.19537C0.619365 8.12812 0.621138 8.05924 0.636194 7.99267C0.65125 7.92611 0.679293 7.86316 0.718716 7.80745C1.74997 6.34912 3.06768 5.20329 4.63018 4.396C7.90622 2.70329 12.0937 2.69808 15.375 4.38558C16.9323 5.18766 18.2448 6.32308 19.2812 7.771C19.4479 8.00537 19.3958 8.32829 19.1614 8.49495C18.927 8.66162 18.5989 8.60954 18.4323 8.37516C17.4948 7.06266 16.3073 6.03141 14.901 5.31266C11.9114 3.7762 8.09372 3.78141 5.10934 5.32308C3.69788 6.05225 2.50517 7.0887 1.57288 8.41162C1.46872 8.55225 1.30726 8.62516 1.1458 8.62516ZM7.66142 21.1929C7.52601 21.1929 7.3958 21.1408 7.29163 21.0366C6.39059 20.1252 5.90101 19.547 5.19788 18.2918C4.47913 17.0106 4.09892 15.4429 4.09892 13.7658C4.09892 10.672 6.74476 8.1512 9.99997 8.1512C13.2552 8.1512 15.901 10.6668 15.901 13.7658C15.901 14.0522 15.6666 14.2866 15.3802 14.2866C15.0937 14.2866 14.8593 14.0522 14.8593 13.7658C14.8593 11.245 12.6823 9.19287 9.99997 9.19287C7.32288 9.19287 5.14059 11.245 5.14059 13.7658C5.14059 15.2658 5.47392 16.6512 6.10413 17.7814C6.77601 18.9793 7.22393 19.495 8.02601 20.3022C8.22913 20.5054 8.22913 20.8387 8.0208 21.0366C7.92705 21.146 7.79163 21.1929 7.66142 21.1929ZM15.125 19.2658C13.8854 19.2658 12.7968 18.9533 11.8958 18.3439C10.3489 17.2918 9.42184 15.5835 9.42184 13.771C9.42184 13.4845 9.65622 13.2502 9.94267 13.2502C10.2291 13.2502 10.4635 13.4845 10.4635 13.771C10.4635 15.2345 11.2187 16.62 12.4843 17.4793C13.2187 17.9793 14.0833 18.2241 15.125 18.2241C15.375 18.2241 15.7968 18.1981 16.2135 18.1252C16.4948 18.0731 16.7656 18.2658 16.8177 18.547C16.8698 18.8283 16.677 19.0991 16.3958 19.1512C15.7864 19.2606 15.2708 19.2658 15.125 19.2658ZM13.026 21.4168C12.9791 21.4168 12.9323 21.4116 12.8906 21.396C11.2291 20.9429 10.1458 20.3283 9.0208 19.2085C8.30337 18.4968 7.73455 17.6496 7.34739 16.7161C6.96024 15.7827 6.76247 14.7816 6.76559 13.771C6.76559 12.0783 8.20309 10.7033 9.97392 10.7033C11.7448 10.7033 13.1823 12.0783 13.1823 13.771C13.1823 14.8856 14.1562 15.797 15.3489 15.797C16.5416 15.797 17.5156 14.8908 17.5156 13.771C17.5156 9.84391 14.1302 6.6512 9.96872 6.6512C7.00518 6.6512 4.30205 8.29704 3.0833 10.8491C2.67705 11.6929 2.47392 12.6772 2.47392 13.771C2.47392 14.5835 2.54684 15.8647 3.16663 17.5262C3.26559 17.797 3.13017 18.0939 2.85934 18.1981C2.58851 18.297 2.29163 18.1616 2.18747 17.8908C1.67705 16.521 1.42705 15.1772 1.42705 13.771C1.42705 12.521 1.66663 11.3856 2.14059 10.4012C3.53122 7.49495 6.60413 5.61475 9.96351 5.61475C14.6979 5.61475 18.552 9.27621 18.552 13.7762C18.552 15.4689 17.1093 16.8439 15.3437 16.8439C13.5781 16.8439 12.1354 15.4689 12.1354 13.7762C12.1354 12.6616 11.1614 11.7502 9.96872 11.7502C8.77601 11.7502 7.80205 12.6564 7.80205 13.7762C7.80205 15.5522 8.49476 17.2241 9.74997 18.4741C10.7343 19.4533 11.6927 19.995 13.1614 20.396C13.4375 20.4741 13.6041 20.7606 13.526 21.0366C13.4635 21.2658 13.2552 21.4168 13.026 21.4168Z" fill="#3E5778"/>
</svg>
