<svg width="171" height="144" viewBox="0 0 171 144" fill="none" xmlns="http://www.w3.org/2000/svg">
<path d="M61.9853 5.74012e-08L113.944 0L20.2169 103.037L61.9853 5.74012e-08Z" fill="url(#paint0_linear_490_7023)"/>
<path d="M49.6561 102.978L149.296 103.104L133.696 60.8326L116.46 60.9585L120.738 55.1713L131.935 54.9197L128.538 44.855H103.88L79.8501 70.6457L120.109 71.0231L125.77 87.2524L64.2498 87.0008L49.6561 102.978Z" fill="url(#paint1_linear_490_7023)"/>
<path d="M10.9888 137.13H9.15216L9.02542 135.959C8.55032 136.813 7.56824 137.447 6.49207 137.447H3.07152C1.36163 137.447 9.15527e-05 136.053 9.15527e-05 134.406V132.697C9.15527e-05 131.62 0.760561 130.669 1.77374 130.385L8.1071 128.674C8.6133 128.516 8.96166 128.042 8.96166 127.534V126.806C8.96166 126.014 8.32871 125.317 7.50526 125.317H3.61038C2.78692 125.317 2.08944 126.014 2.08944 126.806V128.135H0.221701V126.52C0.221701 124.842 1.58324 123.48 3.2939 123.48H7.88549C9.59538 123.48 10.9888 124.842 10.9888 126.52V137.13ZM3.45175 135.64H7.06204C8.1071 135.64 8.92978 134.817 8.92978 133.773V129.877C8.80303 130.003 8.6133 130.131 8.29683 130.225L2.84991 131.777C2.31183 131.904 1.99535 132.41 1.99535 132.949V134.152C1.99535 134.945 2.6283 135.64 3.45175 135.64Z" fill="#CE2020"/>
<path d="M14.4732 126.521C14.4732 124.843 15.8658 123.481 17.5446 123.481H22.8648C24.6065 123.481 25.9362 124.843 25.9362 126.521V128.422H24.0996V126.807C24.0996 126.014 23.4029 125.318 22.5794 125.318H17.9241C17.1006 125.318 16.4358 126.014 16.4358 126.807V134.121C16.4358 134.914 17.1006 135.609 17.9241 135.609H22.5794C23.4029 135.609 24.0996 134.913 24.0996 134.121V132.474H25.9362V134.406C25.9362 136.052 24.6065 137.446 22.8648 137.446H17.5446C15.8658 137.446 14.4732 136.052 14.4732 134.406V126.521Z" fill="#CE2020"/>
<path d="M33.2516 137.13C31.5736 137.13 30.2113 135.769 30.2113 134.09V125.476H27.8358V123.798H30.2113L30.4648 120.062H32.2384V123.798H36.1014V125.476H32.2384V133.773C32.2384 134.566 32.8714 135.262 33.6948 135.262H36.4498V137.129H33.2516V137.13Z" fill="#CE2020"/>
<path d="M38.8253 119.143H40.8206V121.612H38.8253V119.143ZM38.8253 123.797H40.8517V137.129H38.8253V123.797Z" fill="#CE2020"/>
<path d="M45.2216 123.797L49.2432 134.247L53.233 123.797H55.4187L50.0978 137.129H48.3887L43.0685 123.797H45.2216Z" fill="#CE2020"/>
<path d="M57.3192 126.521C57.3192 124.843 58.7126 123.481 60.3906 123.481H65.5203C67.2621 123.481 68.5925 124.843 68.5925 126.521V130.638H59.2826V134.121C59.2826 134.914 59.9474 135.609 60.7716 135.609H65.2365C66.0599 135.609 66.7566 134.913 66.7566 134.121V132.57H68.5933V134.406C68.5933 136.052 67.2636 137.446 65.5211 137.446H60.3914C58.7126 137.446 57.32 136.052 57.32 134.406V126.521H57.3192ZM66.7559 129.181V126.807C66.7559 126.014 66.0592 125.318 65.2357 125.318H60.7709C59.9474 125.318 59.2818 126.014 59.2818 126.807V129.181H66.7559Z" fill="#CE2020"/>
<path d="M77.302 132.854H79.1705V134.121C79.1705 134.914 79.8672 135.578 80.6907 135.578H84.6796C85.5046 135.578 86.1702 134.881 86.1702 134.089V133.201C86.1702 132.664 85.8211 132.189 85.2815 132.03L79.0756 130.257C78.0306 129.972 77.302 128.928 77.302 127.819V126.521C77.302 124.843 78.6954 123.481 80.3742 123.481H85.0614C86.7721 123.481 88.1328 124.843 88.1328 126.521V128.073H86.2651V126.807C86.2651 126.015 85.5684 125.35 84.7449 125.35H80.7544C79.931 125.35 79.2972 126.015 79.2972 126.807V127.694C79.2972 128.2 79.6137 128.707 80.1526 128.866L86.3584 130.639C87.4354 130.924 88.1321 131.937 88.1321 133.077V134.407C88.1321 136.085 86.7713 137.448 85.0606 137.448H80.3734C78.6946 137.448 77.3012 136.085 77.3012 134.407V132.854H77.302Z" fill="#1D2939"/>
<path d="M91.2999 126.521C91.2999 124.843 92.6925 123.481 94.3706 123.481H99.501C101.243 123.481 102.572 124.843 102.572 126.521V130.638H93.2617V134.121C93.2617 134.914 93.9266 135.609 94.7516 135.609H99.2164C100.04 135.609 100.735 134.913 100.735 134.121V132.57H102.571V134.406C102.571 136.052 101.242 137.446 99.5002 137.446H94.3698C92.6918 137.446 91.2991 136.052 91.2991 134.406V126.521H91.2999ZM100.736 129.181V126.807C100.736 126.014 100.04 125.318 99.2172 125.318H94.7524C93.9273 125.318 93.2625 126.014 93.2625 126.807V129.181H100.736Z" fill="#1D2939"/>
<path d="M105.897 126.521C105.897 124.843 107.292 123.481 108.97 123.481H114.29C116.032 123.481 117.36 124.843 117.36 126.521V128.422H115.525V126.807C115.525 126.014 114.829 125.318 114.004 125.318H109.35C108.526 125.318 107.862 126.014 107.862 126.807V134.121C107.862 134.914 108.526 135.609 109.35 135.609H114.004C114.829 135.609 115.525 134.913 115.525 134.121V132.474H117.36V134.406C117.36 136.052 116.032 137.446 114.29 137.446H108.97C107.292 137.446 105.897 136.052 105.897 134.406V126.521Z" fill="#1D2939"/>
<path d="M120.689 123.797H122.714V134.057C122.714 134.88 123.379 135.577 124.202 135.577H128.128C129.269 135.577 130.124 134.69 130.124 133.551V123.797H132.151V137.129H130.315L130.156 135.926C129.712 136.813 128.761 137.446 127.684 137.446H123.758C122.049 137.446 120.688 136.052 120.688 134.406V123.797H120.689Z" fill="#1D2939"/>
<path d="M135.634 123.797H137.472L137.63 125.318C138.073 124.431 139.022 123.797 140.101 123.797H141.905V125.665H139.687C138.548 125.665 137.662 126.552 137.662 127.692V137.128H135.634V123.797H135.634Z" fill="#1D2939"/>
<path d="M144.28 119.143H146.274V121.612H144.28V119.143ZM144.28 123.797H146.306V137.129H144.28V123.797Z" fill="#1D2939"/>
<path d="M154.097 137.13C152.417 137.13 151.057 135.769 151.057 134.09V125.476H148.681V123.798H151.057L151.31 120.062H153.084V123.798H156.946V125.476H153.084V133.773C153.084 134.566 153.715 135.262 154.539 135.262H157.295V137.129H154.097V137.13Z" fill="#1D2939"/>
<path d="M160.081 144.001L162.931 136.843L157.769 123.797H159.986L163.976 134.216L167.904 123.797H170.026L162.236 144.001H160.081Z" fill="#1D2939"/>
<defs>
<linearGradient id="paint0_linear_490_7023" x1="67.0805" y1="0" x2="67.0805" y2="103.037" gradientUnits="userSpaceOnUse">
<stop stop-color="#3E5677"/>
<stop offset="1" stop-color="#2B3D52"/>
</linearGradient>
<linearGradient id="paint1_linear_490_7023" x1="99.4762" y1="44.855" x2="99.4762" y2="103.104" gradientUnits="userSpaceOnUse">
<stop stop-color="#334763"/>
<stop offset="1" stop-color="#253549"/>
</linearGradient>
</defs>
</svg>
