<svg width="189" height="83" viewBox="0 0 189 83" fill="none" xmlns="http://www.w3.org/2000/svg">
<path fill-rule="evenodd" clip-rule="evenodd" d="M188.078 83H105.056C114.414 56.2556 114.46 26.7444 105.056 0H189V83" fill="#003366"/>
<path fill-rule="evenodd" clip-rule="evenodd" d="M180.518 22.2256C181.163 21.4878 181.117 20.8884 180.38 20.8884H176.738C176 20.8884 175.632 20.7961 174.433 21.995L164.292 32.9695L164.246 22.2256C164.246 21.4878 163.646 20.8884 162.909 20.8884H160.419C159.682 20.8884 159.083 21.4878 159.083 22.2256V46.6645C159.083 47.4022 159.682 48.0017 160.419 48.0017H162.909C163.646 48.0017 164.246 47.4022 164.246 46.6645V40.255L168.763 35.3672L175.724 46.6184C176.185 47.3561 176.83 47.9556 177.568 47.9556H181.302C182.039 47.9556 182.27 47.3561 181.809 46.6184L172.22 31.54L180.518 22.2256ZM120.96 46.6645C120.96 47.4022 121.559 48.0017 122.297 48.0017H125.017C125.754 48.0017 126.353 47.4022 126.353 46.6645V22.2256C126.353 21.4878 125.754 20.8884 125.017 20.8884H122.297C121.559 20.8884 120.96 21.4878 120.96 22.2256V46.6645ZM148.111 22.2256C148.111 21.4878 148.711 20.8884 149.448 20.8884H152.122C152.859 20.8884 153.459 21.4878 153.459 22.2256V46.6645C153.459 47.4022 152.859 48.0017 152.122 48.0017H149.448C148.711 48.0017 148.111 47.4022 148.111 46.6645V36.6122H137.371V46.6645C137.371 47.4022 136.771 48.0017 136.034 48.0017H133.36C132.623 48.0017 132.023 47.4022 132.023 46.6645V22.2256C132.023 21.4878 132.623 20.8884 133.36 20.8884H136.034C136.771 20.8884 137.371 21.4878 137.371 22.2256V32.0472H148.158L148.111 22.2256Z" fill="white"/>
<path fill-rule="evenodd" clip-rule="evenodd" d="M105.287 0H0V83H105.287C114.691 56.2556 114.737 26.7444 105.287 0Z" fill="#CCD7E6"/>
<path d="M6.36157 21.1187H9.91108L10.9713 30.1564L12.6308 21.2109H15.4889L17.1484 30.2487L18.2086 21.1187H21.666L18.9923 35.5514H15.5811L14.0599 27.2053L12.4004 35.5514H8.89694L6.36157 21.1187ZM22.9567 21.1187H26.5984V35.5514H22.9567V21.1187ZM28.8111 21.1187H34.0662C36.9704 21.1187 38.4455 22.5481 38.4455 25.4531C38.4455 26.237 38.3072 26.9287 38.0767 27.482C37.8462 28.0353 37.4313 28.4964 36.8782 28.8653C37.3391 29.142 37.6157 29.5109 37.8001 29.972C37.9845 30.4331 38.0767 30.9403 38.0767 31.4937V35.5975H34.6655V31.7242C34.6655 31.3553 34.6194 30.9864 34.4811 30.6637C34.3428 30.3409 34.0662 30.2025 33.6052 30.2025H32.2684V35.5514H28.8572V21.1187H28.8111ZM33.6974 27.6664C34.0662 27.6664 34.2967 27.5281 34.5272 27.2514C34.7116 26.9748 34.8499 26.5137 34.8499 25.822C34.8499 25.0842 34.7577 24.577 34.5272 24.3003C34.4242 24.167 34.2911 24.06 34.1389 23.9879C33.9867 23.9158 33.8197 23.8806 33.6513 23.8853H32.2684V27.6664H33.6974ZM43.3318 21.1187H48.4025C49.1862 21.1187 49.8316 21.2109 50.3847 21.3953C50.8918 21.5798 51.3528 21.8564 51.6755 22.1792C51.9982 22.502 52.2286 22.8709 52.413 23.332C52.5513 23.7931 52.6435 24.2542 52.6435 24.7614C52.6435 25.6837 52.4591 26.3753 52.1364 26.8364C51.8138 27.2975 51.3528 27.6664 50.7996 27.897C51.1223 28.0353 51.3989 28.1737 51.6294 28.3581C51.8599 28.5425 52.0904 28.7731 52.2747 29.0959C52.4591 29.3725 52.5974 29.7414 52.6896 30.1564C52.7818 30.5714 52.8279 31.0325 52.8279 31.5859C52.8279 32.9692 52.4591 33.9837 51.6755 34.6292C50.8918 35.2748 49.8316 35.5975 48.4947 35.5975H43.3318V21.1187ZM48.0338 26.9287C48.4025 26.9287 48.7252 26.8364 48.9557 26.6059C49.1862 26.3753 49.3245 26.0064 49.3245 25.407C49.3245 24.7614 49.1862 24.3464 48.9557 24.162C48.7252 23.9775 48.4025 23.8853 48.0338 23.8853H46.6047V26.9748H48.0338V26.9287ZM48.0799 32.877C48.2643 32.877 48.4025 32.877 48.5869 32.8309C48.7713 32.7848 48.9096 32.7387 49.0479 32.6003C49.1862 32.5081 49.2784 32.3237 49.3706 32.0931C49.4628 31.8625 49.5089 31.5398 49.5089 31.1709C49.5089 30.802 49.4628 30.5253 49.3706 30.2948C49.2784 30.0642 49.1862 29.8798 49.0479 29.7875C48.9096 29.6492 48.7713 29.6031 48.5869 29.557C48.4025 29.5109 48.2643 29.5109 48.0799 29.5109H46.6047V32.9231H48.0799V32.877ZM54.5796 21.1187H58.2213V35.5514H54.5796V21.1187ZM60.4801 21.1187H64.1218V32.7387H68.9621V35.5975H60.4801V21.1187ZM70.4833 35.5975V21.1187H75.2774C76.1072 21.1187 76.8908 21.2109 77.5823 21.4414C78.2738 21.672 78.873 22.0409 79.3801 22.5481C79.8872 23.0553 80.256 23.747 80.5325 24.577C80.8091 25.407 80.9474 26.4214 80.9474 27.6664V29.0959C80.9474 30.2948 80.8091 31.3092 80.5325 32.1853C80.256 33.0153 79.8411 33.707 79.3801 34.2142C78.873 34.7214 78.2738 35.0903 77.5823 35.3209C76.8908 35.5514 76.1533 35.6437 75.3235 35.6437H70.4833V35.5975ZM73.9406 32.7848H74.8165C75.1852 32.7848 75.5079 32.7387 75.8306 32.6464C76.1072 32.5542 76.3838 32.3698 76.5682 32.1392C76.7525 31.9087 76.9369 31.5398 77.0291 31.0787C77.1213 30.6175 77.2135 30.0181 77.2135 29.2803V27.4359C77.2135 26.6981 77.1674 26.1448 77.0752 25.6837C76.983 25.2225 76.8447 24.8537 76.6143 24.6231C76.4299 24.3925 76.1994 24.2081 75.8767 24.1159C75.6001 24.0237 75.2774 23.9775 74.8625 23.9775H73.9406V32.7848ZM82.8835 21.1187H91.2733V23.8853H86.3408V26.7903H90.8123V29.557H86.3408V32.7848H91.4577V35.5514H82.8835V21.1187ZM93.1633 21.1187H96.0674L100.078 28.9575V21.1187H103.443V35.5514H100.539L96.5284 27.9892V35.5514H93.1633V21.1187ZM73.3874 47.1253H77.2135L80.9935 61.5581H77.5362L76.8447 58.3764H73.4796L72.7421 61.5581H69.423L73.3874 47.1253ZM76.1994 55.7481L75.1391 50.9064L74.0328 55.7481H76.1994ZM87.1706 61.8809C86.2947 61.8809 85.5111 61.7887 84.8657 61.5581C84.2204 61.3275 83.6672 61.0048 83.2062 60.5437C82.7452 60.0825 82.4225 59.437 82.1921 58.6531C81.9616 57.8692 81.8233 56.947 81.8233 55.7942V47.1253H85.465V55.4714L85.5111 57.1775C85.5572 57.6386 85.6494 58.0075 85.7416 58.3303C85.8799 58.607 86.0182 58.8375 86.2486 58.9759C86.4791 59.1142 86.7557 59.1603 87.1706 59.1603C87.5394 59.1603 87.8621 59.1142 88.0926 58.9759C88.2162 58.908 88.3249 58.8158 88.412 58.7049C88.4991 58.594 88.563 58.4665 88.5996 58.3303C88.7379 58.0536 88.784 57.6386 88.8301 57.1775C88.8762 56.7164 88.8762 56.1631 88.8762 55.4714V47.1253H92.5179V55.7481C92.5179 56.9009 92.4257 57.9153 92.1952 58.6531C91.9647 59.437 91.6421 60.0825 91.2272 60.5437C90.7662 61.0048 90.213 61.3736 89.5677 61.5581C88.9223 61.7425 88.0465 61.8809 87.1706 61.8809ZM100.124 57.4542C100.124 57.2698 100.078 57.0853 100.032 56.947C99.9857 56.8087 99.8474 56.6703 99.7091 56.5781C99.5708 56.4398 99.3404 56.3475 99.1099 56.2092L98.1879 55.7942L96.9894 55.287C96.6206 55.1487 96.2979 54.9642 95.9752 54.7337C95.6525 54.5031 95.376 54.2725 95.1455 53.9498C94.915 53.627 94.7306 53.2581 94.5923 52.797C94.454 52.3359 94.4079 51.7825 94.4079 51.137C94.4079 50.4453 94.5462 49.8459 94.7767 49.3387C95.0072 48.8314 95.376 48.3703 95.8369 48.0475C96.2979 47.7248 96.8511 47.4481 97.4503 47.2637C98.0957 47.0792 98.7872 46.987 99.5708 46.987C100.216 46.987 100.815 47.0331 101.415 47.0792C102.014 47.1253 102.521 47.2175 103.074 47.3098V50.1225L101.599 49.892L99.9857 49.7998C99.3403 49.7998 98.8333 49.892 98.4645 50.0303C98.0957 50.2148 97.8652 50.5375 97.8652 50.9987C97.8652 51.2292 97.9113 51.4598 98.0496 51.6442C98.1794 51.8201 98.3347 51.9755 98.5106 52.1053C98.7197 52.2647 98.9532 52.3893 99.2021 52.4742L100.124 52.8892L101.415 53.4887C102.198 53.8575 102.798 54.3186 103.259 54.872C103.72 55.4714 103.904 56.2553 103.904 57.2237C103.904 60.267 102.014 61.7887 98.1879 61.7887C97.3582 61.7887 96.6667 61.7425 96.1135 61.6964C95.5143 61.6042 94.9611 61.5581 94.4079 61.4198V58.5609C94.6845 58.607 94.915 58.6531 95.1455 58.6992L95.883 58.8375C96.1135 58.8837 96.4362 58.8837 96.7128 58.9298C96.9894 58.9298 97.3582 58.9759 97.7269 58.9759C98.6028 58.9759 99.2021 58.8837 99.6169 58.607C99.9396 58.3303 100.124 57.9614 100.124 57.4542Z" fill="#003366"/>
</svg>
