<svg width="198" height="29" viewBox="0 0 198 29" fill="none" xmlns="http://www.w3.org/2000/svg">
<path d="M12.7525 20.8741H10.6211L10.474 19.5151C9.92264 20.5068 8.78293 21.2422 7.53403 21.2422H3.56444C1.58009 21.2422 1.52588e-05 19.6243 1.52588e-05 17.7139V15.7296C1.52588e-05 14.4798 0.882548 13.377 2.05836 13.0468L9.40828 11.0615C9.99574 10.8783 10.4 10.3279 10.4 9.73862V8.89399C10.4 7.97446 9.66547 7.16592 8.70984 7.16592H4.18979C3.23416 7.16592 2.42472 7.97446 2.42472 8.89399V10.4362H0.257195V8.56191C0.257195 6.61456 1.83727 5.03358 3.82252 5.03358H9.1511C11.1355 5.03358 12.7525 6.61456 12.7525 8.56191V20.8741ZM4.0057 19.146H8.19548C9.40829 19.146 10.363 18.1904 10.363 16.9785V12.4575C10.2159 12.6037 9.99574 12.7517 9.62847 12.8618L3.30726 14.662C2.68281 14.81 2.31554 15.3966 2.31554 16.0228V17.4188C2.31554 18.3384 3.05008 19.146 4.0057 19.146Z" fill="#CE2020"/>
<path d="M16.7961 8.56275C16.7961 6.6154 18.4123 5.03442 20.3605 5.03442H26.5346C28.556 5.03442 30.0991 6.6154 30.0991 8.56275V10.7682H27.9676V8.89392C27.9676 7.97439 27.1591 7.16586 26.2035 7.16586H20.8009C19.8453 7.16586 19.0737 7.97439 19.0737 8.89392V17.3827C19.0737 18.3022 19.8453 19.1089 20.8009 19.1089H26.2035C27.1591 19.1089 27.9676 18.3013 27.9676 17.3827V15.4714H30.0991V17.7129C30.0991 19.6233 28.556 21.2413 26.5346 21.2413H20.3605C18.4123 21.2413 16.7961 19.6233 16.7961 17.7129V8.56275Z" fill="#CE2020"/>
<path d="M38.5887 20.874C36.6414 20.874 35.0604 19.2948 35.0604 17.3457V7.34906H32.3036V5.40171H35.0604L35.3546 1.06575H37.4129V5.40171H41.896V7.34906H37.4129V16.9784C37.4129 17.8979 38.1475 18.7056 39.1031 18.7056H42.3002V20.8731H38.5887V20.874Z" fill="#CE2020"/>
<path d="M45.0571 -3.05176e-05H47.3726V2.86595H45.0571V-3.05176e-05ZM45.0571 5.40165H47.4087V20.8739H45.0571V5.40165Z" fill="#CE2020"/>
<path d="M52.4801 5.4017L57.1472 17.5298L61.7773 5.4017H64.314L58.1389 20.874H56.1555L49.9814 5.4017H52.4801Z" fill="#CE2020"/>
<path d="M66.5193 8.56275C66.5193 6.6154 68.1364 5.03442 70.0838 5.03442H76.0368C78.0582 5.03442 79.6021 6.6154 79.6021 8.56275V13.34H68.7979V17.3827C68.7979 18.3022 69.5694 19.1089 70.5259 19.1089H75.7074C76.6631 19.1089 77.4716 18.3013 77.4716 17.3827V15.5824H79.603V17.7129C79.603 19.6233 78.06 21.2413 76.0377 21.2413H70.0847C68.1364 21.2413 66.5203 19.6233 66.5203 17.7129V8.56275H66.5193ZM77.4707 11.6489V8.89392C77.4707 7.97439 76.6622 7.16586 75.7065 7.16586H70.525C69.5694 7.16586 68.797 7.97439 68.797 8.89392V11.6489H77.4707Z" fill="#CE2020"/>
<path d="M89.7098 15.9118H91.8782V17.3827C91.8782 18.3022 92.6868 19.0728 93.6424 19.0728H98.2716C99.2291 19.0728 100.001 18.2643 100.001 17.3448V16.3151C100.001 15.6916 99.5963 15.1402 98.9701 14.9562L91.7681 12.8978C90.5553 12.5675 89.7098 11.3556 89.7098 10.0688V8.56275C89.7098 6.6154 91.3269 5.03442 93.2751 5.03442H98.7147C100.7 5.03442 102.279 6.6154 102.279 8.56275V10.3639H100.112V8.89483C100.112 7.9753 99.3031 7.20376 98.3474 7.20376H93.7164C92.7608 7.20376 92.0253 7.9753 92.0253 8.89483V9.92355C92.0253 10.511 92.3926 11.0994 93.0179 11.2834L100.22 13.3409C101.47 13.6721 102.278 14.8479 102.278 16.1708V17.7147C102.278 19.6621 100.699 21.2431 98.7138 21.2431H93.2742C91.326 21.2431 89.7089 19.6621 89.7089 17.7147V15.9118H89.7098Z" fill="#1D2939"/>
<path d="M105.955 8.56275C105.955 6.6154 107.571 5.03442 109.518 5.03442H115.472C117.493 5.03442 119.036 6.6154 119.036 8.56275V13.34H108.231V17.3827C108.231 18.3022 109.003 19.1089 109.96 19.1089H115.142C116.097 19.1089 116.904 18.3013 116.904 17.3827V15.5824H119.035V17.7129C119.035 19.6233 117.492 21.2413 115.471 21.2413H109.517C107.57 21.2413 105.954 19.6233 105.954 17.7129V8.56275H105.955ZM116.905 11.6489V8.89392C116.905 7.97439 116.097 7.16586 115.143 7.16586H109.961C109.004 7.16586 108.232 7.97439 108.232 8.89392V11.6489H116.905Z" fill="#1D2939"/>
<path d="M122.895 8.56275C122.895 6.6154 124.513 5.03442 126.46 5.03442H132.634C134.656 5.03442 136.198 6.6154 136.198 8.56275V10.7682H134.067V8.89392C134.067 7.97439 133.26 7.16586 132.303 7.16586H126.902C125.946 7.16586 125.174 7.97439 125.174 8.89392V17.3827C125.174 18.3022 125.946 19.1089 126.902 19.1089H132.303C133.261 19.1089 134.067 18.3013 134.067 17.3827V15.4714H136.198V17.7129C136.198 19.6233 134.656 21.2413 132.634 21.2413H126.46C124.513 21.2413 122.895 19.6233 122.895 17.7129V8.56275Z" fill="#1D2939"/>
<path d="M140.06 5.4017H142.411V17.3087C142.411 18.2643 143.182 19.0728 144.138 19.0728H148.694C150.018 19.0728 151.01 18.0432 151.01 16.7212V5.4017H153.362V20.874H151.232L151.047 19.478C150.532 20.5067 149.429 21.2422 148.179 21.2422H143.623C141.638 21.2422 140.059 19.6242 140.059 17.7139V5.4017H140.06Z" fill="#1D2939"/>
<path d="M157.405 5.4017H159.537L159.72 7.16677C160.235 6.13715 161.337 5.4017 162.588 5.4017H164.682V7.57013H162.108C160.786 7.57013 159.758 8.59885 159.758 9.92175V20.8731H157.404V5.4017H157.405Z" fill="#1D2939"/>
<path d="M167.439 -3.05176e-05H169.752V2.86595H167.439V-3.05176e-05ZM167.439 5.40165H169.789V20.8739H167.439V5.40165Z" fill="#1D2939"/>
<path d="M178.831 20.874C176.882 20.874 175.303 19.2948 175.303 17.3457V7.34906H172.546V5.40171H175.303L175.597 1.06575H177.655V5.40171H182.137V7.34906H177.655V16.9784C177.655 17.8979 178.388 18.7056 179.344 18.7056H182.543V20.8731H178.831V20.874Z" fill="#1D2939"/>
<path d="M185.775 28.8484L189.083 20.5419L183.092 5.4017H185.666L190.296 17.4928L194.854 5.4017H197.316L188.276 28.8484H185.775Z" fill="#1D2939"/>
</svg>
