<svg width="162" height="51" viewBox="0 0 162 51" fill="none" xmlns="http://www.w3.org/2000/svg">
<g clip-path="url(#clip0_297_1840)">
<path fill-rule="evenodd" clip-rule="evenodd" d="M37.5974 0.0667379C37.5419 0.103168 37.4131 0.133526 37.3114 0.134336C35.6906 0.143241 32.9532 1.76478 31.6151 3.50856C30.473 4.99693 29.8655 6.48166 29.422 8.87187C29.3034 9.5098 29.3005 12.5562 29.418 13.1556C29.465 13.3969 29.5354 13.7612 29.5747 13.9652C29.7764 15.0221 30.8193 17.6171 31.0821 17.7183C31.1287 17.7361 31.6341 17.5082 32.2052 17.2119C32.7766 16.9156 33.6235 16.5007 34.0876 16.2898C34.5518 16.0789 34.9414 15.8972 34.9539 15.8859C34.9665 15.8745 34.828 15.6426 34.6461 15.3706C34.0682 14.5052 33.794 13.817 33.553 12.6278C33.4603 12.1708 33.4579 10.2129 33.5494 9.79558C33.5875 9.62152 33.6515 9.32725 33.6911 9.14145C34.0358 7.53853 34.9001 6.19265 36.1005 5.39038C36.3726 5.20863 36.6322 5.06008 36.6776 5.06008C36.7234 5.06008 36.7894 5.03255 36.8246 4.99936C37.2227 4.6213 39.5462 4.38046 40.7321 4.59418C42.0852 4.83786 44.0077 5.57981 44.9335 6.21572C45.0886 6.32218 45.2482 6.4092 45.2879 6.4092C45.3997 6.4092 45.3875 1.79393 45.2758 1.70123C45.0822 1.54134 43.8676 0.948749 43.335 0.754456C42.4647 0.43711 41.2225 0.13555 40.7867 0.135145C40.666 0.135145 40.5676 0.107216 40.5676 0.0724048C40.5676 -0.0134082 37.7282 -0.0190751 37.5974 0.0667379ZM86.67 0.0659283C86.6141 0.097501 86.3865 0.161456 86.1637 0.207601C85.941 0.25415 85.73 0.317295 85.6948 0.348463C85.6595 0.379631 85.5785 0.405132 85.5149 0.405132C85.2217 0.405132 84.1485 1.06897 83.5236 1.63728C81.531 3.44866 81.2321 7.72757 82.9225 10.2457C83.6673 11.3556 84.664 12.0911 87.0394 13.2852C89.4588 14.5015 89.9776 14.9986 89.9776 16.0996C89.9776 17.3269 89.2507 17.9818 87.7967 18.0636C86.4371 18.1405 84.9702 17.5718 83.4523 16.3789C83.2976 16.2575 83.0088 16.0332 82.8112 15.8814C82.6131 15.7292 82.4094 15.5548 82.3584 15.4932C82.1615 15.256 82.1461 15.4301 82.1636 17.6891L82.1814 19.9964L82.7213 20.3566C85.7835 22.4012 89.0081 22.638 91.6053 21.0091C92.3781 20.5246 93.6899 18.8088 93.6899 18.2826C93.6899 18.2445 93.7174 18.1607 93.751 18.0964C93.8077 17.9871 93.8413 17.8705 94.0171 17.1698C94.2172 16.3712 94.1414 13.9397 93.8972 13.3244C93.8677 13.25 93.8057 13.0678 93.7587 12.9197C93.6409 12.5444 93.1958 11.6406 93.0779 11.5365C93.0569 11.5179 92.9459 11.3661 92.8309 11.1993C92.4453 10.6399 91.5397 9.8571 90.72 9.37501C90.0785 8.99735 89.9651 8.93704 88.6995 8.29871C86.478 7.17828 85.9949 6.70307 85.9949 5.63648C85.9949 3.52314 89.1227 3.41304 92.5875 5.40495C93.5194 5.94088 93.4201 6.14245 93.4201 3.72067V1.62999L92.6267 1.23047C91.5008 0.662976 90.6321 0.341177 89.8424 0.199505C89.601 0.156194 89.3511 0.093858 89.2867 0.0606662C89.1377 -0.0158368 86.8057 -0.0113843 86.67 0.0659283ZM153.9 0.0659283C153.845 0.102763 153.715 0.133526 153.612 0.134336C153.419 0.135145 152.61 0.335915 152.077 0.515232C151.792 0.611164 151.528 0.71924 151.133 0.900985C147.001 2.80668 144.779 8.30275 145.879 13.8976C146.169 15.373 147.09 17.4945 147.798 18.3182C147.887 18.4218 147.96 18.5295 147.96 18.5574C147.96 18.6594 149.287 19.947 149.733 20.2781C150.6 20.9221 152.071 21.6005 153.022 21.7964C154.299 22.0587 155.508 22.1304 156.302 21.9903C157.618 21.7584 158.25 21.5851 159.166 21.2055C160.034 20.8456 160.921 20.2805 161.511 19.7118L162 19.2394V14.78V10.321L158.844 10.3384L155.689 10.3558V12.3125V14.2688L156.803 14.3024L157.916 14.3364L157.935 15.5697L157.953 16.8035L157.363 17.0824C154.462 18.4538 150.944 16.7331 150.085 13.5212C149.157 10.0538 150.365 6.40111 152.854 5.14589C153.457 4.8419 153.566 4.80264 154.406 4.58973C156.038 4.17564 159.218 4.92853 161.232 6.2052C161.763 6.54157 161.73 6.67919 161.73 4.12059C161.73 2.10196 161.717 1.81862 161.621 1.72228C161.3 1.4017 159.419 0.617236 158.389 0.374774C158.129 0.313652 157.856 0.248483 157.781 0.229459C157.07 0.0485229 154.113 -0.0761488 153.9 0.0659283ZM0 11.0314V21.7928L2.00799 21.775L4.01639 21.7572L4.05 17.4058L4.08362 13.0544L4.68261 13.035C6.11024 12.9881 6.84247 13.6988 7.69095 15.9555C7.77479 16.1781 7.86915 16.421 7.90115 16.4951C7.95258 16.6141 8.56858 18.4724 8.86261 19.3961C9.0558 20.0021 9.63252 21.6365 9.68071 21.7147C9.7524 21.8304 14.1074 21.8223 14.1074 21.7062C14.1074 21.6596 14.03 21.4095 13.9352 21.1496C13.6769 20.4433 13.2601 19.2382 12.9203 18.2154C12.7539 17.7142 12.5927 17.2439 12.5619 17.1698C12.5311 17.0953 12.4695 16.9132 12.425 16.765C12.38 16.6165 12.3169 16.4343 12.2841 16.3603C12.2512 16.2858 12.1788 16.0887 12.1233 15.9215C11.9285 15.3358 11.7665 14.9087 11.7223 14.8646C11.6976 14.8399 11.6774 14.78 11.6774 14.7314C11.6774 14.6294 11.3603 13.9114 11.0557 13.3244C10.7556 12.7456 10.5061 12.3963 10.123 12.0194L9.78763 11.6899L10.2603 11.3386C11.7102 10.2611 12.4845 8.56829 12.4849 6.4768C12.4853 3.67371 11.0261 1.27783 8.87638 0.552876C8.07368 0.28208 7.86267 0.270341 3.87787 0.270341H0V11.0314ZM15.5249 11.0306V21.7908L20.4355 21.79L25.3461 21.7887L26.1561 21.1468C26.6016 20.7934 27.0649 20.4372 27.1852 20.355L27.4039 20.2057L27.4047 19.0087L27.4051 17.8118L23.507 17.7944L19.6089 17.777V15.2471V12.7173L23.2357 12.6999L26.8628 12.682L26.8997 12.5311C26.9199 12.4477 26.928 11.56 26.9175 10.5582L26.8989 8.73668L23.2539 8.70308L19.6089 8.66948L19.5911 6.4598L19.5732 4.25052H23.4216H27.2699V2.26023V0.270341H21.3974H15.5249V11.0306ZM48.7349 11.0301V21.7908H54.675H60.6151V19.8013V17.8118L56.683 17.7944L52.7513 17.777L52.7326 15.3819C52.7221 14.0648 52.7302 12.9188 52.7504 12.8359L52.7873 12.6845L56.4141 12.6671L60.0412 12.6497L60.0591 10.6764L60.0769 8.70308H56.4732C53.5041 8.70308 52.8553 8.68689 52.7922 8.61079C52.7379 8.54481 52.7209 7.90729 52.7334 6.40111L52.7513 4.28412L56.5988 4.25052L60.4463 4.21693V2.26023V0.303938L54.5908 0.286532L48.7349 0.269532V11.0301ZM63.2112 0.354535C63.1934 0.401084 63.1869 5.23535 63.1966 11.0982L63.2136 21.7572H65.205H67.1964L67.23 14.9533C67.266 7.65349 67.2503 7.95626 67.5649 8.58488C67.616 8.68689 67.6832 8.77068 67.714 8.77068C67.7448 8.77068 67.7699 8.80063 67.7699 8.83706C67.7699 8.87349 68.0538 9.33656 68.4009 9.8656C68.7475 10.3951 69.1768 11.0561 69.3542 11.3341C69.8293 12.0781 70.8831 13.7045 71.6344 14.8517C71.9964 15.4046 72.2925 15.8725 72.2925 15.8919C72.2925 15.9114 72.3233 15.964 72.3609 16.0089C72.3986 16.0534 72.7404 16.5687 73.1203 17.1532C73.5002 17.7377 74.0846 18.6319 74.4187 19.1407C74.7529 19.6491 75.0388 20.0968 75.0538 20.1356C75.0692 20.1741 75.3207 20.5627 75.6127 20.9994L76.1441 21.7932L77.8127 21.7754L79.4812 21.7572V11.0306V0.303938L77.4733 0.286128L75.4649 0.268317V6.70064C75.4649 10.2384 75.4446 13.1536 75.4195 13.1787C75.394 13.2038 75.1911 12.9435 74.9675 12.5999C74.7444 12.2562 74.2337 11.4778 73.8323 10.8699C73.431 10.2623 73.1025 9.74336 73.1025 9.71664C73.1025 9.69033 73.0418 9.61343 72.9676 9.54623C72.8931 9.47904 72.8324 9.3997 72.8324 9.36975C72.8324 9.32563 71.0783 6.61766 70.8928 6.37561C70.8309 6.29465 70.615 5.96516 70.1189 5.19487C69.7653 4.64599 67.5074 1.19121 67.3191 0.911105C67.2693 0.83703 67.1526 0.662166 67.0595 0.523327L66.8906 0.270341H65.0669C63.67 0.270341 63.2359 0.289771 63.2112 0.354535ZM96.4212 0.354535C96.4034 0.401084 96.3969 5.23535 96.4066 11.0982L96.4236 21.7572L100.204 21.7766C104.854 21.8005 105.566 21.7499 106.65 21.3204C108.142 20.7286 109.241 19.3317 109.676 17.4734C109.715 17.3062 109.779 17.0273 109.818 16.8533C109.948 16.2789 109.909 14.5052 109.751 13.8421C109.327 12.0603 108.338 10.7537 106.935 10.1198C106.522 9.93361 106.521 9.9328 106.792 9.71907C109.486 7.59156 109.243 3.02931 106.333 1.0888C106.103 0.935391 105.898 0.80991 105.877 0.80991C105.856 0.80991 105.71 0.753241 105.552 0.683619C105.27 0.559353 105.038 0.490945 104.405 0.344416C103.917 0.231887 96.4641 0.241197 96.4212 0.354535ZM111.74 0.363035C111.609 0.704263 111.761 14.2299 111.904 15.0059C112.639 18.9824 114.638 21.2702 117.889 21.8547C118.149 21.9013 118.507 21.9668 118.685 22C119.409 22.1356 120.979 22.0413 122.04 21.7989C124.72 21.1868 126.629 19.2791 127.365 16.4781C127.839 14.6703 127.845 14.5647 127.845 6.99087V0.268317L125.837 0.286128L123.829 0.303938L123.791 7.01637C123.763 12.1615 123.734 13.7919 123.669 13.9988C123.621 14.1473 123.553 14.3748 123.515 14.5048C123.056 16.1089 122.012 17.1561 120.555 17.4722C119.168 17.7733 117.476 17.1342 116.745 16.0332C116.314 15.3831 116.062 14.7715 115.881 13.9316C115.833 13.7082 115.8 11.3434 115.784 6.93218L115.76 0.270341H113.768C112.138 0.270341 111.769 0.286937 111.74 0.363035ZM130.846 0.354535C130.828 0.401084 130.822 5.23535 130.832 11.0982L130.849 21.7572H132.84H134.831L134.849 17.3888L134.866 13.0208H135.472C137.28 13.0208 137.845 13.7964 139.325 18.3166C139.665 19.3556 139.968 20.2664 139.999 20.3404C140.029 20.4145 140.121 20.672 140.203 20.912C140.285 21.1524 140.394 21.4487 140.445 21.571L140.537 21.7928L142.713 21.775L144.889 21.7572L144.867 21.5548C144.856 21.4435 144.817 21.3237 144.783 21.2884C144.748 21.2532 144.72 21.169 144.72 21.1018C144.72 21.0346 144.691 20.927 144.655 20.8622C144.587 20.7383 144.312 19.9547 143.775 18.3502C142.345 14.081 141.805 12.8739 140.946 12.034L140.61 11.7045L141.124 11.3001C142.625 10.1214 143.274 8.63589 143.262 6.4092C143.246 3.34139 141.687 1.0297 139.212 0.406751C138.548 0.239173 130.908 0.191814 130.846 0.354535ZM6.86475 4.33715C8.69697 4.88521 8.84236 8.0866 7.0713 8.89454C6.77727 9.02852 6.642 9.04026 5.40067 9.04026H4.05V6.69052C4.05 5.39807 4.07025 4.32014 4.09495 4.29545C4.17879 4.21166 6.56546 4.24769 6.86475 4.33715ZM103.143 4.33593C104.898 4.94715 105.008 7.83038 103.306 8.62982C103.035 8.75692 102.884 8.77068 101.723 8.77068H100.44V6.5104V4.25052L101.672 4.25174C102.473 4.25214 102.987 4.28169 103.143 4.33593ZM137.815 4.39341C139.543 5.02567 139.613 8.13113 137.917 8.8824C137.583 9.03095 137.48 9.04026 136.213 9.04026H134.865V6.64559V4.25052H136.145C137.281 4.25052 137.469 4.26671 137.815 4.39341ZM39.3668 10.4023C39.2506 10.5185 39.2502 14.1056 39.366 14.2214C39.4219 14.2773 39.7653 14.3024 40.4741 14.3024C41.0391 14.3024 41.5494 14.321 41.6081 14.3433C41.7195 14.3862 41.7745 16.4299 41.6721 16.6974C41.6239 16.8221 40.9018 17.1917 40.4324 17.3313C40.2655 17.3807 40.0407 17.4483 39.933 17.4811C39.6588 17.5645 38.311 17.5556 37.9764 17.4677C37.8238 17.4281 37.5771 17.3637 37.4289 17.3253C36.7331 17.1455 35.3699 16.3801 35.3699 16.1692C35.3699 15.9126 31.8613 18.3469 31.8042 18.6432C31.7901 18.7169 31.9869 18.9707 32.3368 19.3289C34.0265 21.0593 36.4468 22.0608 38.9383 22.0608C39.7204 22.0608 40.6466 21.9122 41.6814 21.6204C43.1037 21.2196 44.4621 20.457 45.2903 19.5952L45.6986 19.1706L45.6812 14.763L45.6637 10.3558L42.5562 10.3384C40.195 10.325 39.4288 10.3404 39.3668 10.4023ZM103.802 12.8249C104.978 13.1006 105.635 13.9713 105.637 15.2605C105.639 16.3777 105.051 17.3892 104.294 17.571C103.438 17.7766 103.085 17.8106 101.807 17.8106H100.44V15.2807V12.7509H101.963C102.832 12.7509 103.621 12.7828 103.802 12.8249ZM56.9361 26.2433C56.8247 26.2717 56.6145 26.2984 56.4683 26.3028C56.3225 26.3073 56.1099 26.3393 55.9961 26.3737C55.8819 26.4085 55.6519 26.4728 55.485 26.5166C52.3264 27.3468 49.6571 30.2389 48.8349 33.7204C48.7762 33.9677 48.7142 34.2312 48.6968 34.3053C47.285 40.3243 50.4136 46.7801 55.2489 47.8261C55.4716 47.8743 55.7296 47.9398 55.8224 47.9722C56.6785 48.2709 59.1482 48.162 60.5811 47.7625C60.7297 47.7212 60.9201 47.6707 61.0039 47.6504C61.0882 47.6298 61.1736 47.5865 61.1939 47.5537C61.2141 47.5209 61.2773 47.4942 61.3344 47.4942C61.4725 47.4942 62.5332 46.9797 62.8884 46.7401C63.0435 46.6356 63.1901 46.5498 63.2136 46.5498C63.2375 46.5498 63.3914 46.4571 63.5558 46.3442L63.8551 46.1386V43.852C63.8551 41.6678 63.8252 41.3075 63.662 41.5322C63.6381 41.5646 63.5429 41.6346 63.4501 41.688C63.3574 41.7411 63.0536 41.9244 62.775 42.0952C59.8841 43.869 57.8486 44.1365 55.6539 43.0299C51.8481 41.1112 51.3941 34.4773 54.8852 31.7965C56.359 30.6651 58.4836 30.3627 60.4616 31.0031C60.9375 31.1573 62.2157 31.7366 62.3024 31.8374C62.3404 31.8815 62.5855 32.0256 62.8524 32.1604C62.9504 32.2097 63.0682 32.2956 63.1136 32.3502C63.3683 32.657 63.3825 32.5388 63.3825 30.0924V27.7345L63.163 27.5718C62.726 27.248 61.5487 26.7295 60.7836 26.5238C59.6484 26.2194 57.6145 26.0709 56.9361 26.2433ZM33.0751 37.1379V47.8338L35.0831 47.8156L37.0911 47.7977L37.1085 43.497L37.1259 39.1962L38.0874 39.197C39.2866 39.1978 39.5551 39.2966 40.0833 39.9309C40.4198 40.3349 41.0735 41.569 41.2663 42.1649C41.3562 42.4421 41.5109 42.868 41.6457 43.2104C41.6749 43.2845 41.7636 43.5577 41.843 43.8176C42.2176 45.0461 43.0195 47.4193 43.1479 47.68L43.2228 47.8317H45.4131H47.6033L47.5697 47.68C47.5385 47.5383 47.366 47.0279 47.2449 46.7186C47.1339 46.4341 46.8208 45.5217 46.4 44.2559C46.1595 43.5326 45.9347 42.8797 45.9007 42.8056C45.8662 42.7315 45.763 42.4413 45.6714 42.1608C45.2729 40.9424 44.5192 39.2371 44.2394 38.9214C44.1875 38.8627 44.145 38.7874 44.145 38.7542C44.145 38.721 43.9599 38.5073 43.7331 38.279L43.3216 37.8637L43.7837 37.4917C45.8731 35.8107 46.5531 32.9922 45.5645 30.1069C45.2101 29.0719 43.8777 27.2553 43.4731 27.2553C43.429 27.2553 43.3508 27.2132 43.299 27.1614C43.1657 27.0282 42.2354 26.6513 41.8248 26.5639C41.604 26.5174 39.9565 26.4817 37.277 26.4664L33.0751 26.4421V37.1379ZM71.4744 26.6303C71.4011 26.8173 71.2371 27.3435 70.8795 28.5372C70.7742 28.8898 70.5919 29.4969 70.4749 29.8863C70.3578 30.2761 70.1715 30.8983 70.0605 31.2695C69.9496 31.6406 69.8273 32.0353 69.7884 32.1466C69.7495 32.2579 69.6134 32.7048 69.4854 33.1399C69.3579 33.5751 69.2266 34.0001 69.1938 34.0847C69.161 34.1689 69.0962 34.3745 69.0505 34.5413C68.9168 35.0266 68.8609 35.2116 68.6471 35.8827C68.5357 36.2308 68.445 36.5575 68.445 36.6089C68.445 36.6603 68.4171 36.7546 68.383 36.8194C68.349 36.8837 68.2555 37.1642 68.1749 37.4423C67.9691 38.1511 67.925 38.2984 67.7804 38.7578C67.7103 38.9805 67.6152 39.299 67.5686 39.4662C67.5224 39.633 67.4596 39.8459 67.4293 39.9386C67.3989 40.0313 67.3078 40.3349 67.2264 40.6129C67.145 40.8914 67.0255 41.2861 66.9607 41.4901C66.8959 41.6941 66.8052 41.9977 66.759 42.1649C66.7124 42.3316 66.6508 42.5292 66.6217 42.6032C66.5925 42.6773 66.5034 42.9659 66.4236 43.244C66.1823 44.088 65.593 46.0252 65.2738 47.0234C65.2086 47.2278 65.1337 47.4938 65.1074 47.6136L65.0592 47.8317H67.149C69.498 47.8317 69.3166 47.8763 69.4798 47.2582C69.5389 47.0356 69.6519 46.6259 69.7313 46.3474C69.8107 46.0693 69.9305 45.6443 69.997 45.4031C70.2861 44.3571 70.4732 43.7536 70.5243 43.7026C70.5546 43.6723 72.1714 43.6557 74.1174 43.665L77.6555 43.6828L77.7167 43.8852C77.7503 43.9965 77.8029 44.1483 77.8333 44.2223C77.8637 44.2964 77.9532 44.585 78.0322 44.8631C78.1111 45.1416 78.2784 45.688 78.4039 46.0774C78.5295 46.4672 78.7045 47.0137 78.7923 47.2918L78.9523 47.7977L81.0389 47.8156C82.1862 47.8257 83.1599 47.82 83.2028 47.8038C83.266 47.7795 81.2762 41.5662 80.9976 40.9165C80.9656 40.8424 80.8728 40.5692 80.791 40.3094C80.7096 40.0499 80.6011 39.716 80.55 39.5674C80.499 39.4188 79.493 36.4134 78.3148 32.8886L76.1724 26.4797L73.8598 26.4619L71.5473 26.4441L71.4744 26.6303ZM84.8135 26.5975C84.7932 26.6813 84.7851 31.4852 84.7953 37.2735L84.8139 47.7977H88.9311C93.9102 47.7977 94.297 47.7459 96.0863 46.8376C97.0813 46.3325 98.8876 44.7388 98.8876 44.366C98.8876 44.3462 98.9711 44.1997 99.0731 44.0402C99.4036 43.5241 99.4251 43.4856 99.6211 43.0756C101.233 39.7026 101.151 34.33 99.436 31.0335C98.7001 29.6184 97.4462 28.228 96.3564 27.6188C95.4658 27.1209 94.902 26.8974 94.0276 26.6955C93.0569 26.4712 92.4988 26.4449 88.6796 26.4453L84.8499 26.4457L84.8135 26.5975ZM103.106 26.5975C103.086 26.6813 103.078 31.4852 103.088 37.2735L103.106 47.7977L109.03 47.8152L114.954 47.8322L114.937 45.8925L114.919 43.9524L111.021 43.935L107.122 43.9175L107.124 41.4391C107.125 38.838 107.13 38.7898 107.395 38.806C107.487 38.8117 109.103 38.8109 110.987 38.804L114.412 38.7914V36.8351V34.8789H110.808C107.584 34.8789 107.2 34.8675 107.163 34.772C107.141 34.7133 107.122 33.7115 107.122 32.5457V30.4263H110.863C112.92 30.4263 114.652 30.4077 114.711 30.3854C114.82 30.3433 114.881 26.8238 114.777 26.5526C114.74 26.4562 114.163 26.4457 108.939 26.4457H103.143L103.106 26.5975ZM118.395 37.1387V47.8338L120.369 47.816L122.344 47.7977L122.378 41.0614C122.409 34.8113 122.419 34.334 122.522 34.4498C122.583 34.519 122.908 35.0003 123.246 35.5196C123.907 36.5397 125.041 38.2814 125.75 39.367C125.993 39.7394 126.234 40.1264 126.287 40.2272C126.34 40.328 126.408 40.4106 126.439 40.4106C126.47 40.4106 126.495 40.4401 126.495 40.4761C126.495 40.5364 127.486 42.0969 127.641 42.2798C127.679 42.3247 127.71 42.3766 127.71 42.3948C127.71 42.413 128.054 42.953 128.475 43.5949C128.895 44.2369 129.373 44.974 129.538 45.2335C129.702 45.4925 130.102 46.1082 130.427 46.6008C130.752 47.0938 131.018 47.5128 131.018 47.5322C131.018 47.8042 131.222 47.8346 132.947 47.816L134.629 47.7977L134.647 37.2735C134.657 31.4852 134.649 26.6813 134.629 26.5975L134.592 26.4457H132.602H130.613V32.8509C130.613 36.3737 130.587 39.2719 130.555 39.2913C130.51 39.3193 129.439 37.788 129.338 37.5492C129.323 37.5152 128.89 36.8546 128.376 36.0815C127.861 35.3079 127.44 34.6583 127.44 34.6372C127.44 34.6162 127.402 34.5583 127.355 34.5085C127.309 34.4587 127.18 34.264 127.069 34.0762C126.957 33.888 126.844 33.7337 126.816 33.7329C126.788 33.7325 126.765 33.7001 126.765 33.6617C126.765 33.6232 126.507 33.2104 126.191 32.7441C125.876 32.2778 125.618 31.8839 125.618 31.8693C125.618 31.8548 125.101 31.0679 124.47 30.1207C123.839 29.1735 123.321 28.3769 123.319 28.3498C123.317 28.3231 123.036 27.8912 122.695 27.3905L122.074 26.4797L120.234 26.4615L118.395 26.4437V37.1387ZM23.5953 27.6434C23.0895 28.436 22.4115 29.6325 21.934 30.5753L21.5055 31.4216L21.5954 31.7167C21.6452 31.8786 21.7161 32.1179 21.7534 32.2478C21.7906 32.3773 21.8453 32.5445 21.8745 32.6186C21.9036 32.6931 21.987 32.9509 22.0599 33.1921C22.1324 33.4334 22.3155 34.0252 22.4666 34.5077C23.6301 38.2264 23.9618 39.3027 24.0303 39.5844L24.0833 39.8034H21.3986C19.3319 39.8034 18.6984 39.8228 18.6462 39.888C18.515 40.0515 17.9192 43.4379 18.0067 43.5253C18.0371 43.5557 19.7004 43.5881 21.7031 43.5978C25.2854 43.6148 25.3449 43.6172 25.3656 43.75C25.3773 43.8244 25.4117 43.9459 25.4417 44.02C25.4717 44.094 25.528 44.2612 25.5664 44.3911C25.6685 44.7344 26.0524 45.9831 26.1889 46.415C26.2533 46.619 26.3764 47.006 26.4619 47.2752L26.6178 47.7642H28.7647H30.9116L30.8707 47.5448C30.848 47.4241 30.8035 47.2966 30.7711 47.2614C30.7387 47.2262 30.7124 47.1295 30.7124 47.0465C30.7124 46.9631 30.682 46.8765 30.6451 46.8534C30.6079 46.8303 30.5775 46.7393 30.5775 46.651C30.5775 46.5628 30.5471 46.4717 30.5099 46.4486C30.473 46.4256 30.4426 46.3345 30.4426 46.2462C30.4426 46.158 30.4123 46.0669 30.375 46.0438C30.3377 46.0208 30.3074 45.9297 30.3074 45.8415C30.3074 45.7532 30.277 45.6621 30.2401 45.6391C30.2029 45.616 30.1725 45.5249 30.1725 45.4367C30.1725 45.3484 30.1421 45.2574 30.1049 45.2343C30.068 45.2112 30.0376 45.1201 30.0376 45.0319C30.0376 44.9437 30.0073 44.8526 29.97 44.8295C29.9327 44.8064 29.9024 44.7154 29.9024 44.6271C29.9024 44.5389 29.872 44.4478 29.8351 44.4247C29.7979 44.4017 29.7675 44.3106 29.7675 44.2223C29.7675 44.1341 29.7371 44.043 29.6999 44.02C29.663 43.9969 29.6326 43.9058 29.6326 43.8176C29.6326 43.7293 29.6023 43.6383 29.565 43.6152C29.5277 43.5921 29.4974 43.501 29.4974 43.4128C29.4974 43.3245 29.467 43.2335 29.4301 43.2104C29.3929 43.1873 29.3625 43.0963 29.3625 43.008C29.3625 42.9198 29.3321 42.8287 29.2949 42.8056C29.258 42.7826 29.2276 42.6915 29.2276 42.6032C29.2276 42.515 29.1973 42.4239 29.16 42.4008C29.1227 42.3778 29.0924 42.2996 29.0924 42.2272C29.0924 42.1547 29.0656 42.0426 29.0328 41.9783C29 41.9139 27.8713 38.5445 26.5243 34.4907C25.1768 30.4372 24.042 27.1205 24.0019 27.1205C23.9614 27.1209 23.7788 27.3561 23.5953 27.6434ZM40.6385 30.602C41.7984 31.1383 42.2192 32.757 41.5562 34.1308C41.1184 35.0375 40.7264 35.1824 38.7111 35.1824H37.1587L37.1409 32.7999L37.1231 30.4174L38.7273 30.4384C40.1898 30.4579 40.3582 30.4724 40.6385 30.602ZM93.0488 30.6518C94.9527 31.3144 96.0283 32.7683 96.4998 35.3172C96.6362 36.056 96.6569 38.2114 96.533 38.8254C96.0692 41.1302 95.3479 42.4089 94.0612 43.2096C93.1046 43.805 92.438 43.9309 90.3826 43.9046L88.8639 43.8852L88.8465 37.1501L88.8295 30.415L90.669 30.4397C92.4765 30.4635 92.5182 30.4676 93.0488 30.6518ZM74.1429 32.4502C74.2337 32.7283 74.4487 33.4115 74.6208 33.9681C74.7934 34.5247 75.0198 35.2533 75.1247 35.5872C75.2292 35.9212 75.4422 36.604 75.5981 37.1051C75.7536 37.6058 76.0003 38.3879 76.1457 38.8424C76.2911 39.297 76.4101 39.7143 76.4101 39.7702C76.4101 39.8576 76.0955 39.871 74.0061 39.871H71.6024L71.638 39.6856C71.6712 39.5148 71.7012 39.4035 71.8839 38.7748C71.9859 38.4231 72.0774 38.1005 72.1475 37.8471C72.2131 37.6103 72.4513 36.7761 72.5618 36.3968C72.5942 36.2855 72.6858 35.9515 72.7651 35.6544C72.8445 35.3577 72.9361 35.0238 72.9684 34.9125C73.0539 34.6186 73.3078 33.7317 73.3738 33.4957C73.9202 31.5447 73.87 31.6127 74.1429 32.4502Z" fill="white"/>
<path fill-rule="evenodd" clip-rule="evenodd" d="M48.7004 11.0304C48.7004 16.93 48.7085 19.3336 48.7183 16.3714C48.728 13.4097 48.728 8.58267 48.7183 5.6448C48.7085 2.70732 48.7004 5.13073 48.7004 11.0304ZM35.5724 15.6541C35.331 15.7614 35.0977 15.8367 35.0536 15.8217C35.0098 15.8063 34.9641 15.8193 34.9523 15.8501C34.941 15.8808 34.5518 16.0788 34.0876 16.2901C32.9876 16.7912 31.1323 17.7473 30.7516 18.0091C30.5868 18.1225 30.4386 18.2152 30.422 18.2152C30.3527 18.2152 29.3301 18.8596 28.4512 19.4566L27.5064 20.099L27.4699 18.9717L27.4339 17.844L27.4181 19.0247L27.4023 20.2055L27.1241 20.4022C26.7976 20.6329 25.4907 21.6562 25.242 21.8756C25.1477 21.9586 24.8135 22.2528 24.4997 22.5293C23.8014 23.1438 21.8894 25.049 21.4156 25.6024C21.2248 25.825 21.0029 26.0832 20.9219 26.1759C20.8409 26.2686 20.6643 26.4811 20.5294 26.6479C20.3942 26.8151 20.2674 26.9669 20.2476 26.9855C20.0285 27.1899 18.3509 29.5413 17.8892 30.2909C17.7637 30.4949 17.5389 30.8592 17.3903 31.1005C16.0927 33.2053 14.3528 37.164 13.6991 39.4996C13.525 40.1222 13.3083 40.9103 13.1933 41.3381C13.1362 41.5514 13.0572 41.8777 13.0179 42.0635C12.9786 42.2489 12.9227 42.5071 12.894 42.6366C12.7178 43.4268 12.5137 44.5027 12.4193 45.1329C12.378 45.4114 12.3173 45.8056 12.2845 46.0101C12.2521 46.2141 12.1937 46.6844 12.1549 47.0556C12.1164 47.4268 12.0504 48.0242 12.0078 48.3841C11.8568 49.6697 12.1127 50.2558 12.9369 50.5116C13.6477 50.7318 13.936 50.7998 14.162 50.7998C14.2762 50.7998 14.3884 50.8302 14.4111 50.8674C14.4366 50.9079 14.9133 50.9346 15.6152 50.9346H16.7775L17.023 50.697L17.268 50.459L17.3024 49.1285C17.3352 47.8716 17.3895 47.1868 17.5495 46.0101C17.6815 45.0382 17.8508 44.074 17.948 43.738C17.9824 43.6203 17.997 43.511 17.9812 43.4952C17.916 43.43 18.5417 40.01 18.6373 39.908C18.6705 39.8728 18.6976 39.7765 18.6976 39.6939C18.6976 39.3596 19.2387 37.3389 19.7344 35.823C20.0418 34.8823 20.348 34.0691 20.5278 33.7157C20.5606 33.6514 20.5874 33.5684 20.5874 33.532C20.5874 33.4951 20.6785 33.2664 20.7899 33.0232C20.9012 32.7803 20.9924 32.5613 20.9924 32.537C20.9924 32.2241 23.4629 27.7036 23.9643 27.0988C24.0007 27.0551 24.1898 26.7754 24.3846 26.4775C24.8399 25.7809 26.1638 24.0233 26.3906 23.8145C26.4105 23.7963 26.5939 23.5846 26.798 23.3445C27.5801 22.4237 29.4411 20.5511 30.3414 19.7788C30.601 19.5558 30.993 19.219 31.2125 19.0304C31.4316 18.8418 31.6487 18.6876 31.6945 18.6876C31.7407 18.6876 31.7941 18.6459 31.8136 18.5953C31.8666 18.4568 33.5461 17.2194 34.6777 16.4852C35.2257 16.1298 35.7562 15.7817 35.8567 15.7116C35.9571 15.6416 36.0713 15.5841 36.1098 15.5841C36.1483 15.5841 36.1799 15.5538 36.1799 15.5165C36.1799 15.4125 36.049 15.442 35.5724 15.6541ZM109.266 38.8419C110.203 38.8524 111.737 38.8524 112.674 38.8419C113.612 38.8313 112.845 38.8228 110.97 38.8228C109.095 38.8228 108.328 38.8313 109.266 38.8419ZM58.337 48.1477C58.4018 48.1647 58.5083 48.1647 58.5731 48.1477C58.6379 48.1307 58.5849 48.1169 58.4549 48.1169C58.3249 48.1169 58.2718 48.1307 58.337 48.1477Z" fill="#FB0505"/>
</g>
<defs>
<clipPath id="clip0_297_1840">
<rect width="162" height="51" fill="white"/>
</clipPath>
</defs>
</svg>
