<svg width="53" height="65" viewBox="0 0 53 65" fill="none" xmlns="http://www.w3.org/2000/svg">
<path d="M0.614563 0.627197H50.3773V13.8067H15.9747V18.9508H50.3773V32.1303H15.9747V37.2666H50.3773V50.4461H0.614563V0.627197Z" fill="white"/>
<path fill-rule="evenodd" clip-rule="evenodd" d="M16.3147 55.5417H11.0897V64.3805H16.3147C18.7462 64.3726 20.7137 62.3795 20.7056 59.9454C20.6977 57.5269 18.7383 55.5496 16.3147 55.5417ZM15.9495 57.8811H13.8091V62.0484H15.9495C17.0984 62.0484 18.0348 61.1108 18.0348 59.9607C18.0348 58.8107 17.0983 57.8811 15.9495 57.8811Z" fill="white"/>
<path d="M32.3218 55.5417H35.0446V58.9135L38.1212 55.5417H41.7015L38.2314 59.3073L41.9928 64.3805H38.5304L36.3193 61.3712L35.0445 62.6946V64.3805H32.3218V55.5417Z" fill="white"/>
<path fill-rule="evenodd" clip-rule="evenodd" d="M49.2825 55.5417H45.2143L42.1845 64.3805H44.9072L45.5053 62.5608H49.007L49.5735 64.3805H52.3198L49.2825 55.5417ZM48.2867 60.4887H46.2014L47.2401 57.4951L48.2867 60.4887Z" fill="white"/>
<path d="M0.594421 55.5337H9.42334V57.8339H3.31716V58.8108H9.42334V61.111H3.31716V62.08H9.42334V64.3802H0.594421V55.5337Z" fill="white"/>
<path d="M21.8871 55.5337H30.7238V57.8339H24.6177V58.8108H30.7238V61.111H24.6177V62.08H30.7238V64.3802H21.8871V55.5337Z" fill="white"/>
</svg>
