<svg width="229" height="70" viewBox="0 0 229 70" fill="none" xmlns="http://www.w3.org/2000/svg">
<g clip-path="url(#clip0_297_1846)">
<path d="M172.245 55.2458H186.438L186.981 57.341H172.665L172.245 55.2458ZM155.227 55.2458H170.998L168.354 57.341H152.64L155.227 55.2458Z" fill="white"/>
<path opacity="0.7" d="M173.024 59.1233H187.444L187.988 61.2164H173.444L173.024 59.1233ZM150.441 59.1233H166.107L163.461 61.2164H147.855L150.441 59.1233Z" fill="white"/>
<path opacity="0.4" d="M173.802 62.9966H188.448L188.994 65.0917H174.223L173.802 62.9966ZM145.656 62.9966H161.214L158.568 65.0917H143.071L145.656 62.9966Z" fill="white"/>
<path opacity="0.1" d="M174.581 66.8735H189.454L189.998 68.9667H175.001L174.581 66.8735ZM140.87 66.8735H156.319L153.673 68.9667H138.284L140.87 66.8735Z" fill="white"/>
<path opacity="0.1" d="M213.376 0.988037H228.175L226.011 3.08116H211.32L213.376 0.988037Z" fill="white"/>
<path opacity="0.3" d="M209.57 4.86255H224.17L222.005 6.95701H207.516L209.57 4.86255Z" fill="white"/>
<path opacity="0.4" d="M205.767 8.74072H220.164L217.999 10.8338H203.711L205.767 8.74072Z" fill="white"/>
<path opacity="0.5" d="M201.963 12.615H216.158L213.994 14.7088H199.909L201.963 12.615Z" fill="white"/>
<path opacity="0.6" d="M198.161 16.4902H212.155L209.99 18.584H196.105L198.161 16.4902Z" fill="white"/>
<path opacity="0.7" d="M194.358 20.3667H208.147L205.984 22.4612H192.3L194.358 20.3667ZM162.788 20.3667H178.167L178.534 22.4612H163.322L162.788 20.3667Z" fill="white"/>
<path opacity="0.7" d="M190.553 24.2427H204.142L201.978 26.3365H188.498L190.553 24.2427ZM163.775 24.2427H178.847L179.214 26.3365H164.308L163.775 24.2427Z" fill="white"/>
<path opacity="0.8" d="M186.75 28.1179H200.138L197.971 30.2124H184.695L186.75 28.1179ZM164.762 28.1179H179.525L179.892 30.2124H165.295L164.762 28.1179Z" fill="white"/>
<path d="M182.948 31.9934H196.131L193.968 34.0869H180.892L182.948 31.9934ZM165.746 31.9934H180.204L180.571 34.0869H166.279L165.746 31.9934Z" fill="white"/>
<path d="M166.734 35.8691H192.127L189.963 37.9623H167.265L166.734 35.8691Z" fill="white"/>
<path d="M167.72 39.7446H188.123L185.959 41.8381H168.252L167.72 39.7446Z" fill="white"/>
<path d="M168.706 43.6213H184.117L183.562 44.1592L183.965 45.7148H167L168.856 44.2108L168.706 43.6213Z" fill="white"/>
<path d="M164.799 47.4966H184.427L184.971 49.59H162.213L164.799 47.4966Z" fill="white"/>
<path d="M160.013 51.3726H185.434L185.976 53.4667H157.427L160.013 51.3726Z" fill="white"/>
<path d="M14.4095 50.1758C9.44107 50.1758 8.80029 46.9018 9.6387 42.5993C10.664 37.3143 14.6524 29.6913 21.3225 29.6913C22.3263 29.6913 29.6312 29.6776 30.3818 29.7412L33.4373 22.5218C32.1635 22.5067 24.306 22.5348 22.8549 22.5348C11.408 22.5348 2.99174 31.5145 0.900581 42.2708C-1.50812 54.6654 6.44318 57.3312 11.7888 57.3312C11.9617 57.3312 19.2809 57.3269 19.45 57.3249L22.5032 50.1135C22.192 50.1496 14.7278 50.1758 14.4095 50.1758Z" fill="white"/>
<path d="M32.7607 32.0145L22.042 57.3313H28.9344L39.8813 31.9834L32.7607 32.0145Z" fill="white"/>
<path d="M168.745 31.9896H160.869L153.741 39.3316L152.455 31.9896H144.461L147.63 44.4469L135.732 54.0816L136.744 31.9896H129.726L111.719 53.816L117.825 31.9896H111.354L98.0077 47.8886L96.8845 31.9896H90.7149L81.4981 52.0816C81.0885 52.1077 71.0162 52.1258 70.7868 52.1258C67.4167 52.1258 66.7853 50.0524 67.2097 47.2336C71.313 47.2336 78.2869 47.2352 78.2869 47.2352L80.4912 42.0664C79.8491 42.0587 73.2638 42.0664 68.9904 42.0728C70.4471 39.4572 72.7369 37.2214 75.8169 37.2214C76.5464 37.2214 85.3773 37.2124 85.9223 37.2583L88.4141 32.006C87.4862 31.996 77.9874 32.0151 76.9316 32.0151C72.1115 32.0151 68.0374 34.2117 65.1591 37.5724L67.538 31.9943L61.0414 31.9478L54.3318 47.6043H54.2863L48.8281 31.9478L42.3017 31.9605L31.3277 57.2772H37.8568L44.6397 41.6843L44.6853 41.8233L50.3103 57.3097L56.7465 57.299L60.7165 47.9921C59.9273 55.6282 65.2355 57.3311 68.8815 57.3311C69.0051 57.3311 79.1681 57.3281 79.2931 57.3268L79.3001 57.308H85.6222L91.9378 43.2617H92.1683L93.2274 57.3067H96.7713L108.731 43.2161L108.869 43.3246L104.333 57.3067H108.84H110.743H115.91L119.765 52.9181L128.81 52.9121H128.816L128.515 57.3067H131.75H135.584H139.745L149.302 49.7376L150.824 57.3067H158.615L155.27 44.4191L168.745 31.9896ZM129.226 48.1087H123.583L129.875 40.0128L129.226 48.1087Z" fill="white"/>
<path d="M14.4095 50.1758C9.44107 50.1758 8.80029 46.9018 9.6387 42.5993C10.664 37.3143 14.6524 29.6913 21.3225 29.6913C22.3263 29.6913 29.6312 29.6776 30.3818 29.7412L33.4373 22.5218C32.1635 22.5067 24.306 22.5348 22.8549 22.5348C11.408 22.5348 2.99174 31.5145 0.900581 42.2708C-1.50812 54.6654 6.44318 57.3312 11.7888 57.3312C11.9617 57.3312 19.2809 57.3269 19.45 57.3249L22.5032 50.1135C22.192 50.1496 14.7278 50.1758 14.4095 50.1758Z" fill="white"/>
<path d="M32.7607 32.0145L22.042 57.3313H28.9344L39.8813 31.9834L32.7607 32.0145Z" fill="white"/>
<path d="M168.745 31.9896H160.869L153.741 39.3316L152.455 31.9896H144.461L147.63 44.4469L135.732 54.0816L136.744 31.9896H129.726L111.719 53.816L117.825 31.9896H111.354L98.0077 47.8886L96.8845 31.9896H90.7149L81.4981 52.0816C81.0885 52.1077 71.0162 52.1258 70.7868 52.1258C67.4167 52.1258 66.7853 50.0524 67.2097 47.2336C71.313 47.2336 78.2869 47.2352 78.2869 47.2352L80.4912 42.0664C79.8491 42.0587 73.2638 42.0664 68.9904 42.0728C70.4471 39.4572 72.7369 37.2214 75.8169 37.2214C76.5464 37.2214 85.3773 37.2124 85.9223 37.2583L88.4141 32.006C87.4862 31.996 77.9874 32.0151 76.9316 32.0151C72.1115 32.0151 68.0374 34.2117 65.1591 37.5724L67.538 31.9943L61.0414 31.9478L54.3318 47.6043H54.2863L48.8281 31.9478L42.3017 31.9605L31.3277 57.2772H37.8568L44.6397 41.6843L44.6853 41.8233L50.3103 57.3097L56.7465 57.299L60.7165 47.9921C59.9273 55.6282 65.2355 57.3311 68.8815 57.3311C69.0051 57.3311 79.1681 57.3281 79.2931 57.3268L79.3001 57.308H85.6222L91.9378 43.2617H92.1683L93.2274 57.3067H96.7713L108.731 43.2161L108.869 43.3246L104.333 57.3067H108.84H110.743H115.91L119.765 52.9181L128.81 52.9121H128.816L128.515 57.3067H131.75H135.584H139.745L149.302 49.7376L150.824 57.3067H158.615L155.27 44.4191L168.745 31.9896ZM129.226 48.1087H123.583L129.875 40.0128L129.226 48.1087Z" fill="white"/>
<mask id="mask0_297_1846" style="mask-type:alpha" maskUnits="userSpaceOnUse" x="-88" y="-156" width="237" height="300">
<path d="M76.7862 -155.878L148.413 96.7223L-16.0176 143.329L-87.6389 -109.274L76.7862 -155.878Z" fill="url(#paint0_radial_297_1846)"/>
</mask>
<g mask="url(#mask0_297_1846)">
<g opacity="0.3">
<path d="M14.4095 50.1758C9.44107 50.1758 8.80029 46.9018 9.6387 42.5993C10.664 37.3143 14.6524 29.6913 21.3225 29.6913C22.3263 29.6913 29.6312 29.6776 30.3818 29.7412L33.4373 22.5218C32.1635 22.5067 24.306 22.5348 22.8549 22.5348C11.408 22.5348 2.99174 31.5145 0.900581 42.2708C-1.50812 54.6654 6.44318 57.3312 11.7888 57.3312C11.9617 57.3312 19.2809 57.3269 19.45 57.3249L22.5032 50.1135C22.192 50.1496 14.7278 50.1758 14.4095 50.1758Z" fill="white"/>
<path d="M32.7607 32.0145L22.042 57.3313H28.9344L39.8813 31.9834L32.7607 32.0145Z" fill="white"/>
<path d="M168.745 31.9896H160.869L153.741 39.3316L152.455 31.9896H144.461L147.63 44.4469L135.732 54.0816L136.744 31.9896H129.726L111.719 53.816L117.825 31.9896H111.354L98.0077 47.8886L96.8845 31.9896H90.7149L81.4981 52.0816C81.0885 52.1077 71.0162 52.1258 70.7868 52.1258C67.4167 52.1258 66.7853 50.0524 67.2097 47.2336C71.313 47.2336 78.2869 47.2352 78.2869 47.2352L80.4912 42.0664C79.8491 42.0587 73.2638 42.0664 68.9904 42.0728C70.4471 39.4572 72.7369 37.2214 75.8169 37.2214C76.5464 37.2214 85.3773 37.2124 85.9223 37.2583L88.4141 32.006C87.4862 31.996 77.9874 32.0151 76.9316 32.0151C72.1115 32.0151 68.0374 34.2117 65.1591 37.5724L67.538 31.9943L61.0414 31.9478L54.3318 47.6043H54.2863L48.8281 31.9478L42.3017 31.9605L31.3277 57.2772H37.8568L44.6397 41.6843L44.6853 41.8233L50.3103 57.3097L56.7465 57.299L60.7165 47.9921C59.9273 55.6282 65.2355 57.3311 68.8815 57.3311C69.0051 57.3311 79.1681 57.3281 79.2931 57.3268L79.3001 57.308H85.6222L91.9378 43.2617H92.1683L93.2274 57.3067H96.7713L108.731 43.2161L108.869 43.3246L104.333 57.3067H108.84H110.743H115.91L119.765 52.9181L128.81 52.9121H128.816L128.515 57.3067H131.75H135.584H139.745L149.302 49.7376L150.824 57.3067H158.615L155.27 44.4191L168.745 31.9896ZM129.226 48.1087H123.583L129.875 40.0128L129.226 48.1087Z" fill="white"/>
<path d="M14.4095 50.1758C9.44107 50.1758 8.80029 46.9018 9.6387 42.5993C10.664 37.3143 14.6524 29.6913 21.3225 29.6913C22.3263 29.6913 29.6312 29.6776 30.3818 29.7412L33.4373 22.5218C32.1635 22.5067 24.306 22.5348 22.8549 22.5348C11.408 22.5348 2.99174 31.5145 0.900581 42.2708C-1.50812 54.6654 6.44318 57.3312 11.7888 57.3312C11.9617 57.3312 19.2809 57.3269 19.45 57.3249L22.5032 50.1135C22.192 50.1496 14.7278 50.1758 14.4095 50.1758Z" fill="white"/>
<path d="M32.7607 32.0145L22.042 57.3313H28.9344L39.8813 31.9834L32.7607 32.0145Z" fill="white"/>
<path d="M168.745 31.9896H160.869L153.741 39.3316L152.455 31.9896H144.461L147.63 44.4469L135.732 54.0816L136.744 31.9896H129.726L111.719 53.816L117.825 31.9896H111.354L98.0077 47.8886L96.8845 31.9896H90.7149L81.4981 52.0816C81.0885 52.1077 71.0162 52.1258 70.7868 52.1258C67.4167 52.1258 66.7853 50.0524 67.2097 47.2336C71.313 47.2336 78.2869 47.2352 78.2869 47.2352L80.4912 42.0664C79.8491 42.0587 73.2638 42.0664 68.9904 42.0728C70.4471 39.4572 72.7369 37.2214 75.8169 37.2214C76.5464 37.2214 85.3773 37.2124 85.9223 37.2583L88.4141 32.006C87.4862 31.996 77.9874 32.0151 76.9316 32.0151C72.1115 32.0151 68.0374 34.2117 65.1591 37.5724L67.538 31.9943L61.0414 31.9478L54.3318 47.6043H54.2863L48.8281 31.9478L42.3017 31.9605L31.3277 57.2772H37.8568L44.6397 41.6843L44.6853 41.8233L50.3103 57.3097L56.7465 57.299L60.7165 47.9921C59.9273 55.6282 65.2355 57.3311 68.8815 57.3311C69.0051 57.3311 79.1681 57.3281 79.2931 57.3268L79.3001 57.308H85.6222L91.9378 43.2617H92.1683L93.2274 57.3067H96.7713L108.731 43.2161L108.869 43.3246L104.333 57.3067H108.84H110.743H115.91L119.765 52.9181L128.81 52.9121H128.816L128.515 57.3067H131.75H135.584H139.745L149.302 49.7376L150.824 57.3067H158.615L155.27 44.4191L168.745 31.9896ZM129.226 48.1087H123.583L129.875 40.0128L129.226 48.1087Z" fill="white"/>
</g>
</g>
<mask id="mask1_297_1846" style="mask-type:alpha" maskUnits="userSpaceOnUse" x="-164" y="-167" width="527" height="347">
<path d="M362.228 45.6312L-102.701 179.444L-163.87 -33.0096L301.058 -166.822L362.228 45.6312Z" fill="url(#paint1_radial_297_1846)"/>
</mask>
<g mask="url(#mask1_297_1846)">
<path d="M172.245 54.2458L172.665 56.341H186.981L186.438 54.2458H172.245Z" fill="white"/>
<path d="M182.948 30.9934L180.892 33.0869H193.968L196.131 30.9934H182.948Z" fill="white"/>
<path d="M167.265 36.9623H189.963L192.127 34.8691H166.734L167.265 36.9623Z" fill="white"/>
<path d="M168.252 40.8381H185.959L188.123 38.7446H167.72L168.252 40.8381Z" fill="white"/>
<path d="M183.965 44.7148L183.562 43.1592L184.117 42.6213H168.706L168.856 43.2108L167 44.7148H183.965Z" fill="white"/>
<path d="M162.213 48.59H184.971L184.427 46.4966H164.799L162.213 48.59Z" fill="white"/>
<path d="M14.4095 49.1758C9.44107 49.1758 8.80029 45.9018 9.6387 41.5993C10.664 36.3143 14.6524 28.6913 21.3225 28.6913C22.3263 28.6913 29.6312 28.6776 30.3818 28.7412L33.4373 21.5218C32.1635 21.5067 24.306 21.5348 22.8549 21.5348C11.408 21.5348 2.99174 30.5145 0.900581 41.2708C-1.50812 53.6654 6.44318 56.3312 11.7888 56.3312C11.9617 56.3312 19.2809 56.3269 19.45 56.3249L22.5032 49.1135C22.192 49.1496 14.7278 49.1758 14.4095 49.1758Z" fill="white"/>
<path d="M32.7607 31.0145L22.042 56.3313H28.9344L39.8813 30.9834L32.7607 31.0145Z" fill="white"/>
<path d="M157.618 52.4668H185.976L185.434 50.3723H160.013L157.585 52.3395L155.269 43.4192L166.47 33.0865H180.571L180.204 30.9931H168.741L168.745 30.9894H160.869L153.741 38.3314L152.455 30.9894H144.461L147.63 43.4466L135.732 53.0813L136.744 30.9894H129.726L111.719 52.8158L117.825 30.9894H111.354L98.0077 46.8884L96.8845 30.9894H90.7149L81.4981 51.0813C81.0885 51.1074 71.0162 51.1255 70.7868 51.1255C67.4167 51.1255 66.7853 49.0522 67.2097 46.2333C71.313 46.2333 78.2869 46.235 78.2869 46.235L80.4912 41.0662C79.8491 41.0585 73.2638 41.0662 68.9904 41.0725C70.4471 38.457 72.7369 36.2212 75.8169 36.2212C76.5464 36.2212 85.3773 36.2121 85.9223 36.258L88.4141 31.0058C87.4862 30.9957 77.9874 31.0148 76.9316 31.0148C72.1115 31.0148 68.0374 33.2114 65.1591 36.5721L67.538 30.9941L61.0414 30.9475L54.3318 46.6041H54.2863L48.8281 30.9475L42.3017 30.9602L31.3277 56.2769H37.8568L44.6397 40.684L44.6853 40.823L50.3103 56.3094L56.7465 56.2987L60.7165 46.9919C59.9273 54.6279 65.2355 56.3309 68.8815 56.3309C69.0051 56.3309 79.1681 56.3279 79.2931 56.3265L79.3001 56.3078H85.6222L91.9378 42.2614H92.1683L93.2274 56.3064H96.7713L108.731 42.2159L108.869 42.3244L104.333 56.3064H115.91L119.765 51.9179L128.81 51.9119H128.816L128.515 56.3064H139.745L149.302 48.7374L150.824 56.3406H168.355L170.999 54.2455H158.081L157.618 52.4668ZM129.226 47.1087H123.583L129.875 39.0129L129.226 47.1087Z" fill="white"/>
</g>
</g>
<defs>
<radialGradient id="paint0_radial_297_1846" cx="0" cy="0" r="1" gradientUnits="userSpaceOnUse" gradientTransform="translate(30.3848 -6.27496) rotate(-105.834) scale(94.4434 328.379)">
<stop offset="0.0798" stop-color="white"/>
<stop offset="0.3804" stop-color="white"/>
<stop offset="0.4139" stop-color="#E9E7E7"/>
<stop offset="0.4789" stop-color="#B4AEAD"/>
<stop offset="0.569" stop-color="#6B6260"/>
<stop offset="0.6796" stop-color="#1F1916"/>
<stop offset="0.7301"/>
</radialGradient>
<radialGradient id="paint1_radial_297_1846" cx="0" cy="0" r="1" gradientUnits="userSpaceOnUse" gradientTransform="translate(99.1786 6.31064) rotate(-16.0562) scale(241.91 110.543)">
<stop offset="0.2699"/>
<stop offset="0.3204" stop-color="#1F1916"/>
<stop offset="0.431" stop-color="#6B6260"/>
<stop offset="0.5211" stop-color="#B4AEAD"/>
<stop offset="0.5861" stop-color="#E9E7E7"/>
<stop offset="0.6196" stop-color="white"/>
<stop offset="0.9202" stop-color="white"/>
</radialGradient>
<clipPath id="clip0_297_1846">
<rect width="229" height="70" fill="white"/>
</clipPath>
</defs>
</svg>
