<svg width="231" height="34" viewBox="0 0 231 34" fill="none" xmlns="http://www.w3.org/2000/svg">
<path d="M0.223633 0.755859V25.9514H6.08899V18.6254C6.08899 17.5799 7.14048 17.5776 7.14048 17.5776H12.1761C13.6173 17.5776 14.7802 16.4082 14.7802 14.9624V3.37111C14.7802 1.92523 13.6173 0.755859 12.1761 0.755859H0.223633ZM75.7668 0.755859C74.3921 0.755859 73.2777 1.87507 73.2777 3.25561V23.6579C73.2777 25.0366 74.3921 26.1576 75.7668 26.1576H84.688C86.0627 26.1576 87.1771 25.0366 87.1771 23.6579V16.5216H81.8868V22.3049C81.8868 22.705 81.5576 23.0391 81.1557 23.0391H79.6031C79.2014 23.0391 78.8802 22.705 78.8802 22.3049V4.81486C78.8802 4.41296 79.2014 4.08886 79.6031 4.08886H81.1557C81.5576 4.08886 81.8868 4.41296 81.8868 4.81486V9.88861H87.1771V3.25561C87.1771 1.87507 86.0627 0.755859 84.688 0.755859H75.7668ZM47.4669 2.74411V25.9596H52.7982V19.1121H54.6219C55.6353 19.1121 55.7063 20.0031 55.7063 20.0031V25.9596H61.0459V18.4191C61.0459 18.4191 61.0418 16.3814 58.4993 16.3814H57.0453L60.7502 8.69236H56.0102L52.7982 15.3171V2.74411H47.4669ZM89.2637 2.74411V25.9596H94.5951V2.74411H89.2637ZM175.724 3.14011V25.9596H181.056V24.7634C181.056 24.7634 181.998 25.9596 183.43 25.9596H186.592C187.901 25.9596 188.958 24.8923 188.958 23.5754V11.0766C188.958 9.76141 187.901 8.69236 186.592 8.69236H183.035C181.504 8.69236 181.056 9.54211 181.056 9.54211V3.14011H175.724ZM6.61473 4.06411H8.21662C8.38091 4.06411 8.51235 4.20436 8.51235 4.36936V14.2199C8.51235 14.3849 8.38091 14.5251 8.21662 14.5251H6.61473C6.45044 14.5251 6.319 14.3849 6.319 14.2199V4.36936C6.319 4.20436 6.45044 4.06411 6.61473 4.06411ZM216.453 8.29636C214.379 8.29636 212.403 11.8686 212.403 11.8686V8.69236H207.072V25.9596H212.403V15.1439C212.403 14.7617 212.713 14.4509 213.093 14.4509C215.338 13.6324 216.453 14.1539 216.453 14.1539V8.29636ZM18.3454 8.69236C17.0344 8.69236 15.9714 9.76141 15.9714 11.0766V23.5754C15.9714 24.8923 17.0344 25.9596 18.3454 25.9596H27.0613C28.3691 25.9596 29.4272 24.8923 29.4272 23.5754V20.3001L23.8329 20.3084V22.4946C23.8329 22.8768 23.6713 22.9649 23.2907 22.9649L22.19 22.9814C21.8076 22.9814 21.6478 22.8951 21.6478 22.5111V18.5264H29.4272V11.0766C29.4272 9.76141 28.3691 8.69236 27.0613 8.69236H18.3454ZM34.1507 8.69236C32.8411 8.69236 31.7848 9.76141 31.7848 11.0766V23.5754C31.7848 24.8923 32.8411 25.9596 34.1507 25.9596H42.8748C44.1844 25.9596 45.2406 24.8923 45.2406 23.5754V20.3001L39.6464 20.3084V22.4946C39.6464 22.8768 39.4866 22.9649 39.1042 22.9649L38.0034 22.9814C37.6228 22.9814 37.4612 22.8951 37.4612 22.5111V18.5264H45.2406V11.0766C45.2406 9.76141 44.1844 8.69236 42.8748 8.69236H34.1507ZM99.5321 8.69236C98.2226 8.69236 97.1581 9.76141 97.1581 11.0766V23.5754C97.1581 24.8923 98.2226 25.9596 99.5321 25.9596H108.026C109.336 25.9596 110.4 24.8923 110.4 23.5754V11.0766C110.4 9.76141 109.336 8.69236 108.026 8.69236H99.5321ZM146.422 8.69236C145.113 8.69236 144.048 9.76141 144.048 11.0766V23.5754C144.048 24.8923 145.113 25.9596 146.422 25.9596H155.138C156.448 25.9596 157.512 24.8923 157.512 23.5754V20.3001L151.91 20.3084V22.4946C151.91 22.8768 151.748 22.9649 151.367 22.9649L150.267 22.9814C149.883 22.9814 149.724 22.8951 149.724 22.5111V18.5264H157.512V11.0766C157.512 9.76141 156.448 8.69236 155.138 8.69236H146.422ZM159.935 8.69236V25.9596H165.267V12.5616C165.267 12.1794 165.576 11.8686 165.957 11.8686H167.444C167.828 11.8686 168.134 12.1794 168.134 12.5616V25.9596H173.169V11.0766C173.169 9.76141 172.111 8.69236 170.804 8.69236H167.641C166.208 8.69236 165.267 9.88861 165.267 9.88861V8.69236H159.935ZM191.193 8.69236V23.5754C191.193 24.8923 192.259 25.9596 193.567 25.9596H196.721C198.156 25.9596 199.095 24.7634 199.095 24.7634V25.9596H204.435V8.69236H199.095V22.0904C199.095 22.4726 198.788 22.7834 198.405 22.7834H196.927C196.546 22.7834 196.237 22.4726 196.237 22.0904V8.69236H191.193ZM219.912 8.69236C218.601 8.69236 217.538 9.76141 217.538 11.0766V23.5754C217.537 24.8923 218.601 25.9596 219.912 25.9596H223.469C224.999 25.9596 225.44 25.1099 225.44 25.1099V29.5731C225.44 29.9553 225.132 30.2661 224.75 30.2661H223.567C222.926 30.2661 222.552 30.2659 222.557 29.5731V28.1871H217.538V30.8601C217.537 32.1753 218.601 33.2444 219.912 33.2444H228.406C229.714 33.2444 230.78 32.1753 230.78 30.8601V8.69236H225.44V9.88861C225.44 9.88861 224.507 8.69236 223.074 8.69236H219.912ZM112.955 8.72536V31.5449H118.295V25.1511C118.295 25.1511 118.735 25.9926 120.266 25.9926H123.823C125.131 25.9926 126.197 24.9236 126.197 23.6084V11.1096C126.197 9.79442 125.131 8.72536 123.823 8.72536H120.661C119.229 8.72536 118.295 9.92161 118.295 9.92161V8.72536H112.955ZM128.547 8.72536V31.5449H133.878V25.1511C133.878 25.1511 134.327 25.9926 135.858 25.9926H139.415C140.724 25.9926 141.789 24.9236 141.789 23.6084V11.1096C141.789 9.79442 140.725 8.72536 139.415 8.72536H136.252C134.821 8.72536 133.878 9.92161 133.878 9.92161V8.72536H128.547ZM118.812 12.1574H120.406C120.572 12.1574 120.71 12.2976 120.71 12.4626V22.4451C120.71 22.6101 120.572 22.7504 120.406 22.7504H118.812C118.649 22.7504 118.508 22.6101 118.508 22.4451V12.4626C118.508 12.2976 118.649 12.1574 118.812 12.1574ZM134.396 12.1574H135.998C136.16 12.1574 136.302 12.2976 136.302 12.4626V22.4451C136.302 22.6101 136.16 22.7504 135.998 22.7504H134.396C134.233 22.7504 134.1 22.6101 134.1 22.4451V12.4626C134.1 12.2976 134.233 12.1574 134.396 12.1574ZM181.68 12.1574H183.274C183.439 12.1574 183.578 12.2976 183.578 12.4626V22.4451C183.578 22.6101 183.439 22.7504 183.274 22.7504H181.68C181.514 22.7504 181.384 22.6101 181.384 22.4451V12.4626C181.384 12.2976 181.514 12.1574 181.68 12.1574ZM223.197 12.1574H224.791C224.955 12.1574 225.095 12.2976 225.095 12.4626V22.4451C225.095 22.6101 224.955 22.7504 224.791 22.7504H223.197C223.035 22.7504 222.902 22.6101 222.902 22.4451V12.4626C222.902 12.2976 223.035 12.1574 223.197 12.1574ZM21.9353 12.1739H23.529C23.695 12.1739 23.8329 12.3059 23.8329 12.4709V15.1769C23.8329 15.3419 23.695 15.4821 23.529 15.4821H21.9353C21.771 15.4821 21.6314 15.3419 21.6314 15.1769V12.4709C21.6314 12.3059 21.771 12.1739 21.9353 12.1739ZM37.7488 12.1739H39.3424C39.5067 12.1739 39.6464 12.3059 39.6464 12.4709V15.1769C39.6464 15.3419 39.5067 15.4821 39.3424 15.4821H37.7488C37.5845 15.4821 37.4448 15.3419 37.4448 15.1769V12.4709C37.4448 12.3059 37.5845 12.1739 37.7488 12.1739ZM102.974 12.1739H104.576C104.74 12.1739 104.872 12.3059 104.872 12.4709V22.4616C104.872 22.6266 104.74 22.7586 104.576 22.7586H102.974C102.808 22.7586 102.678 22.6266 102.678 22.4616V12.4709C102.678 12.3059 102.808 12.1739 102.974 12.1739ZM150.012 12.1739H151.614C151.78 12.1739 151.91 12.3059 151.91 12.4709V15.1769C151.91 15.3419 151.78 15.4821 151.614 15.4821H150.012C149.849 15.4821 149.716 15.3419 149.716 15.1769V12.4709C149.716 12.3059 149.849 12.1739 150.012 12.1739ZM67.1002 14.8799C66.0886 14.8799 64.7918 15.4549 64.7918 17.1899C64.7918 18.1082 65.4456 19.5384 65.9501 20.0856C65.044 20.8715 63.9703 21.7001 63.9703 23.2701C63.9703 25.4201 65.5512 25.9761 66.9112 25.9761C67.9849 25.9761 69.2033 24.6778 69.195 24.6891L70.0493 25.8029H72.0208L70.5011 23.7486C70.5985 23.5395 70.8541 23.4563 71.1336 23.1051L70.0657 21.7191C69.8069 22.0294 69.5636 22.0759 69.4825 22.2636L68.0695 20.2094C68.8081 19.6899 69.5564 18.4332 69.5564 17.1899C69.5564 15.4549 68.1121 14.8799 67.1002 14.8799ZM67.0673 16.3649C67.4984 16.3649 68.0285 16.584 68.0285 17.2064C68.0285 18.2226 67.4046 18.717 67.133 18.9801C66.5537 18.3019 66.3198 17.8738 66.3198 17.2806C66.3198 16.7612 66.6348 16.3649 67.0673 16.3649ZM66.8373 21.4799L68.2092 23.4021C68.5247 23.0068 67.6469 24.3179 66.9523 24.3179C66.2788 24.3179 65.7037 24.025 65.7037 23.1051C65.7037 22.29 66.416 21.9832 66.8373 21.4799Z" fill="white"/>
</svg>
