<svg width="20" height="20" viewBox="0 0 20 20" fill="none" xmlns="http://www.w3.org/2000/svg">
<path d="M19.3573 15.6069C19.3573 15.8479 19.3126 16.1625 19.2233 16.5509C19.1339 16.9392 19.0401 17.245 18.9418 17.4684C18.7541 17.9147 18.2094 18.3879 17.3078 18.8879C16.4684 19.3432 15.6381 19.5709 14.8168 19.5709C14.5758 19.5709 14.3414 19.5552 14.1138 19.5239C13.8861 19.4925 13.6294 19.4367 13.3438 19.3564C13.0581 19.276 12.8461 19.2114 12.7078 19.1624C12.5694 19.1134 12.3216 19.0219 11.9643 18.8879C11.6069 18.7539 11.3881 18.6735 11.3078 18.6469C10.4328 18.3342 9.65142 17.9637 8.96376 17.5354C7.82076 16.83 6.63992 15.868 5.42126 14.6494C4.20259 13.4307 3.24059 12.2499 2.53526 11.1069C2.10659 10.4192 1.73609 9.63788 1.42376 8.76288C1.39709 8.68255 1.31676 8.46371 1.18276 8.10638C1.04876 7.74905 0.957256 7.50121 0.908256 7.36288C0.859256 7.22455 0.794589 7.01255 0.714256 6.72688C0.633923 6.44121 0.578089 6.18455 0.546756 5.95688C0.515423 5.72921 0.499756 5.49488 0.499756 5.25388C0.499756 4.43255 0.727423 3.60221 1.18276 2.76288C1.68276 1.86121 2.15592 1.31655 2.60226 1.12888C2.82559 1.03055 3.13142 0.936712 3.51976 0.847379C3.90809 0.758046 4.22276 0.713379 4.46376 0.713379C4.58876 0.713379 4.68259 0.726712 4.74526 0.753379C4.90592 0.807046 5.14259 1.14638 5.45526 1.77138C5.55359 1.94105 5.68759 2.18205 5.85726 2.49438C6.02692 2.80671 6.18326 3.09021 6.32626 3.34488C6.46926 3.59955 6.60759 3.83838 6.74126 4.06138C6.76792 4.09705 6.84609 4.20871 6.97576 4.39638C7.10542 4.58405 7.20142 4.74255 7.26376 4.87188C7.32609 5.00121 7.35742 5.12838 7.35776 5.25338C7.35776 5.43205 7.23059 5.65521 6.97626 5.92288C6.72192 6.19055 6.44509 6.43605 6.14576 6.65938C5.84642 6.88271 5.56959 7.11938 5.31526 7.36938C5.06092 7.61938 4.93376 7.82471 4.93376 7.98538C4.93376 8.06571 4.95609 8.16621 5.00076 8.28688C5.04542 8.40755 5.08342 8.49905 5.11476 8.56138C5.14609 8.62371 5.20859 8.73088 5.30226 8.88288C5.39592 9.03488 5.44726 9.11971 5.45626 9.13738C6.13492 10.3607 6.91176 11.4099 7.78676 12.2849C8.66176 13.1599 9.71092 13.9367 10.9343 14.6154C10.9523 14.6244 11.0371 14.6757 11.1888 14.7694C11.3404 14.863 11.4476 14.9255 11.5103 14.9569C11.5729 14.9882 11.6644 15.0262 11.7848 15.0709C11.9051 15.1155 12.0056 15.1379 12.0863 15.1379C12.2469 15.1379 12.4523 15.0107 12.7023 14.7564C12.9523 14.502 13.1889 14.2252 13.4123 13.9259C13.6356 13.6265 13.8811 13.3497 14.1488 13.0954C14.4164 12.841 14.6396 12.7139 14.8183 12.7139C14.9433 12.7139 15.0704 12.7452 15.1998 12.8079C15.3291 12.8705 15.4876 12.9665 15.6753 13.0959C15.8629 13.2252 15.9746 13.3034 16.0103 13.3304C16.2336 13.4644 16.4724 13.6027 16.7268 13.7454C16.9811 13.888 17.2646 14.0444 17.5773 14.2144C17.8899 14.3844 18.1309 14.5184 18.3003 14.6164C18.9253 14.929 19.2646 15.1657 19.3183 15.3264C19.3449 15.389 19.3583 15.4829 19.3583 15.6079L19.3573 15.6069Z" fill="white"/>
</svg>
