<svg width="165" height="102" viewBox="0 0 165 102" fill="none" xmlns="http://www.w3.org/2000/svg">
<rect x="0.119425" y="0.119425" width="164.761" height="101.511" rx="4.65757" stroke="#014895" stroke-width="0.23885"/>
<mask id="mask0_297_2205" style="mask-type:alpha" maskUnits="userSpaceOnUse" x="0" y="0" width="165" height="102">
<rect x="0.119425" y="0.119425" width="164.761" height="101.511" rx="4.65757" fill="white" stroke="#014895" stroke-width="0.23885"/>
</mask>
<g mask="url(#mask0_297_2205)">
<path d="M31.6201 54.8201C26.8833 54.8201 23.0295 50.9862 23.0295 46.2803H14.4375C14.4375 55.6978 22.1465 63.3569 31.6201 63.3569C41.0981 63.3569 48.8071 55.6978 48.8071 46.2803H40.215C40.215 50.9862 36.3612 54.8201 31.6201 54.8201Z" fill="#004A95"/>
<path d="M38.067 46.279C38.067 49.8155 35.1824 52.6816 31.6215 52.6816C28.0621 52.6816 25.179 49.8155 25.179 46.279C25.179 42.7396 28.0621 39.8749 31.6215 39.8749C35.1824 39.8749 38.067 42.7396 38.067 46.279Z" fill="#004A95"/>
<path d="M62.0914 63.5044H58.9469L53.1045 46.282H56.8908L59.7395 55.1891C59.9864 55.9524 60.2593 56.9102 60.5321 58.1653C60.7532 57.1075 61.1997 55.6808 61.5214 54.746L64.4433 46.282H68.0845" fill="#535353"/>
<path d="M76.2774 56.0967C75.8553 55.9737 75.5839 55.9494 74.9392 55.9494H72.7869V60.5752H75.0383C75.7576 60.5752 76.2774 60.478 76.6478 60.1807C77.169 59.7876 77.5409 59 77.5409 58.188C77.5409 57.206 77.0456 56.3197 76.2774 56.0967ZM76.1783 49.4296C75.8825 49.3066 75.5092 49.2066 74.7425 49.2066H72.7366V53.1191H74.7913C75.6083 53.1191 75.9802 53.0476 76.2774 52.8989C76.7483 52.6531 77.169 51.8397 77.169 51.1507C77.169 50.4374 76.7972 49.674 76.1783 49.4296ZM76.9465 63.3313C76.4009 63.3556 75.683 63.3799 74.7425 63.3799H69.3193V46.2804H75.1388C77.2423 46.2804 78.3335 46.6006 79.373 47.5112C80.3379 48.3475 80.7845 49.3295 80.7845 50.5603C80.7845 51.7167 80.3867 52.7017 79.62 53.4164C79.1246 53.8824 78.8274 54.0539 78.0348 54.3012C80.1642 54.9159 81.4507 56.3683 81.4507 58.6068C81.4507 60.9698 79.9675 63.1826 76.9465 63.3313Z" fill="#535353"/>
<path d="M91.1325 63.5771C88.558 63.5771 86.6498 62.7409 85.2656 60.9683C84.0021 59.3701 83.4321 57.549 83.4321 54.9916C83.4321 51.3736 84.6209 48.8148 87.0231 47.2153C88.2852 46.379 89.5731 46.0102 91.2071 46.0102C93.2876 46.0102 95.1686 46.6749 96.6791 47.9786L94.847 50.12C93.7313 49.2094 92.5683 48.7905 91.2559 48.7905C90.2408 48.7905 89.375 49.0864 88.7806 49.6525C87.6175 50.7589 87.3189 52.6044 87.3189 55.1632C87.3189 57.5976 87.741 59.1729 88.6068 60.0334C89.2515 60.6495 90.192 60.994 91.3048 60.994C92.0729 60.994 92.6918 60.8711 93.2618 60.5752V56.687H90.6371L90.192 53.8838H96.8514V62.0518C95.0939 63.0854 93.1627 63.5771 91.1325 63.5771ZM55.4075 67.6597H56.6954V75.1616H55.4075V67.6597Z" fill="#535353"/>
<path d="M61.5729 75.1616V71.4307C61.5729 70.7488 61.3332 70.553 60.8737 70.553C60.4501 70.553 59.9361 70.8246 59.5427 71.2263V75.1616H58.3323V68.636C58.3323 68.1472 58.2892 67.724 58.2231 67.4424L59.4336 67.1823C59.5097 67.4967 59.5427 67.9413 59.5427 68.4716V69.6424C59.5427 69.9469 59.5211 70.2056 59.5211 70.2614C60.0668 69.7725 60.6239 69.5452 61.214 69.5452C61.8673 69.5452 62.3698 69.8597 62.5551 70.217C62.6958 70.4886 62.7403 70.7374 62.7403 71.2906V75.1616" fill="#535353"/>
<path d="M66.9516 70.7159C66.8338 70.673 66.7463 70.6402 66.6142 70.6402C66.1116 70.6402 65.6852 71.009 65.5775 71.4535V75.1616H64.3786V71.2906C64.3786 70.5973 64.301 70.1527 64.1804 69.8154L65.2831 69.5338C65.4124 69.7839 65.4885 70.0984 65.4885 70.4014C65.9278 69.8054 66.3615 69.5237 66.8985 69.5237C67.0708 69.5237 67.1799 69.5452 67.322 69.6095" fill="#535353"/>
<path d="M69.9756 70.4458C69.2993 70.4458 68.9289 70.9776 68.9289 71.8667H70.9678C70.9678 70.9776 70.5758 70.4458 69.9756 70.4458ZM68.9174 72.7445V72.8316C68.9174 73.5907 69.2017 74.3926 70.28 74.3926C70.794 74.3926 71.242 74.2082 71.6555 73.8509L72.1251 74.577C71.5464 75.0645 70.8816 75.3032 70.1393 75.3032C68.5785 75.3032 67.5964 74.1868 67.5964 72.43C67.5964 71.4651 67.8046 70.8261 68.2842 70.2829C68.7307 69.774 69.2778 69.5453 69.9756 69.5453C70.5212 69.5453 71.0223 69.6868 71.4933 70.1099C71.9729 70.543 72.2126 71.2163 72.2126 72.4957V72.7445" fill="#535353"/>
<path d="M77.5368 70.446C76.9251 70.446 76.5877 70.7819 76.5877 71.4009C76.5877 72.0298 76.9466 72.3215 77.5368 72.3215C78.1585 72.3215 78.4859 71.997 78.4859 71.3894C78.4859 70.7719 78.17 70.446 77.5368 70.446ZM79.8284 70.5546C79.6001 70.5546 79.4349 70.5117 79.4019 70.5003C79.4349 70.5332 79.7623 70.8905 79.7623 71.4552C79.7623 72.4087 78.9669 73.1348 77.6674 73.1348C77.2755 73.2764 76.9251 73.4822 76.9251 73.6552C76.9251 73.8624 77.0012 73.8839 78.3006 73.8839C79.1837 73.8839 80.1328 74.3285 80.1328 75.4449C80.1328 76.6156 79.1521 77.2432 77.6789 77.2432C76.2488 77.2432 75.2122 76.7786 75.2122 75.7479C75.2122 75.5206 75.2997 75.2276 75.3213 75.1633H76.457C76.4355 75.2062 76.3694 75.402 76.3694 75.5535C76.3694 76.0624 76.8059 76.3454 77.5798 76.3454C78.4313 76.3454 78.8908 75.9981 78.8908 75.4878C78.8908 74.8917 78.3882 74.7287 77.363 74.7287C75.8784 74.7287 75.551 74.4357 75.551 73.8939C75.551 73.3521 76.009 73.1348 76.5992 72.9504C75.7693 72.7117 75.3428 72.1814 75.3428 71.4009C75.3428 70.283 76.2273 69.5454 77.5483 69.5454C78.3337 69.5454 78.7816 69.8284 79.2282 69.8284C79.5886 69.8284 79.926 69.6984 80.2318 69.4482L80.7889 70.1972C80.4831 70.4574 80.1988 70.5546 79.8284 70.5546Z" fill="#535353"/>
<path d="M83.3303 70.4458C82.6541 70.4458 82.2836 70.9776 82.2836 71.8667H84.3225C84.3225 70.9776 83.9305 70.4458 83.3303 70.4458ZM82.2721 72.7445V72.8316C82.2721 73.5907 82.555 74.3926 83.6347 74.3926C84.1488 74.3926 84.5968 74.2082 85.0103 73.8509L85.4798 74.577C84.9012 75.0645 84.2349 75.3032 83.494 75.3032C81.9333 75.3032 80.9512 74.1868 80.9512 72.43C80.9512 71.4651 81.1594 70.8261 81.6389 70.2829C82.0855 69.774 82.6311 69.5453 83.3303 69.5453C83.876 69.5453 84.3771 69.6868 84.8466 70.1099C85.3276 70.543 85.5674 71.2163 85.5674 72.4957V72.7445" fill="#535353"/>
<path d="M88.3398 75.3145C87.6635 75.3145 86.9327 75.0972 86.2219 74.7069L86.6484 73.8507C87.1409 74.1323 87.8157 74.4253 88.4374 74.4253C88.9615 74.4253 89.3319 74.1108 89.3319 73.6548C89.3319 73.2331 89.0606 73.0158 88.4374 72.8858L87.7726 72.7442C86.9427 72.5713 86.4531 72.0081 86.4531 71.2376C86.4531 70.2069 87.2816 69.4922 88.5035 69.4922C89.2558 69.4922 89.8575 69.7195 90.3255 69.9682L89.9336 70.793C89.4195 70.5214 89.0161 70.3913 88.5796 70.3913C88.067 70.3913 87.7396 70.6729 87.7396 71.0961C87.7396 71.432 87.9263 71.6064 88.4819 71.7465L89.1697 71.9209C90.281 72.2025 90.5768 72.81 90.5768 73.449C90.5768 74.5554 89.6708 75.3145 88.3398 75.3145Z" fill="#535353"/>
<path d="M93.8289 70.4458C93.1512 70.4458 92.7822 70.9776 92.7822 71.8667H94.821C94.821 70.9776 94.4291 70.4458 93.8289 70.4458ZM92.7707 72.7445V72.8316C92.7707 73.5907 93.0535 74.3926 94.1333 74.3926C94.6473 74.3926 95.0953 74.2082 95.5088 73.8509L95.9783 74.577C95.3997 75.0645 94.7335 75.3032 93.9926 75.3032C92.4318 75.3032 91.4497 74.1868 91.4497 72.43C91.4497 71.4651 91.6565 70.8261 92.1375 70.2829C92.584 69.774 93.1296 69.5453 93.8289 69.5453C94.3745 69.5453 94.8756 69.6868 95.3451 70.1099C95.8261 70.543 96.0659 71.2163 96.0659 72.4957V72.7445" fill="#535353"/>
<path d="M98.7051 75.3032C97.6369 75.3032 97.265 74.6743 97.265 73.8938V70.5002H96.6533V69.6754H97.265C97.265 69.2093 97.265 68.7319 97.3195 68.3202L98.5529 68.0272C98.4984 68.4717 98.4553 69.1336 98.4553 69.6754H99.7734L99.4575 70.5002H98.4438V73.5793C98.4438 74.2626 98.596 74.457 99.1201 74.457C99.2838 74.457 99.4259 74.4255 99.6327 74.3498L99.7849 75.0645C99.4259 75.2275 99.0756 75.3032 98.7051 75.3032Z" fill="#535353"/>
<path d="M104.173 75.1616H100.277V74.3697L103.05 70.5201H100.496V69.6753H104.401V70.5201L101.784 74.3268H104.522" fill="#535353"/>
<path d="M106.769 75.2822C105.557 75.2822 105.557 74.1987 105.557 73.7312V69.0583C105.557 68.3106 105.524 67.9104 105.448 67.4544L106.681 67.1842C106.769 67.5201 106.78 67.9747 106.78 68.6895V73.341C106.78 74.0786 106.812 74.1987 106.899 74.3288C106.965 74.426 107.151 74.4803 107.293 74.4145L107.49 75.1521C107.271 75.2393 107.042 75.2822 106.769 75.2822Z" fill="#535353"/>
<path d="M108.417 75.1616V69.761L109.629 69.5452V75.1616H108.417ZM109.017 68.8633C108.581 68.8633 108.243 68.5031 108.243 68.0714C108.243 67.6268 108.591 67.2695 109.039 67.2695C109.464 67.2695 109.824 67.6168 109.824 68.0714C109.824 68.5031 109.464 68.8633 109.017 68.8633Z" fill="#535353"/>
<path d="M113.283 75.3032C111.777 75.3032 110.937 74.2511 110.937 72.4843C110.937 70.4887 112.139 69.5353 113.371 69.5353C113.971 69.5353 114.406 69.6754 114.898 70.1314L114.298 70.9219C113.971 70.6302 113.688 70.5002 113.371 70.5002C112.989 70.5002 112.671 70.6946 112.498 71.0519C112.334 71.3893 112.269 71.8982 112.269 72.5815C112.269 73.3291 112.389 73.8066 112.638 74.0782C112.814 74.2726 113.076 74.3926 113.371 74.3926C113.753 74.3926 114.123 74.2082 114.485 73.8509L115.051 74.577C114.55 75.0759 114.025 75.3032 113.283 75.3032Z" fill="#535353"/>
<path d="M119.328 75.1616V71.4307C119.328 70.7488 119.088 70.553 118.63 70.553C118.205 70.553 117.691 70.8246 117.298 71.2263V75.1616H116.087V68.636C116.087 68.1472 116.044 67.724 115.978 67.4424L117.188 67.1823C117.265 67.4967 117.298 67.9413 117.298 68.4716V69.6424C117.298 69.9469 117.276 70.2056 117.276 70.2614C117.822 69.7725 118.379 69.5452 118.969 69.5452C119.622 69.5452 120.125 69.8597 120.31 70.217C120.451 70.4886 120.495 70.7374 120.495 71.2906V75.1616" fill="#535353"/>
<path d="M124.186 70.4458C123.509 70.4458 123.139 70.9776 123.139 71.8667H125.178C125.178 70.9776 124.786 70.4458 124.186 70.4458ZM123.127 72.7445V72.8316C123.127 73.5907 123.412 74.3926 124.49 74.3926C125.004 74.3926 125.452 74.2082 125.865 73.8509L126.335 74.577C125.756 75.0645 125.092 75.3032 124.349 75.3032C122.789 75.3032 121.806 74.1868 121.806 72.43C121.806 71.4651 122.013 70.8261 122.494 70.2829C122.941 69.774 123.488 69.5453 124.186 69.5453C124.731 69.5453 125.232 69.6868 125.702 70.1099C126.181 70.543 126.421 71.2163 126.421 72.4957V72.7445" fill="#535353"/>
<path d="M57.962 86.7378C55.9762 86.7378 55.3545 85.7186 55.3545 84.5149V79.1058H56.6195V84.1461C56.6195 85.2954 57.0344 85.6757 57.962 85.6757C58.878 85.6757 59.326 85.1439 59.326 84.1461V79.1058H60.5795V84.5035C60.5795 85.8815 59.6204 86.7378 57.962 86.7378Z" fill="#535353"/>
<path d="M65.1843 86.6079V82.9642C65.1843 82.2165 65.0105 82.0107 64.5511 82.0107C64.2022 82.0107 63.6996 82.2709 63.3407 82.6282V86.6079H62.1618V82.5739C62.1618 81.9993 62.1073 81.6633 61.9551 81.2731L63.0449 80.97C63.1755 81.2188 63.243 81.4575 63.243 81.7505C63.8303 81.2516 64.3443 80.9915 64.9344 80.9915C65.7859 80.9915 66.3731 81.5004 66.3731 82.5096V86.6079" fill="#535353"/>
<path d="M70.5312 79.7106C70.2584 79.5805 70.0947 79.5148 69.865 79.5148C69.4515 79.5148 69.1887 79.7978 69.1887 80.2853V81.1201H70.6289L70.3245 81.9449H69.1988V86.6064H68.0113V81.9449H67.4973V81.1201H68.0329C68.0214 81.0558 67.9999 80.7627 67.9999 80.3067C67.9999 79.1689 68.6977 78.6385 69.6798 78.6385C70.1493 78.6385 70.5413 78.7343 70.9247 78.9516" fill="#535353"/>
<path d="M73.5636 84.016C72.3618 84.016 72.0028 84.3634 72.0028 85.0567C72.0028 85.577 72.2857 85.9029 72.7667 85.9029C73.15 85.9029 73.5205 85.6757 73.7603 85.3283L73.7818 84.026C73.7603 84.026 73.6396 84.016 73.5636 84.016ZM74.8099 86.835C74.4681 86.7049 74.1867 86.4447 74.056 86.0973C73.6066 86.5962 73.1285 86.7706 72.5398 86.7706C71.272 86.7706 70.7034 86.0759 70.7034 85.1224C70.7034 83.8531 71.6654 83.2141 73.4329 83.2141H73.8048V82.921C73.8048 82.2921 73.6956 81.9561 73.0395 81.9561C72.3316 81.9561 71.5663 82.455 71.3926 82.5851L70.8599 81.7274C71.6884 81.2071 72.3761 80.9798 73.2046 80.9798C74.0661 80.9798 74.6447 81.2943 74.8845 81.8904C74.9822 82.1291 74.9822 82.4222 74.9707 83.2355L74.9491 84.808C74.9391 85.5441 75.0051 85.7829 75.4287 86.0759" fill="#535353"/>
<path d="M77.8095 86.7261C76.5976 86.7261 76.5976 85.6425 76.5976 85.1751V80.5021C76.5976 79.7559 76.5646 79.3528 76.4885 78.8982L77.7219 78.6281C77.8095 78.964 77.821 79.4171 77.821 80.1333V84.7848C77.821 85.5225 77.8526 85.6425 77.9402 85.7726C78.0062 85.8698 78.1914 85.9241 78.3336 85.8584L78.5303 86.596C78.312 86.6832 78.0823 86.7261 77.8095 86.7261Z" fill="#535353"/>
<path d="M80.559 86.7261C79.3472 86.7261 79.3472 85.6425 79.3472 85.1751V80.5021C79.3472 79.7559 79.3141 79.3528 79.238 78.8982L80.4729 78.6281C80.559 78.964 80.5705 79.4171 80.5705 80.1333V84.7848C80.5705 85.5225 80.6021 85.6425 80.6897 85.7726C80.7557 85.8698 80.9409 85.9241 81.0831 85.8584L81.2798 86.596C81.0615 86.6832 80.8318 86.7261 80.559 86.7261Z" fill="#535353"/>
<path d="M84.4329 86.6289H83.3747L81.3889 81.164L82.6223 80.9896L83.5814 83.9501C83.7135 84.3517 83.8542 84.905 83.9189 85.1751H83.9418C83.9634 85.045 84.084 84.4604 84.2692 83.9072L85.1853 81.1197H86.4416" fill="#535353"/>
<path d="M89.2014 81.8907C88.5252 81.8907 88.1547 82.4224 88.1547 83.3116H90.1936C90.1936 82.4224 89.8016 81.8907 89.2014 81.8907ZM88.1432 84.1893V84.2765C88.1432 85.0355 88.4275 85.8375 89.5058 85.8375C90.0199 85.8375 90.4678 85.6531 90.8814 85.2957L91.3523 86.0219C90.7722 86.5093 90.1075 86.748 89.3651 86.748C87.8044 86.748 86.8223 85.6316 86.8223 83.8748C86.8223 82.9099 87.0305 82.2709 87.51 81.7277C87.9566 81.2188 88.5036 80.9901 89.2014 80.9901C89.7485 80.9901 90.2482 81.1316 90.7191 81.5547C91.1973 81.9879 91.4385 82.6612 91.4385 83.9405V84.1893" fill="#535353"/>
<path d="M95.2133 82.1622C95.0941 82.1193 95.0065 82.0865 94.8759 82.0865C94.3733 82.0865 93.9469 82.4553 93.8378 82.8998V86.6079H92.6388V82.7369C92.6388 82.0436 92.5627 81.599 92.4421 81.2616L93.5434 80.98C93.6755 81.2302 93.7516 81.5447 93.7516 81.8477C94.1881 81.2516 94.6246 80.97 95.1587 80.97C95.3339 80.97 95.4416 80.9915 95.5837 81.0558" fill="#535353"/>
<path d="M97.8105 86.7593C97.1342 86.7593 96.4034 86.542 95.6941 86.1517L96.1191 85.2955C96.6102 85.5771 97.2864 85.8701 97.9081 85.8701C98.4337 85.8701 98.8027 85.5557 98.8027 85.0996C98.8027 84.678 98.5313 84.4607 97.9081 84.3306L97.2434 84.1891C96.4134 84.0161 95.9238 83.4529 95.9238 82.6824C95.9238 81.6517 96.7523 80.937 97.9742 80.937C98.7266 80.937 99.3282 81.1643 99.7963 81.413L99.4043 82.2378C98.8903 81.9662 98.4882 81.8361 98.0503 81.8361C97.5391 81.8361 97.2103 82.1177 97.2103 82.5409C97.2103 82.8768 97.3956 83.0512 97.9527 83.1913L98.6404 83.3657C99.7532 83.6473 100.048 84.2548 100.048 84.8938C100.048 86.0002 99.143 86.7593 97.8105 86.7593Z" fill="#535353"/>
<path d="M101.139 86.6079V81.2088L102.351 80.9915V86.6079H101.139ZM101.739 80.3082C101.303 80.3082 100.965 79.9522 100.965 79.5177C100.965 79.0731 101.313 78.7157 101.761 78.7157C102.186 78.7157 102.546 79.0631 102.546 79.5177C102.546 79.9522 102.186 80.3082 101.739 80.3082Z" fill="#535353"/>
<path d="M106.006 86.7495C104.5 86.7495 103.66 85.696 103.66 83.9306C103.66 81.935 104.861 80.9816 106.094 80.9816C106.694 80.9816 107.129 81.1202 107.622 81.5776L107.02 82.3681C106.694 82.0765 106.41 81.9465 106.094 81.9465C105.712 81.9465 105.395 82.1409 105.221 82.4982C105.057 82.8356 104.993 83.3431 104.993 84.0278C104.993 84.7768 105.112 85.2528 105.362 85.5244C105.537 85.7203 105.8 85.8375 106.094 85.8375C106.476 85.8375 106.846 85.6545 107.208 85.2972L107.774 86.0233C107.273 86.5222 106.749 86.7495 106.006 86.7495Z" fill="#535353"/>
<path d="M112.05 86.6079V82.8784C112.05 82.1951 111.81 81.9993 111.352 81.9993C110.927 81.9993 110.413 82.2709 110.019 82.6725V86.6079H108.809V80.0823C108.809 79.592 108.766 79.1703 108.7 78.8887L109.91 78.6285C109.986 78.943 110.019 79.3862 110.019 79.9179V81.0887C110.019 81.3932 109.998 81.6519 109.998 81.7076C110.544 81.2188 111.101 80.9915 111.691 80.9915C112.344 80.9915 112.847 81.306 113.032 81.6633C113.173 81.9349 113.217 82.1837 113.217 82.7369V86.6079" fill="#535353"/>
<path d="M116.906 81.8907C116.23 81.8907 115.859 82.4224 115.859 83.3116H117.898C117.898 82.4224 117.506 81.8907 116.906 81.8907ZM115.848 84.1893V84.2765C115.848 85.0355 116.132 85.8375 117.21 85.8375C117.724 85.8375 118.172 85.6531 118.586 85.2957L119.055 86.0219C118.477 86.5093 117.812 86.748 117.069 86.748C115.509 86.748 114.527 85.6316 114.527 83.8748C114.527 82.9099 114.735 82.2709 115.214 81.7277C115.661 81.2188 116.208 80.9901 116.906 80.9901C117.451 80.9901 117.953 81.1316 118.422 81.5547C118.903 81.9879 119.143 82.6612 119.143 83.9405V84.1893" fill="#535353"/>
<path d="M122.919 82.1622C122.8 82.1193 122.712 82.0865 122.582 82.0865C122.079 82.0865 121.653 82.4553 121.544 82.8998V86.6079H120.345V82.7369C120.345 82.0436 120.269 81.599 120.148 81.2616L121.249 80.98C121.381 81.2302 121.457 81.5447 121.457 81.8477C121.894 81.2516 122.329 80.97 122.865 80.97C123.038 80.97 123.147 80.9915 123.29 81.0558" fill="#535353"/>
<path d="M127.621 86.7803C127.382 86.6073 127.239 86.4115 127.14 86.097C126.737 86.553 126.203 86.7688 125.57 86.7688C124.949 86.7688 124.468 86.553 124.195 86.2271C123.976 85.9669 123.89 85.6095 123.89 84.9262V81.2067L125.068 80.9894V84.6661C125.068 85.3494 125.166 85.8483 125.875 85.8483C126.279 85.8483 126.77 85.5223 126.955 85.1321V81.2067L128.112 80.9894V85.1221C128.112 85.8583 128.385 86.1627 128.45 86.2171" fill="#535353"/>
<path d="M132.663 86.6079V82.9642C132.663 82.2165 132.489 82.0107 132.03 82.0107C131.681 82.0107 131.178 82.2709 130.819 82.6282V86.6079H129.64V82.5739C129.64 81.9993 129.586 81.6633 129.434 81.2731L130.523 80.97C130.655 81.2188 130.722 81.4575 130.722 81.7505C131.309 81.2516 131.823 80.9915 132.413 80.9915C133.263 80.9915 133.853 81.5004 133.853 82.5096V86.6079" fill="#535353"/>
<path d="M137.376 81.8903C136.765 81.8903 136.427 82.2262 136.427 82.8452C136.427 83.4742 136.786 83.7658 137.376 83.7658C137.998 83.7658 138.325 83.4413 138.325 82.8338C138.325 82.2162 138.01 81.8903 137.376 81.8903ZM139.668 81.999C139.44 81.999 139.275 81.9546 139.242 81.9446C139.275 81.9775 139.602 82.3349 139.602 82.8995C139.602 83.853 138.806 84.5792 137.507 84.5792C137.115 84.7207 136.765 84.9265 136.765 85.0995C136.765 85.3053 136.841 85.3282 138.14 85.3282C139.023 85.3282 139.972 85.7728 139.972 86.8892C139.972 88.0585 138.992 88.6875 137.519 88.6875C136.088 88.6875 135.052 88.2229 135.052 87.1923C135.052 86.965 135.139 86.6719 135.161 86.6076H136.297C136.275 86.6505 136.209 86.8463 136.209 86.9979C136.209 87.5067 136.646 87.7898 137.419 87.7898C138.271 87.7898 138.73 87.4424 138.73 86.9321C138.73 86.336 138.228 86.173 137.203 86.173C135.718 86.173 135.391 85.88 135.391 85.3382C135.391 84.7965 135.849 84.5792 136.439 84.3948C135.609 84.1575 135.182 83.6257 135.182 82.8452C135.182 81.7274 136.067 80.9897 137.388 80.9897C138.173 80.9897 138.621 81.2728 139.068 81.2728C139.428 81.2728 139.766 81.1427 140.07 80.8925L140.627 81.6416C140.323 81.9018 140.038 81.999 139.668 81.999Z" fill="#535353"/>
<rect width="165" height="29.5625" fill="#014895"/>
</g>
<g clip-path="url(#clip0_297_2205)">
<path d="M14.7913 9.56592H16.0874L18.8038 17.905H18.8276L21.5066 9.56592H22.8027V18.7187H21.9958V10.7256H21.9703L19.3168 18.7187H18.2772L15.622 10.7256H15.5982V18.7187H14.7913V9.56592Z" fill="white"/>
<path d="M24.979 11.3803H25.8607V14.5991V18.719H24.979V11.3803ZM24.979 8.9375H25.8607V10.2463H24.979V8.9375Z" fill="white"/>
<path d="M28.1472 12.3551H27.0464V11.7384C28.3307 11.6767 28.6483 10.4296 28.7961 9.41895H29.3092L29.1393 11.5414H31.6093V12.3551H29.0289V16.66C29.0289 17.3623 29.175 18.0527 30.0312 18.0527C30.6682 18.0527 31.2305 17.6467 31.5482 17.1019V18.1263C31.2424 18.546 30.7531 18.8681 29.9564 18.8681C28.9286 18.8681 28.1472 18.152 28.1472 16.9426V12.3551Z" fill="white"/>
<path d="M35.4502 17.2388C36.9672 17.2388 37.6144 15.9952 37.6144 14.6487C37.6144 13.083 36.9536 12.1203 35.4502 12.1203C33.8227 12.1203 33.2842 13.2286 33.2842 14.6487C33.2842 16.1048 33.8346 17.2388 35.4502 17.2388ZM33.0039 18.6195C33.6529 19.423 34.4598 19.6799 35.4502 19.6799C37.1744 19.6799 37.6263 18.7926 37.6263 17.2765V16.5982H37.6025C37.1744 17.5849 36.3318 18.0542 35.2667 18.0542C33.3709 18.0542 32.4773 16.5005 32.4773 14.7361C32.4773 12.8363 33.3335 11.2329 35.389 11.2329C36.3556 11.2329 37.2118 11.6149 37.6025 12.552H37.6263V11.3802H38.4349V17.7819C38.4349 19.2123 37.5533 20.4953 35.5351 20.4953C34.5685 20.4953 33.7361 20.312 33.0022 19.6319V18.6195H33.0039Z" fill="white"/>
<path d="M40.4397 8.9375H41.3214V14.8252V18.719H40.4397V8.9375Z" fill="white"/>
<path d="M43.3259 11.3803H44.2059V15.2757V18.719H43.3259V11.3803ZM43.3259 8.9375H44.2059V10.2463H43.3259V8.9375Z" fill="white"/>
<path d="M50.8974 14.4757C50.8974 13.2423 50.2994 12.1203 48.7943 12.1203C47.2773 12.1203 46.788 12.9699 46.5689 14.4757H50.8974ZM51.3255 17.7939C50.5186 18.8422 49.5146 18.8679 48.8673 18.8679C46.5553 18.8679 45.7603 17.1155 45.7603 15.1301C45.7603 13.119 46.506 11.2329 48.8436 11.2329C50.0548 11.2329 51.633 11.7622 51.633 14.6984V15.2157H46.5689C46.5689 16.8945 47.1431 18.0525 48.9421 18.0525C49.9936 18.0525 50.8498 17.5352 51.3272 16.5862V17.7939H51.3255Z" fill="white"/>
<path d="M55.6556 12.1203C54.0417 12.1203 53.5882 13.525 53.5882 14.9074C53.5882 16.2899 54.1505 18.0526 55.8017 18.0526C57.4155 18.0526 58.0033 16.8449 58.0033 15.2158C58.0033 13.7357 57.5395 12.1203 55.6556 12.1203ZM58.0645 17.4239H58.039C57.7213 18.3489 56.7309 18.868 55.715 18.868C53.6731 18.868 52.7795 16.8209 52.7795 14.9331C52.7795 11.7383 54.565 11.233 55.6046 11.233C56.595 11.233 57.4274 11.8736 57.8929 12.725H57.9184V8.9375H58.8V18.719H58.0645V17.4239Z" fill="white"/>
<path d="M66.8726 12.1203C65.2571 12.1203 64.8052 13.525 64.8052 14.9074C64.8052 16.2899 65.3658 18.0526 67.0187 18.0526C68.6343 18.0526 69.222 16.8449 69.222 15.2158C69.222 13.7357 68.7549 12.1203 66.8726 12.1203ZM69.2815 17.4239H69.2577C68.9384 18.3489 67.9463 18.868 66.9321 18.868C64.8901 18.868 63.9966 16.8209 63.9966 14.9331C63.9966 11.7383 65.7837 11.233 66.8217 11.233C67.8121 11.233 68.6428 11.8736 69.1099 12.725H69.1354V8.9375H70.0154V18.719H69.2815V17.4239Z" fill="white"/>
<path d="M76.7309 14.4757C76.7309 13.2423 76.1312 12.1203 74.6278 12.1203C73.1108 12.1203 72.6215 12.9699 72.4007 14.4757H76.7309ZM77.159 17.7939C76.3521 18.8422 75.3498 18.8679 74.7008 18.8679C72.3888 18.8679 71.5955 17.1155 71.5955 15.1301C71.5955 13.119 72.3412 11.2329 74.6771 11.2329C75.8883 11.2329 77.4648 11.7622 77.4648 14.6984V15.2157H72.4024C72.4024 16.8945 72.9766 18.0525 74.7739 18.0525C75.8254 18.0525 76.6816 17.5352 77.159 16.5862V17.7939Z" fill="white"/>
<path d="M79.0156 11.3802H79.8259V12.898H79.8497C80.1062 12.0466 80.4987 11.2329 81.5128 11.2329C81.9155 11.2329 82.3079 11.3545 82.6629 11.6766V12.725C82.4166 12.3669 81.9664 12.1203 81.501 12.1203C80.3016 12.1203 79.899 13.3417 79.899 15.6714V18.7189H79.0156V11.3802Z" fill="white"/>
</g>
<defs>
<clipPath id="clip0_297_2205">
<rect width="80.4375" height="12.375" fill="white" transform="translate(13.75 8.9375)"/>
</clipPath>
</defs>
</svg>
