<svg width="22" height="22" viewBox="0 0 22 22" fill="none" xmlns="http://www.w3.org/2000/svg">
<path d="M13.9063 12.0447C14.0224 12.0447 14.4577 12.2412 15.2121 12.634C15.9666 13.0269 16.3661 13.2635 16.4108 13.3439C16.4286 13.3885 16.4376 13.4555 16.4376 13.5447C16.4376 13.8394 16.3617 14.1787 16.2099 14.5626C16.067 14.9108 15.7501 15.2032 15.259 15.4398C14.7679 15.6764 14.3126 15.7947 13.8929 15.7947C13.384 15.7947 12.5358 15.518 11.3483 14.9644C10.4733 14.5626 9.71436 14.0358 9.0715 13.384C8.42864 12.7322 7.76793 11.9064 7.08935 10.9064C6.4465 9.951 6.12953 9.08493 6.13846 8.30814V8.201C6.16525 7.3885 6.4956 6.68314 7.12953 6.08493C7.34382 5.8885 7.57596 5.79028 7.82596 5.79028C7.87953 5.79028 7.95989 5.79698 8.06703 5.81037C8.17418 5.82377 8.259 5.83046 8.3215 5.83046C8.49114 5.83046 8.60944 5.85948 8.67641 5.91752C8.74337 5.97555 8.81257 6.09832 8.884 6.28582C8.95543 6.46439 9.10275 6.85725 9.32596 7.46439C9.54918 8.07153 9.66078 8.40635 9.66078 8.46885C9.66078 8.65635 9.50677 8.91305 9.19873 9.23894C8.89069 9.56484 8.73668 9.77243 8.73668 9.86171C8.73668 9.92421 8.759 9.99118 8.80364 10.0626C9.10721 10.7144 9.56257 11.326 10.1697 11.8974C10.6697 12.3706 11.3438 12.8215 12.192 13.2501C12.2992 13.3126 12.3974 13.3439 12.4867 13.3439C12.6206 13.3439 12.8617 13.1273 13.2099 12.6943C13.5581 12.2613 13.7902 12.0447 13.9063 12.0447ZM11.1876 19.143C12.3215 19.143 13.4086 18.9197 14.4487 18.4733C15.4889 18.0269 16.384 17.4287 17.134 16.6787C17.884 15.9287 18.4822 15.0336 18.9286 13.9934C19.3751 12.9532 19.5983 11.8662 19.5983 10.7322C19.5983 9.59832 19.3751 8.51127 18.9286 7.47109C18.4822 6.43091 17.884 5.53582 17.134 4.78582C16.384 4.03582 15.4889 3.4376 14.4487 2.99118C13.4086 2.54475 12.3215 2.32153 11.1876 2.32153C10.0536 2.32153 8.96659 2.54475 7.92641 2.99118C6.88623 3.4376 5.99114 4.03582 5.24114 4.78582C4.49114 5.53582 3.89293 6.43091 3.4465 7.47109C3.00007 8.51127 2.77685 9.59832 2.77686 10.7322C2.77686 12.5447 3.31257 14.1876 4.384 15.6608L3.32596 18.7814L6.56703 17.7501C7.97775 18.6787 9.51793 19.143 11.1876 19.143ZM11.1876 0.634033C12.5536 0.634033 13.8594 0.90189 15.105 1.4376C16.3505 1.97332 17.4242 2.69207 18.326 3.59385C19.2277 4.49564 19.9465 5.5693 20.4822 6.81484C21.0179 8.06037 21.2858 9.36618 21.2858 10.7322C21.2858 12.0983 21.0179 13.4041 20.4822 14.6497C19.9465 15.8952 19.2277 16.9689 18.326 17.8706C17.4242 18.7724 16.3505 19.4912 15.105 20.0269C13.8594 20.5626 12.5536 20.8305 11.1876 20.8305C9.4465 20.8305 7.81703 20.4108 6.29918 19.5715L0.714355 21.3662L2.53578 15.9421C1.5715 14.3528 1.08936 12.6162 1.08936 10.7322C1.08936 9.36618 1.35721 8.06037 1.89293 6.81484C2.42864 5.5693 3.14739 4.49564 4.04918 3.59385C4.95096 2.69207 6.02462 1.97332 7.27016 1.4376C8.51569 0.90189 9.8215 0.634033 11.1876 0.634033Z" fill="white"/>
</svg>
